SplineFontDB: 3.0
FontName: Cantarell-Regular
FullName: Cantarell Regular
FamilyName: Cantarell
Weight: Regular
Copyright: Copyright (c) 2009-2011, Understanding Limited (dave@understandinglimited.com),\nCopyright (c) 2010-2011, Jakub Steiner (jimmac@gmail.com).\n\nThis Font Software is licensed under the SIL Open Font License, Version 1.1.\nThis license is copied below, and is also available with a FAQ at:\nhttp://scripts.sil.org/OFL
UComments: "Cantarell was originally designed by Dave Crossland and is developed by the GNOME community+AA0ACgAA-dave@understandinglimited.com+AA0ACgAA-http://live.gnome.org/CantarellFonts" 
Version: 0.05
ItalicAngle: 0
UnderlinePosition: -113
UnderlineWidth: 56
Ascent: 739
Descent: 261
LayerCount: 2
Layer: 0 1 "Back"  1
Layer: 1 1 "Fore"  0
NeedsXUIDChange: 1
XUID: [1021 472 1916768597 5236576]
FSType: 0
OS2Version: 0
OS2_WeightWidthSlopeOnly: 0
OS2_UseTypoMetrics: 1
CreationTime: 1236980653
ModificationTime: 1300753099
PfmFamily: 33
TTFWeight: 400
TTFWidth: 5
LineGap: 0
VLineGap: 0
OS2TypoAscent: 1058
OS2TypoAOffset: 0
OS2TypoDescent: -286
OS2TypoDOffset: 0
OS2TypoLinegap: 0
OS2WinAscent: 1058
OS2WinAOffset: 0
OS2WinDescent: 286
OS2WinDOffset: 0
HheadAscent: 1058
HheadAOffset: 0
HheadDescent: -286
HheadDOffset: 0
OS2FamilyClass: 2050
OS2Vendor: 'ABAT'
MarkAttachClasses: 1
DEI: 91125
LangName: 1033 "" "" "" "" "" "" "" "" "" "Dave Crossland" "" "" "http://abattis.org" "This Font Software is licensed under the SIL Open Font License, Version 1.1.+AA0ACgAA-This license is copied below, and is also available with a FAQ at:+AA0ACgAA-http://scripts.sil.org/OFL" "http://scripts.sil.org/OFL" "" "" "" "" "" "" "Cantarell" 
Encoding: UnicodeFull
Compacted: 1
UnicodeInterp: none
NameList: Adobe Glyph List
DisplaySize: -96
AntiAlias: 1
FitToEm: 1
WinInfo: 342 9 6
BeginPrivate: 0
EndPrivate
GridOrder2: 1
Grid
-10.2539 694.336 m 25,0,-1
 798.34 694.336 l 1
-232.91 670.898 m 1,2,-1
 625.488 670.898 l 1
-231.445 481.934 m 1,4,-1
 632.812 481.934 l 1

StartChar: a
Encoding: 97 97 0
Width: 491
VWidth: 1023
Flags: HMW
HStem: 0 73 217 73<197 355> 408 73
VStem: 345 82<91 224 284 384>
LayerCount: 2
Back
SplineSet
367.678 273.926 m 1,0,-1
 367.189 213.867 l 1,1,2
 260.981377028 211.446328796 260.981377028 211.446328796 249.025 210.449 c 0,3,4
 220.323225866 208.056162909 220.323225866 208.056162909 200.631 201.684 c 0,5,6
 174.350747899 193.179439431 174.350747899 193.179439431 158.693 176.758 c 0,7,8
 137.321278169 154.341296565 137.321278169 154.341296565 140.139 126.465 c 0,9,10
 140.935361415 118.593048074 140.935361415 118.593048074 143.91884214 110.993364027 c 0
 146.902322865 103.39367998 146.902322865 103.39367998 151.658 96.5908 c 0,11,12
 153.939797763 93.3277886042 153.939797763 93.3277886042 156.615769472 90.2390430918 c 0
 159.291741182 87.1502975794 159.291741182 87.1502975794 162.230808653 84.3617240957 c 0
 165.169876124 81.5731506119 165.169876124 81.5731506119 168.289175722 79.0613774668 c 0
 171.408475321 76.5496043217 171.408475321 76.5496043217 174.807 74.2188 c 0,13,14
 206.924252846 52.1889491275 206.924252846 52.1889491275 248.083 53.2227 c 0,15,16
 286.816038219 54.1953762967 286.816038219 54.1953762967 321.291 75.6836 c 0,17,18
 349.446060752 93.233371297 349.446060752 93.233371297 368.740987267 121.511097683 c 0
 388.035913781 149.788824068 388.035913781 149.788824068 394.533 182.617 c 1,19,-1
 425.295 169.434 l 1,20,21
 421.892607906 146.359223972 421.892607906 146.359223972 413.414773107 124.359828492 c 0
 404.936938309 102.360433011 404.936938309 102.360433011 391.886560226 82.7012048415 c 0
 378.836182144 63.0419766716 378.836182144 63.0419766716 361.975 46.9639 c 0,22,23
 308.354885701 -4.16451563531 308.354885701 -4.16451563531 236.33 -9.27734 c 0,24,25
 176.085831897 -13.554610988 176.085831897 -13.554610988 126.955 17.0898 c 0,26,27
 97.6590749308 35.3629017033 97.6590749308 35.3629017033 80.2129 62.123 c 0,28,29
 61.3344084616 91.0864444341 61.3344084616 91.0864444341 60.0605 123.535 c 0,30,31
 57.851113592 179.8139902 57.851113592 179.8139902 103.029 219.727 c 0,32,33
 134.949607493 247.926702019 134.949607493 247.926702019 188.459 260.229 c 0,34,35
 224.329605907 268.475714134 224.329605907 268.475714134 283.205 271.484 c 0,36,37
 303.21477731 272.506714049 303.21477731 272.506714049 324.090327171 273.084937925 c 0
 344.965877032 273.6631618 344.965877032 273.6631618 367.678 273.926 c 1,0,-1
90.8223 461.914 m 1,38,39
 118.157462602 472.191168291 118.157462602 472.191168291 146.486 479.004 c 0,40,41
 197.545421875 491.282947262 197.545421875 491.282947262 246.322 491.46 c 0,42,43
 303.29140261 491.666779338 303.29140261 491.666779338 345.217 475.098 c 0,44,45
 393.748543724 455.914838968 393.748543724 455.914838968 416.018 416.504 c 0,46,47
 427.649074459 395.919559993 427.649074459 395.919559993 431.639 369.76 c 0,48,49
 434.233196503 352.744571371 434.233196503 352.744571371 434.084 320.312 c 2,50,-1
 432.619 0 l 1,51,-1
 377.443 0 l 1,52,-1
 353.518 56.1523 l 1,53,-1
 353.518 299.316 l 2,54,55
 353.518 342.04661361 353.518 342.04661361 349.123 357.91 c 0,56,57
 344.789444355 373.553267926 344.789444355 373.553267926 335.307 385.909 c 0,58,59
 325.977051314 398.066028495 325.977051314 398.066028495 312.014 406.738 c 0,60,61
 307.922993459 409.279183921 307.922993459 409.279183921 303.524982258 411.473870949 c 0
 299.126971058 413.668557976 299.126971058 413.668557976 294.633513835 415.423660301 c 0
 290.140056613 417.178762627 290.140056613 417.178762627 285.481599446 418.622714699 c 0
 280.823142278 420.06666677 280.823142278 420.06666677 276.038482585 421.145347801 c 0
 271.253822892 422.224028833 271.253822892 422.224028833 266.457685383 423.024308449 c 0
 261.661547874 423.824588065 261.661547874 423.824588065 256.708451335 424.333910301 c 0
 251.755354797 424.843232538 251.755354797 424.843232538 246.944302571 425.106902199 c 0
 242.133250345 425.370571859 242.133250345 425.370571859 237.146 425.415 c 0,62,63
 204.645903941 425.703296232 204.645903941 425.703296232 159.67 416.504 c 0,64,65
 133.380037468 411.126970688 133.380037468 411.126970688 105.959 403.32 c 1,66,-1
 90.8223 461.914 l 1,38,39
EndSplineSet
Fore
SplineSet
73 459 m 1,0,1
 151 489 151 489 235.5 489 c 128,-1,2
 320 489 320 489 360.5 462 c 128,-1,3
 401 435 401 435 414 401.5 c 128,-1,4
 427 368 427 368 427 313 c 2,5,-1
 427 0 l 1,6,-1
 366 0 l 1,7,-1
 348 45 l 1,8,9
 281 -12 281 -12 200 -12 c 0,10,11
 192 -12 192 -12 184 -11 c 0,12,13
 132 -8 132 -8 88.5 27 c 128,-1,14
 45 62 45 62 45 119.5 c 128,-1,15
 45 177 45 177 79 214 c 1,16,17
 113 249 113 249 163 263 c 1,18,19
 235 281 235 281 345 284 c 1,20,-1
 345 288 l 2,21,22
 345 339 345 339 336 363 c 0,23,24
 315 420 315 420 226 420 c 0,25,26
 182 420 182 420 120 406 c 0,27,28
 76 395 76 395 73 394 c 1,29,-1
 73 459 l 1,0,1
345 109 m 1,30,-1
 345 224 l 1,31,32
 247 221 247 221 217 215 c 0,33,34
 160 202 160 202 136 164 c 0,35,36
 125 146 125 146 126 129 c 0,37,38
 126 108 126 108 141 88 c 0,39,40
 152 72 152 72 177 60 c 0,41,42
 191 53 191 53 214 53 c 0,43,44
 232 53 232 53 252 57 c 0,45,46
 302 66 302 66 345 109 c 1,30,-1
EndSplineSet
EndChar

StartChar: d
Encoding: 100 100 1
Width: 576
VWidth: 1023
Flags: HMW
HStem: 0 73 408 73 651 20
VStem: 56 85<138 347> 420 83<79 415 471 671>
LayerCount: 2
Back
SplineSet
407.227 737.793 m 5,0,-1
 487.305 737.793 l 1,1,-1
 487.305 0 l 1,2,-1
 431.641 0 l 1,3,-1
 407.227 56.1523 l 1,4,-1
 407.227 737.793 l 5,0,-1
317.871 490.723 m 4,5,6
 358.540085496 486.451540608 358.540085496 486.451540608 397.949 470.215 c 0,7,8
 408.956139945 465.679782527 408.956139945 465.679782527 419.597153389 460.297339611 c 0
 430.238166834 454.914896695 430.238166834 454.914896695 440.43 448.73 c 1,9,-1
 414.062 402.832 l 1,10,11
 390.718022947 413.772121662 390.718022947 413.772121662 366.211 420.41 c 0,12,13
 314.950207069 434.294917031 314.950207069 434.294917031 270.508 426.758 c 0,14,15
 254.567086968 424.054195005 254.567086968 424.054195005 239.632902959 418.403866206 c 0
 224.698718949 412.753537407 224.698718949 412.753537407 211.623 404.235 c 0,16,17
 184.737328351 386.721104601 184.737328351 386.721104601 167.969 358.887 c 0,18,19
 158.251306243 342.756261751 158.251306243 342.756261751 152.197959572 323.174386864 c 0
 146.144612901 303.592511977 146.144612901 303.592511977 143.874373761 285.07094647 c 0
 141.604134622 266.549380962 141.604134622 266.549380962 141.602 245.605 c 0,20,21
 141.59791206 214.851424418 141.59791206 214.851424418 146.888036126 187.292862245 c 0
 152.178160191 159.734300072 152.178160191 159.734300072 164.551 136.23 c 0,22,23
 185.91663995 95.6424768604 185.91663995 95.6424768604 225.586 74.707 c 0,24,25
 267.165810154 52.7633806423 267.165810154 52.7633806423 319.336 57.1289 c 0,26,27
 393.108286704 63.3007099983 393.108286704 63.3007099983 452.148 114.746 c 1,28,-1
 470.703 69.3359 l 1,29,30
 392.619152211 -3.49336038235 392.619152211 -3.49336038235 291.016 -9.27734 c 0,31,32
 234.884073947 -12.4723633141 234.884073947 -12.4723633141 187.435 8.34277 c 0,33,34
 137.482283938 30.2569837916 137.482283938 30.2569837916 106.445 74.707 c 0,35,36
 62.9691105531 136.972103628 62.9691105531 136.972103628 63.4766 234.863 c 0,37,38
 63.7453747697 286.504894397 63.7453747697 286.504894397 76.3281 330.487 c 0,39,40
 77.6657661922 335.163351103 77.6657661922 335.163351103 79.1561859345 339.750160817 c 0
 80.6466056768 344.336970532 80.6466056768 344.336970532 82.3133129655 348.903657183 c 0
 83.9800202542 353.470343834 83.9800202542 353.470343834 85.8134505345 357.944432817 c 0
 87.6468808147 362.418521801 87.6468808147 362.418521801 89.6501105655 366.831649183 c 0
 91.6533403163 371.244776564 91.6533403163 371.244776564 93.8386263345 375.564768817 c 0
 96.0239123527 379.88476107 96.0239123527 379.88476107 98.3725097655 384.102953183 c 0
 100.721107178 388.321145295 100.721107178 388.321145295 103.267094134 392.445664817 c 0
 105.813081091 396.570184339 105.813081091 396.570184339 108.515891366 400.552065183 c 0
 111.21870164 404.533946026 111.21870164 404.533946026 114.134234734 408.421616817 c 0
 117.049767829 412.309287609 117.049767829 412.309287609 120.117 416.016 c 0,41,42
 125.537983216 422.566997999 125.537983216 422.566997999 131.55061945 428.675906158 c 0
 137.563255685 434.784814316 137.563255685 434.784814316 144.021922217 440.323218842 c 0
 150.480588749 445.861623368 150.480588749 445.861623368 157.414776857 450.885396898 c 0
 164.348964966 455.909170428 164.348964966 455.909170428 171.640774068 460.327070694 c 0
 178.932583171 464.74497096 178.932583171 464.74497096 186.581934265 468.573220972 c 0
 194.231285359 472.401470985 194.231285359 472.401470985 202.148 475.586 c 0,43,44
 255.9373999 497.223056149 255.9373999 497.223056149 317.871 490.723 c 4,5,6
EndSplineSet
Fore
SplineSet
297 59 m 0,0,1
 352 59 352 59 406 89 c 1,2,-1
 406 407 l 1,3,4
 352 430 352 430 298 430 c 0,5,6
 224 430 224 430 182.5 379.5 c 128,-1,7
 141 329 141 329 141 243 c 128,-1,8
 141 157 141 157 181 108 c 128,-1,9
 221 59 221 59 297 59 c 0,0,1
406 471 m 1,10,-1
 406 671 l 1,11,-1
 489 671 l 1,12,-1
 489 0 l 1,13,-1
 430 0 l 1,14,-1
 416 34 l 1,15,16
 350 -9 350 -9 278.5 -9 c 128,-1,17
 207 -9 207 -9 157 22 c 0,18,19
 56 85 56 85 56 236 c 0,20,21
 56 361 56 361 123 427.5 c 128,-1,22
 190 494 190 494 290 494 c 0,23,24
 351 494 351 494 406 471 c 1,10,-1
EndSplineSet
EndChar

StartChar: e
Encoding: 101 101 2
Width: 523
VWidth: 1023
Flags: HMW
HStem: 0 73 217 73 408 73
VStem: 59 75<139 218 281 352> 395 75<281 374>
LayerCount: 2
Back
SplineSet
288.574 421.875 m 4,0,1
 267.948537622 423.339283881 267.948537622 423.339283881 248.006315326 418.832770163 c 0
 228.06409303 414.326256445 228.06409303 414.326256445 211.426 403.809 c 0,2,3
 184.125052821 386.552551415 184.125052821 386.552551415 166.992 354.004 c 0,4,5
 161.620207907 343.798373597 161.620207907 343.798373597 157.522232205 332.76326115 c 0
 153.424256504 321.728148704 153.424256504 321.728148704 150.736486545 310.38755135 c 0
 148.048716585 299.046953996 148.048716585 299.046953996 146.622294705 287.48576115 c 0
 145.195872826 275.924568305 145.195872826 275.924568305 145.02 264.16 c 1,6,-1
 396.973 264.16 l 1,7,8
 397.410155589 280.050061146 397.410155589 280.050061146 396.365250681 295.319789585 c 0
 395.320345774 310.589518024 395.320345774 310.589518024 392.578 325.195 c 0,9,10
 385.809116671 361.251921922 385.809116671 361.251921922 368.164 383.301 c 0,11,12
 353.955934025 401.053965701 353.955934025 401.053965701 332.524 410.971 c 0,13,14
 325.746069987 414.107262831 325.746069987 414.107262831 318.373818918 416.383653118 c 0
 311.001567848 418.660043405 311.001567848 418.660043405 303.634847749 419.994346882 c 0
 296.26812765 421.328650358 296.26812765 421.328650358 288.574 421.875 c 4,0,1
291.992 491.699 m 4,15,16
 296.508678038 491.768101039 296.508678038 491.768101039 300.972241638 491.665725774 c 0
 305.435805239 491.563350509 305.435805239 491.563350509 309.935873596 491.285713679 c 0
 314.435941953 491.00807685 314.435941953 491.00807685 318.892956482 490.540307805 c 0
 323.349971011 490.072538761 323.349971011 490.072538761 327.789076721 489.421323054 c 0
 332.22818243 488.770107347 332.22818243 488.770107347 336.638593201 487.909405461 c 0
 341.049003972 487.048703576 341.049003972 487.048703576 345.387092346 485.996369929 c 0
 349.72518072 484.944036283 349.72518072 484.944036283 354.048933045 483.662862493 c 0
 358.372685369 482.381688703 358.372685369 482.381688703 362.574 480.9 c 0,17,18
 397.919589475 468.436235079 397.919589475 468.436235079 422.59 442.74 c 0,19,20
 457.985704988 405.872899008 457.985704988 405.872899008 468.949 342.727 c 0,21,22
 472.495355744 322.30217994 472.495355744 322.30217994 473.552177872 300.962589393 c 0
 474.609 279.622998847 474.609 279.622998847 474.609 250.977 c 2,23,-1
 474.609 203.613 l 1,24,-1
 143.066 203.613 l 1,25,26
 144.793551933 179.915298869 144.793551933 179.915298869 153.849228715 157.495890103 c 0
 162.904905496 135.076481337 162.904905496 135.076481337 178.111 116.696 c 0,27,28
 191.626889666 100.360891374 191.626889666 100.360891374 209.351615822 87.8780700218 c 0
 227.076341978 75.3952486694 227.076341978 75.3952486694 247.364 67.5928 c 0,29,30
 281.564122527 54.4405870625 281.564122527 54.4405870625 322.754 54.1992 c 0,31,32
 331.904761197 54.1450111348 331.904761197 54.1450111348 341.268900372 54.7019110934 c 0
 350.633039546 55.258811052 350.633039546 55.258811052 360.26 56.3652 c 0,33,34
 378.569804463 58.469430544 378.569804463 58.469430544 397.553 62.4531 c 0,35,36
 415.961486099 66.3169068571 415.961486099 66.3169068571 434.082 71.7773 c 1,37,-1
 448.242 17.0898 l 1,38,39
 423.274416622 8.4963026806 423.274416622 8.4963026806 397.766 2.54395 c 0,40,41
 371.692443751 -3.5402924928 371.692443751 -3.5402924928 346.049 -6.60742 c 0,42,43
 339.544814968 -7.38526589869 339.544814968 -7.38526589869 333.0557704 -7.97239780561 c 0
 326.566725832 -8.55952971253 326.566725832 -8.55952971253 320.050432725 -8.95842735064 c 0
 313.534139618 -9.35732498874 313.534139618 -9.35732498874 306.99280165 -9.56001311811 c 0
 300.451463682 -9.76270124748 300.451463682 -9.76270124748 293.945 -9.76562 c 0,44,45
 272.143889396 -9.77541113906 272.143889396 -9.77541113906 252.485893577 -7.58845145699 c 0
 232.827897759 -5.40149177491 232.827897759 -5.40149177491 212.097439756 0.189371456987 c 0
 191.366981754 5.78023468889 191.366981754 5.78023468889 173.533 14.6719 c 0,46,47
 121.086912446 40.8184989147 121.086912446 40.8184989147 92.7891 93.291 c 0,48,49
 64.2897835397 146.136793424 64.2897835397 146.136793424 63.4766 221.191 c 0,50,51
 62.4386818071 316.887969765 62.4386818071 316.887969765 102.359 384.519 c 0,52,53
 135.342582633 440.395746718 135.342582633 440.395746718 192.268 468.275 c 0,54,55
 238.4125892 490.878533648 238.4125892 490.878533648 291.992 491.699 c 4,15,16
EndSplineSet
Fore
SplineSet
471 218 m 1,0,-1
 143 218 l 1,1,2
 147 150 147 150 189 105 c 128,-1,3
 231 60 231 60 324 60 c 0,4,5
 388 60 388 60 457 82 c 1,6,-1
 457 17 l 1,7,8
 382 -9 382 -9 302 -9 c 0,9,10
 123 -9 123 -9 75 130 c 0,11,12
 59 175 59 175 59 233 c 0,13,14
 59 339 59 339 115 415 c 1,15,16
 173 490 173 490 278 490 c 0,17,18
 425 490 425 490 464 358 c 0,19,20
 476 319 476 319 476 270 c 2,21,-1
 476 226 l 1,22,-1
 471 218 l 1,0,-1
145 281 m 1,23,-1
 394 281 l 1,24,25
 394 346 394 346 365.5 385.5 c 128,-1,26
 337 425 337 425 285 425 c 0,27,28
 234 425 234 425 204 400 c 0,29,30
 154 360 154 360 145 281 c 1,23,-1
EndSplineSet
EndChar

StartChar: h
Encoding: 104 104 3
Width: 520
VWidth: 1023
Flags: HMW
HStem: 0 73 408 73
VStem: 60 83<0 400 452 670> 390 82<0 395>
LayerCount: 2
Back
SplineSet
111.328 407.715 m 5,0,1
 198.149208195 469.290146884 198.149208195 469.290146884 283.691 486.328 c 0,2,3
 298.162975608 489.209641077 298.162975608 489.209641077 312.233668904 490.4540649 c 0
 326.3043622 491.698488722 326.3043622 491.698488722 340.669049846 491.2660601 c 0
 355.033737491 490.833631479 355.033737491 490.833631479 369.271231404 488.1028149 c 0
 383.508725317 485.37199832 383.508725317 485.37199832 396.565 480.388 c 0,4,5
 453.025131351 458.832193312 453.025131351 458.832193312 477.051 403.32 c 0,6,7
 489.859144312 373.72917552 489.859144312 373.72917552 492.7 331.335 c 0,8,9
 494.056843409 311.037578814 494.056843409 311.037578814 493.652 257.324 c 2,10,-1
 491.699 0 l 1,11,-1
 411.621 0 l 1,12,-1
 411.133 290.527 l 2,13,14
 411.117860978 299.448930591 411.117860978 299.448930591 411.007344646 305.03160386 c 0
 410.896828314 310.614277129 410.896828314 310.614277129 410.330988688 318.45739614 c 0
 409.765149061 326.300515152 409.765149061 326.300515152 408.688 332.836 c 0,15,16
 404.979590909 355.326590557 404.979590909 355.326590557 394.531 372.559 c 0,17,18
 376.171012404 402.839106453 376.171012404 402.839106453 341.021 414.221 c 0,19,20
 325.294226498 419.314167411 325.294226498 419.314167411 307.044 419.94925 c 0
 288.793773502 420.584332589 288.793773502 420.584332589 272.461 417.48 c 0,21,22
 247.849186395 413.361986234 247.849186395 413.361986234 222.133814437 404.009048105 c 0
 196.418442478 394.656109977 196.418442478 394.656109977 174.750185563 383.346951895 c 0
 153.081928649 372.037793812 153.081928649 372.037793812 129.395 356.934 c 1,23,-1
 111.328 407.715 l 5,0,1
92.7734 737.793 m 5,24,-1
 172.852 737.793 l 1,25,-1
 172.852 0 l 1,26,-1
 92.7734 0 l 1,27,-1
 92.7734 737.793 l 5,24,-1
EndSplineSet
Fore
SplineSet
379 310 m 2,0,1
 379 372 379 372 354.5 399.5 c 132,-1,2
 330 427 330 427 273.5 427 c 128,-1,3
 217 427 217 427 143 391 c 1,4,-1
 143 0 l 1,5,-1
 60 0 l 1,6,-1
 60 670 l 1,7,-1
 143 670 l 1,8,-1
 143 452 l 1,9,10
 231 496 231 496 304.5 496 c 128,-1,11
 378 496 378 496 419 452 c 128,-1,12
 460 408 460 408 460 329 c 2,13,-1
 460 0 l 1,14,-1
 379 0 l 1,15,-1
 379 310 l 2,0,1
EndSplineSet
EndChar

StartChar: i
Encoding: 105 105 4
Width: 202
VWidth: 1023
Flags: HW
HStem: 0 21G<60 142> 463 20G<60 142> 586 83<60 142>
VStem: 60 82<0 483 586 669>
LayerCount: 2
Back
SplineSet
80.5664 693.848 m 5,0,-1
 175.293 693.848 l 1,1,-1
 175.293 601.562 l 1,2,-1
 80.5664 601.562 l 1,3,-1
 80.5664 693.848 l 5,0,-1
87.8906 482.422 m 5,4,-1
 167.969 482.422 l 1,5,-1
 167.969 0 l 1,6,-1
 87.8906 0 l 1,7,-1
 87.8906 482.422 l 5,4,-1
EndSplineSet
Fore
SplineSet
60 483 m 1,0,-1
 142 483 l 1,1,-1
 142 0 l 1,2,-1
 60 0 l 1,3,-1
 60 483 l 1,0,-1
60 669 m 1,4,-1
 142 669 l 1,5,-1
 142 586 l 1,6,-1
 60 586 l 1,7,-1
 60 669 l 1,4,-1
EndSplineSet
EndChar

StartChar: n
Encoding: 110 110 5
Width: 548
VWidth: 1023
Flags: HMW
HStem: 0 73 408 73
VStem: 66 82<0 397> 404 81<0 392>
LayerCount: 2
Back
SplineSet
106.445 407.715 m 5,0,1
 193.266353342 469.290249825 193.266353342 469.290249825 278.809 486.328 c 0,2,3
 298.30905565 490.210929573 298.30905565 490.210929573 316.812035557 491.18946882 c 0
 335.315015464 492.168008068 335.315015464 492.168008068 354.863297776 489.57453118 c 0
 374.411580088 486.981054291 374.411580088 486.981054291 391.683 480.388 c 0,4,5
 448.141933403 458.832650675 448.141933403 458.832650675 472.168 403.32 c 0,6,7
 484.975665776 373.736316727 484.975665776 373.736316727 487.817 331.335 c 0,8,9
 489.172785472 311.053404807 489.172785472 311.053404807 488.77 257.324 c 2,10,-1
 486.816 0 l 1,11,-1
 406.738 0 l 1,12,-1
 406.25 290.527 l 2,13,14
 406.239286354 297.115426781 406.239286354 297.115426781 406.174837125 301.395977106 c 0
 406.110387897 305.676527431 406.110387897 305.676527431 405.888241 311.498757269 c 0
 405.666094102 317.320987107 405.666094102 317.320987107 405.147243375 322.580570856 c 0
 404.628392649 327.840154604 404.628392649 327.840154604 403.805 332.836 c 0,15,16
 402.021164001 343.654527319 402.021164001 343.654527319 398.507451816 353.698514983 c 0
 394.993739631 363.742502646 394.993739631 363.742502646 389.648 372.559 c 0,17,18
 371.288158813 402.838864989 371.288158813 402.838864989 336.139 414.221 c 0,19,20
 306.144717145 423.934305323 306.144717145 423.934305323 267.578 417.48 c 0,21,22
 242.966186395 413.361986234 242.966186395 413.361986234 217.250814437 404.009048105 c 0
 191.535442478 394.656109977 191.535442478 394.656109977 169.867185563 383.346951895 c 0
 148.198928649 372.037793812 148.198928649 372.037793812 124.512 356.934 c 1,23,-1
 106.445 407.715 l 5,0,1
87.8906 482.422 m 5,24,-1
 144.043 482.422 l 1,25,-1
 167.969 426.27 l 1,26,-1
 167.969 0 l 1,27,-1
 87.8906 0 l 1,28,-1
 87.8906 482.422 l 5,24,-1
EndSplineSet
Fore
SplineSet
383 396 m 128,-1,1
 359 423 359 423 288 423 c 128,-1,2
 217 423 217 423 142 388 c 1,3,-1
 142 0 l 1,4,-1
 60 0 l 1,5,-1
 60 480 l 1,6,-1
 117 480 l 1,7,-1
 133 444 l 1,8,9
 224 492 224 492 316 492 c 0,10,11
 488 492 488 492 488 327 c 2,12,-1
 488 0 l 1,13,-1
 407 0 l 1,14,-1
 407 307 l 2,15,0
 407 369 407 369 383 396 c 128,-1,1
EndSplineSet
EndChar

StartChar: o
Encoding: 111 111 6
Width: 569
VWidth: 1023
Flags: HW
HStem: -10 65<201.366 356.188> 426 64<201.263 354.656>
VStem: 46 83<136.024 343.789> 427 83<134.537 345.226>
LayerCount: 2
Back
SplineSet
291.504 423.34 m 4,0,1
 272.918491729 423.34 272.918491729 423.34 254.783830654 418.357763525 c 0
 236.649169579 413.37552705 236.649169579 413.37552705 219.886461012 403.847153142 c 0
 203.123752445 394.318779233 203.123752445 394.318779233 188.888599173 379.381189451 c 0
 174.653445901 364.443599669 174.653445901 364.443599669 164.096090642 345.65130129 c 0
 153.538735383 326.85900291 153.538735383 326.85900291 147.570367691 302.15594871 c 0
 141.602 277.452894511 141.602 277.452894511 141.602 249.512 c 0,2,3
 141.602 150.486293102 141.602 150.486293102 203.250828887 95.2281322192 c 0
 244.83544079 59.0039030069 244.83544079 59.0039030069 299.316 58.5938 c 0,4,5
 363.528270453 58.5938 363.528270453 58.5938 406.617635227 107.505954139 c 0
 449.707 156.418108279 449.707 156.418108279 449.707 234.863 c 0,6,7
 449.707 322.487456362 449.707 322.487456362 401.909202335 372.913728181 c 0
 354.111404669 423.34 354.111404669 423.34 291.504 423.34 c 4,0,1
298.34 491.699 m 4,8,9
 363.380006448 491.699 363.380006448 491.699 414.779001612 464.41168521 c 0
 466.177996776 437.124370421 466.177996776 437.124370421 497.004998388 381.779648123 c 0
 527.832 326.434925826 527.832 326.434925826 527.832 250.977 c 0,10,11
 527.832 211.118880197 527.832 211.118880197 519.79767812 175.598880983 c 0
 511.76335624 140.078881768 511.76335624 140.078881768 496.925988546 111.490558184 c 0
 482.088620852 82.9022345996 482.088620852 82.9022345996 460.797104046 60.0523530197 c 0
 439.50558724 37.2024714398 439.50558724 37.2024714398 413.267136695 21.8637041099 c 0
 387.028686149 6.5249367801 387.028686149 6.5249367801 355.897863305 -1.62034160995 c 0
 324.767040461 -9.76562 324.767040461 -9.76562 290.527 -9.76562 c 0,12,13
 171.627812556 -9.76562 171.627812556 -9.76562 108.841303839 78.221510866 c 0
 63.7833815725 142.579858927 63.7833815725 142.579858927 63.4766 235.84 c 0,14,15
 63.4766 352.760235639 63.4766 352.760235639 128.257388749 422.22961782 c 0
 193.038177499 491.699 193.038177499 491.699 298.34 491.699 c 4,8,9
EndSplineSet
Fore
SplineSet
427 240 m 128,-1,1
 427 325 427 325 386.5 375.5 c 128,-1,2
 346 426 346 426 278 426 c 128,-1,3
 210 426 210 426 169.5 374.5 c 128,-1,4
 129 323 129 323 129 240 c 128,-1,5
 129 157 129 157 169.5 106 c 128,-1,6
 210 55 210 55 278.5 55 c 128,-1,7
 347 55 347 55 387 105 c 128,-1,0
 427 155 427 155 427 240 c 128,-1,1
107.5 56 m 128,-1,9
 46 122 46 122 46 239.5 c 128,-1,10
 46 357 46 357 108.5 423.5 c 128,-1,11
 171 490 171 490 279.5 490 c 128,-1,12
 388 490 388 490 449 424.5 c 128,-1,13
 510 359 510 359 510 241.5 c 128,-1,14
 510 124 510 124 447.5 57 c 128,-1,15
 385 -10 385 -10 277 -10 c 128,-1,8
 169 -10 169 -10 107.5 56 c 128,-1,9
EndSplineSet
EndChar

StartChar: s
Encoding: 115 115 7
Width: 497
VWidth: 1023
Flags: HMW
HStem: -10 68<112.539 330.762> 408 67<295.706 414.2>
VStem: 80 85 360 85
LayerCount: 2
Back
SplineSet
288.086 491.699 m 4,0,1
 298.311537355 491.699 298.311537355 491.699 307.337347496 491.444420693 c 0
 316.363157637 491.189841387 316.363157637 491.189841387 325.035282134 490.338085479 c 0
 333.707406631 489.486329572 333.707406631 489.486329572 339.663125274 488.991701901 c 0
 345.618843916 488.497074229 345.618843916 488.497074229 353.772319171 486.852560102 c 0
 361.925794426 485.208045975 361.925794426 485.208045975 365.574977125 484.609995453 c 0
 369.224159825 484.011944932 369.224159825 484.011944932 377.622541393 481.711298099 c 0
 386.020922961 479.410651267 386.020922961 479.410651267 388.127125274 478.845803409 c 0
 390.233327586 478.280955552 390.233327586 478.280955552 399.640171023 475.460801529 c 0
 409.047014459 472.640647506 409.047014459 472.640647506 410.645 472.168 c 1,2,-1
 390.137 411.133 l 1,3,4
 324.896725338 429.199 324.896725338 429.199 274.902 429.199 c 0,5,6
 250.632099027 429.199 250.632099027 429.199 231.105106199 425.246594942 c 0
 211.578113371 421.294189884 211.578113371 421.294189884 199.395977134 414.515530058 c 0
 187.213840898 407.736870231 187.213840898 407.736870231 178.578809903 399.991807905 c 0
 169.943778908 392.246745579 169.943778908 392.246745579 165.77690306 383.319937465 c 0
 161.610027213 374.393129352 161.610027213 374.393129352 159.906513606 367.575354201 c 0
 158.203 360.757579051 158.203 360.757579051 158.203 354.492 c 0,7,8
 158.203 331.04467 158.203 331.04467 186.970591 313.846958 c 0
 215.738182 296.649246 215.738182 296.649246 256.794841 283.726738 c 0
 297.8515 270.80423 297.8515 270.80423 338.908159 255.003342 c 0
 379.964818 239.202454 379.964818 239.202454 408.732409 209.531762 c 0
 437.5 179.86107 437.5 179.86107 437.5 138.184 c 0,9,10
 437.5 56.2897569454 437.5 56.2897569454 362.100301053 17.1288175291 c 0
 309.412196482 -9.54935419923 309.412196482 -9.54935419923 227.539 -9.76562 c 0,11,12
 195.779143694 -9.76562 195.779143694 -9.76562 153.763404403 -1.34394710802 c 0
 111.747665111 7.07772578396 111.747665111 7.07772578396 63.4766 26.8555 c 1,13,-1
 85.9375 87.4023 l 1,14,15
 178.01400554 53.2227 178.01400554 53.2227 230.957 53.2227 c 0,16,17
 255.122901882 53.2227 255.122901882 53.2227 274.481915939 56.3657106656 c 0
 293.840929996 59.5087213312 293.840929996 59.5087213312 311.920787186 67.2686674594 c 0
 330.000644377 75.0286135876 330.000644377 75.0286135876 340.049322189 90.6826044156 c 0
 350.098 106.336595244 350.098 106.336595244 350.098 128.906 c 0,18,19
 350.098 150.246566667 350.098 150.246566667 329.734837037 165.897947407 c 0
 309.371674074 181.549328148 309.371674074 181.549328148 278.82692963 190.261885926 c 0
 248.282185185 198.974443704 248.282185185 198.974443704 212.64665 211.62454 c 0
 177.011114815 224.274636296 177.011114815 224.274636296 146.46637037 238.457034074 c 0
 115.921625926 252.639431852 115.921625926 252.639431852 95.558462963 280.463132593 c 0
 75.1953 308.286833333 75.1953 308.286833333 75.1953 346.191 c 0,20,21
 75.1953 368.999415121 75.1953 368.999415121 85.368956601 392.20615252 c 0
 95.542613202 415.412889919 95.542613202 415.412889919 117.870524649 438.85609748 c 0
 140.198436096 462.29930504 140.198436096 462.29930504 184.352781601 476.99915252 c 0
 228.507127106 491.699 228.507127106 491.699 288.086 491.699 c 4,0,1
EndSplineSet
Fore
SplineSet
249 58 m 0,0,1
 293 58 293 58 324 74.5 c 128,-1,2
 355 91 355 91 355 122.5 c 128,-1,3
 355 154 355 154 325 174.5 c 128,-1,4
 295 195 295 195 262 205 c 2,5,-1
 190 227 l 1,6,7
 144 245 144 245 132.5 254.5 c 128,-1,8
 121 264 121 264 113 271 c 0,9,10
 90 292 90 292 84 332 c 0,11,12
 83 341 83 341 83 350 c 0,13,14
 83 380 83 380 98 409 c 0,15,16
 117 446 117 446 174 469 c 1,17,18
 222 487 222 487 279 487 c 0,19,20
 341 487 341 487 414 466 c 1,21,-1
 414 399 l 1,22,23
 340 419 340 419 294 419 c 128,-1,24
 248 419 248 419 224.5 414 c 128,-1,25
 201 409 201 409 183.5 393 c 128,-1,26
 166 377 166 377 166 359 c 128,-1,27
 166 341 166 341 173 332 c 0,28,29
 189 310 189 310 239 291 c 2,30,-1
 282 275 l 2,31,32
 388 237 388 237 408 214 c 0,33,34
 438 182 438 182 441 136 c 0,35,36
 441 132 441 132 441 127 c 0,37,38
 441 86 441 86 416 54 c 0,39,40
 366 -10 366 -10 255 -10 c 128,-1,41
 144 -10 144 -10 79 18 c 1,42,-1
 79 91 l 1,43,44
 164 58 164 58 249 58 c 0,0,1
EndSplineSet
EndChar

StartChar: bar
Encoding: 124 124 8
Width: 431
VWidth: 1023
Flags: HW
VStem: 176 80<-150 782>
LayerCount: 2
Fore
SplineSet
256 782 m 5,0,-1
 256 -150 l 1,1,-1
176 782 m 1,2,-1
 256 782 l 1,3,-1
 256 -150 l 1,4,-1
 176 -150 l 1,5,-1
 176 782 l 1,2,-1
EndSplineSet
EndChar

StartChar: b
Encoding: 98 98 9
Width: 553
VWidth: 1023
Flags: HMW
HStem: 0 73<176.849 341.916> 408 73<151.423 339.129> 651 20
VStem: 65 85<77.1611 89 407 415.828> 413 85<137.983 349.728>
LayerCount: 2
Back
SplineSet
92.7734 737.793 m 1,0,-1
 172.852 737.793 l 1,1,-1
 172.852 56.1523 l 1,2,-1
 148.438 0 l 1,3,-1
 92.7734 0 l 1,4,-1
 92.7734 737.793 l 1,0,-1
287.109 491.699 m 0,5,6
 343.386531782 495.061754646 343.386531782 495.061754646 390.795 474.289 c 0,7,8
 396.857651003 471.63266069 396.857651003 471.63266069 402.747193092 468.545217294 c 0
 408.636735181 465.457773899 408.636735181 465.457773899 414.272010033 461.989540518 c 0
 419.907284884 458.521307137 419.907284884 458.521307137 425.318943092 454.656232919 c 0
 430.730601301 450.791158702 430.730601301 450.791158702 435.840447533 446.588603018 c 0
 440.950293765 442.386047334 440.950293765 442.386047334 445.785818092 437.820311044 c 0
 450.62134242 433.254574755 450.62134242 433.254574755 455.107510033 428.394665518 c 0
 459.593677645 423.534756282 459.593677645 423.534756282 463.754818092 418.345326669 c 0
 467.915958539 413.155897057 467.915958539 413.155897057 471.68 407.715 c 0,9,10
 510.05420403 352.248249221 510.05420403 352.248249221 514.16 266.602 c 0,11,12
 514.835498452 253.484280257 514.835498452 253.484280257 514.5761875 240.010390625 c 0
 514.316876548 226.536500993 514.316876548 226.536500993 513.19125 213.452625 c 0
 512.065623452 200.368749007 512.065623452 200.368749007 509.8664375 187.088546875 c 0
 507.667251548 173.808344743 507.667251548 173.808344743 504.463 161.078 c 0,13,14
 490.472159456 105.523518807 490.472159456 105.523518807 458.008 66.4062 c 0,15,16
 441.731082799 46.7938807613 441.731082799 46.7938807613 420.787903902 31.6231841313 c 0
 399.844725006 16.4524875012 399.844725006 16.4524875012 375.977 6.83594 c 0,17,18
 322.227424293 -14.8196305819 322.227424293 -14.8196305819 260.254 -8.30078 c 0,19,20
 219.572521069 -4.0210872328 219.572521069 -4.0210872328 180.176 12.207 c 0,21,22
 158.1312436 21.2875724294 158.1312436 21.2875724294 137.695 33.6914 c 1,23,-1
 164.062 79.5898 l 1,24,25
 169.85148303 76.8812415871 169.85148303 76.8812415871 175.735446124 74.4268681474 c 0
 181.619409218 71.9724947076 181.619409218 71.9724947076 187.605507001 69.7699068526 c 0
 193.591604783 67.5673189977 193.591604783 67.5673189977 199.681227374 65.6232681474 c 0
 205.770849966 63.6792172971 205.770849966 63.6792172971 211.914 62.0117 c 0,26,27
 263.269398825 48.0715281678 263.269398825 48.0715281678 307.617 55.6641 c 0,28,29
 340.37739738 61.2723343582 340.37739738 61.2723343582 366.436 78.2764 c 0,30,31
 393.298022876 95.8055607451 393.298022876 95.8055607451 410.156 123.535 c 0,32,33
 429.044377393 154.606019391 429.044377393 154.606019391 434.242 197.594 c 0,34,35
 438.743193053 234.807301878 438.743193053 234.807301878 433.594 275.879 c 0,36,37
 428.402022226 317.292136793 428.402022226 317.292136793 413.574 346.191 c 0,38,39
 392.762967247 386.752561486 392.762967247 386.752561486 352.539 407.715 c 0,40,41
 310.848197454 429.444831237 310.848197454 429.444831237 258.789 425.293 c 0,42,43
 184.558899972 419.376679594 184.558899972 419.376679594 125.977 367.676 c 1,44,-1
 107.422 413.086 l 1,45,46
 131.98094358 435.821448546 131.98094358 435.821448546 160.827528406 452.683752187 c 0
 189.674113231 469.546055829 189.674113231 469.546055829 221.954138261 479.640581146 c 0
 254.234163291 489.735106464 254.234163291 489.735106464 287.109 491.699 c 0,5,6
EndSplineSet
Fore
SplineSet
257 59 m 0,0,1
 333 59 333 59 373 108 c 128,-1,2
 413 157 413 157 413 243 c 128,-1,3
 413 329 413 329 371.5 379.5 c 128,-1,4
 330 430 330 430 256 430 c 0,5,6
 202 430 202 430 148 407 c 1,7,-1
 148 89 l 1,8,9
 202 59 202 59 257 59 c 0,0,1
148 471 m 1,10,11
 203 494 203 494 264 494 c 0,12,13
 364 494 364 494 431 427.5 c 128,-1,14
 498 361 498 361 498 236 c 0,15,16
 498 85 498 85 397 22 c 0,17,18
 347 -9 347 -9 275.5 -9 c 128,-1,19
 204 -9 204 -9 138 34 c 1,20,-1
 124 0 l 1,21,-1
 65 0 l 1,22,-1
 65 671 l 1,23,-1
 148 671 l 1,24,-1
 148 471 l 1,10,11
EndSplineSet
EndChar

StartChar: l
Encoding: 108 108 10
Width: 263
VWidth: 1023
Flags: HMW
HStem: 0 21G<98 178> 651 20G<98 178>
VStem: 60 80<0 671>
LayerCount: 2
Fore
SplineSet
162 70 m 0,0,1
 176 65 176 65 198 65 c 132,-1,2
 220 65 220 65 256 76 c 1,3,-1
 256 14 l 1,4,5
 253 13 253 13 240 8 c 128,-1,6
 227 3 227 3 218 0 c 0,7,8
 190 -10 190 -10 151 -10 c 128,-1,9
 112 -10 112 -10 83.5 21.5 c 128,-1,10
 55 53 55 53 55 105 c 2,11,-1
 55 671 l 1,12,-1
 135 671 l 1,13,-1
 135 134 l 2,14,15
 134 80 134 80 162 70 c 0,0,1
EndSplineSet
EndChar

StartChar: w
Encoding: 119 119 11
Width: 817
VWidth: 1023
Flags: HW
HStem: 0 21G<195.697 285.598 527.555 622.303> 462 20G<27 118.485 365.614 457.139 699.515 791>
LayerCount: 2
Fore
SplineSet
27 482 m 1,0,-1
 112 482 l 1,1,-1
 243 78 l 1,2,-1
 372 482 l 1,3,-1
 451 482 l 1,4,-1
 575 78 l 1,5,-1
 706 482 l 1,6,-1
 791 482 l 1,7,-1
 615 0 l 1,8,-1
 534 0 l 1,9,-1
 408 391 l 1,10,-1
 279 0 l 1,11,-1
 203 0 l 1,12,-1
 27 482 l 1,0,-1
EndSplineSet
EndChar

StartChar: exclam
Encoding: 33 33 12
Width: 317
VWidth: 1023
Flags: HW
HStem: 0 98<110 208> 674 20G<117 200>
VStem: 110 98<0 98> 117 83<224 694>
LayerCount: 2
Fore
SplineSet
117 694 m 1,0,-1
 200 694 l 1,1,-1
 200 224 l 1,2,-1
 117 224 l 1,3,-1
 117 694 l 1,0,-1
110 98 m 1,4,-1
 208 98 l 1,5,-1
 208 0 l 1,6,-1
 110 0 l 1,7,-1
 110 98 l 1,4,-1
EndSplineSet
EndChar

StartChar: u
Encoding: 117 117 14
Width: 521
VWidth: 1023
Flags: HMW
HStem: 0 73 408 73
VStem: 66 81<88 480> 391 82<83 480>
LayerCount: 2
Back
SplineSet
89.8438 482.422 m 5,0,-1
 169.922 482.422 l 1,1,-1
 170.41 191.406 l 2,2,3
 170.457105769 163.646962603 170.457105769 163.646962603 172.855 149.098 c 0,4,5
 176.563409091 126.607409443 176.563409091 126.607409443 187.012 109.375 c 0,6,7
 195.904161889 94.70898374 195.904161889 94.70898374 209.882362527 83.9085408565 c 0
 223.860563164 73.1080979729 223.860563164 73.1080979729 240.521 67.7129 c 0,8,9
 270.514632755 57.9995322498 270.514632755 57.9995322498 309.082 64.4531 c 0,10,11
 374.314054485 75.3685234903 374.314054485 75.3685234903 452.148 125 c 1,12,-1
 470.215 74.2188 l 1,13,14
 382.861330063 12.8189466339 382.861330063 12.8189466339 297.852 -4.39453 c 0,15,16
 271.008966696 -10.461957572 271.008966696 -10.461957572 240.748125 -9.32800125 c 0
 210.487283304 -8.19404492803 210.487283304 -8.19404492803 184.977 1.54492 c 0,17,18
 128.515822532 23.1020153732 128.515822532 23.1020153732 104.492 78.6133 c 0,19,20
 91.6811914596 108.21542204 91.6811914596 108.21542204 88.8438 150.599 c 0,21,22
 87.4828129227 170.939870898 87.4828129227 170.939870898 87.8906 224.609 c 2,23,-1
 89.8438 482.422 l 5,0,-1
408.691 482.422 m 5,24,-1
 488.77 482.422 l 1,25,-1
 488.77 0 l 1,26,-1
 432.617 0 l 1,27,-1
 408.691 56.1523 l 1,28,-1
 408.691 482.422 l 5,24,-1
EndSplineSet
Fore
SplineSet
165 84 m 0,0,1
 188 57 188 57 244 57 c 128,-1,2
 300 57 300 57 375 92 c 1,3,-1
 375 480 l 1,4,-1
 457 480 l 1,5,-1
 457 0 l 1,6,-1
 400 0 l 1,7,-1
 384 36 l 1,8,9
 292 -12 292 -12 217 -12 c 0,10,11
 140 -12 140 -12 100 32 c 128,-1,12
 60 76 60 76 60 153 c 2,13,-1
 60 480 l 1,14,-1
 141 480 l 1,15,-1
 141 173 l 2,16,17
 141 111 141 111 165 84 c 0,0,1
EndSplineSet
EndChar

StartChar: p
Encoding: 112 112 15
Width: 568
VWidth: 1023
Flags: HMW
HStem: -261 73 -13 64<176 361> 423 68<200 363>
VStem: 87 83<-261 11 66 404> 436 85<134 344>
LayerCount: 2
Back
SplineSet
87.8906 482.422 m 5,0,-1
 143.555 482.422 l 1,1,-1
 167.969 426.27 l 1,2,-1
 167.969 -259.277 l 1,3,-1
 87.8906 -259.277 l 1,4,-1
 87.8906 482.422 l 5,0,-1
284.18 491.211 m 4,5,6
 311.258805238 492.824531754 311.258805238 492.824531754 337.650656662 488.525296322 c 0
 364.042508086 484.22606089 364.042508086 484.22606089 387.859 473.791 c 0,7,8
 437.834342027 451.893529837 437.834342027 451.893529837 468.75 407.227 c 0,9,10
 479.103299779 392.269268895 479.103299779 392.269268895 486.956369342 375.076859254 c 0
 494.809438905 357.884449613 494.809438905 357.884449613 499.779349408 339.794109496 c 0
 504.74925991 321.70376938 504.74925991 321.70376938 507.533181842 303.551796754 c 0
 510.317103774 285.399824128 510.317103774 285.399824128 511.23 266.113 c 0,11,12
 513.892063452 209.969684478 513.892063452 209.969684478 501.479 160.839 c 0,13,14
 487.475926015 105.439045705 487.475926015 105.439045705 455.078 66.4062 c 0,15,16
 422.008967144 26.5641342485 422.008967144 26.5641342485 373.047 6.83594 c 0,17,18
 319.298287921 -14.8213074188 319.298287921 -14.8213074188 257.324 -8.30078 c 0,19,20
 216.644590766 -4.02130496505 216.644590766 -4.02130496505 177.246 12.207 c 0,21,22
 155.201185333 21.2882147467 155.201185333 21.2882147467 134.766 33.6914 c 1,23,-1
 161.133 79.5898 l 1,24,25
 172.738716026 74.1598160951 172.738716026 74.1598160951 184.728918812 69.75036796 c 0
 196.719121598 65.3409198249 196.719121598 65.3409198249 208.984 62.0117 c 0,26,27
 260.336946343 48.0721938819 260.336946343 48.0721938819 304.688 55.6641 c 0,28,29
 337.446413808 61.2706925459 337.446413808 61.2706925459 363.506 78.2754 c 0,30,31
 390.369374406 95.804604786 390.369374406 95.804604786 407.227 123.535 c 0,32,33
 412.207500305 131.728702584 412.207500305 131.728702584 416.233924566 140.763100972 c 0
 420.260348828 149.797499361 420.260348828 149.797499361 423.168778559 159.158320903 c 0
 426.077208289 168.519142445 426.077208289 168.519142445 428.069955816 177.965319722 c 0
 430.062703344 187.411496999 430.062703344 187.411496999 431.272 197.352 c 0,34,35
 433.56975302 217.282555798 433.56975302 217.282555798 433.363125 236.374875 c 0
 433.15649698 255.467194202 433.15649698 255.467194202 430.664 275.391 c 0,36,37
 429.06308753 288.185665136 429.06308753 288.185665136 426.62235392 299.637008581 c 0
 424.18162031 311.088352026 424.18162031 311.088352026 420.11464608 323.131658085 c 0
 416.047671851 335.174964144 416.047671851 335.174964144 410.645 345.703 c 0,38,39
 400.577657253 365.318773527 400.577657253 365.318773527 384.844452427 381.190212732 c 0
 369.111247601 397.061651936 369.111247601 397.061651936 349.609 407.227 c 0,40,41
 335.583826867 414.53711702 335.583826867 414.53711702 319.769750091 418.940287314 c 0
 303.955673315 423.343457608 303.955673315 423.343457608 288.062916576 424.724379353 c 0
 272.170159836 426.105301099 272.170159836 426.105301099 255.859 424.805 c 0,42,43
 219.579925492 421.911126552 219.579925492 421.911126552 185.284263516 406.877879195 c 0
 150.988601539 391.844631838 150.988601539 391.844631838 123.047 367.188 c 1,44,-1
 104.492 412.598 l 1,45,46
 182.85488803 485.170353203 182.85488803 485.170353203 284.18 491.211 c 4,5,6
EndSplineSet
Fore
SplineSet
279 423 m 0,0,1
 224 423 224 423 170 393 c 1,2,-1
 170 75 l 1,3,4
 224 52 224 52 278 52 c 0,5,6
 352 52 352 52 394 103 c 128,-1,7
 436 154 436 154 436 239 c 128,-1,8
 436 324 436 324 395.5 373.5 c 128,-1,9
 355 423 355 423 279 423 c 0,0,1
170 11 m 1,10,-1
 170 -261 l 1,11,-1
 87 -261 l 1,12,-1
 87 481 l 1,13,-1
 146 481 l 1,14,-1
 161 448 l 1,15,16
 227 491 227 491 297 491 c 128,-1,17
 367 491 367 491 419 459 c 0,18,19
 521 394 521 394 521 246 c 0,20,21
 521 121 521 121 452 54 c 128,-1,22
 383 -13 383 -13 286 -13 c 0,23,24
 227 -13 227 -13 170 11 c 1,10,-1
EndSplineSet
EndChar

StartChar: q
Encoding: 113 113 16
Width: 564
VWidth: 1023
Flags: HMW
HStem: -13 65<208.871 394.861> 423 68<206.084 370.361>
VStem: 49 85<134.785 342.818> 400 83<-261 11 66.7342 403.769>
LayerCount: 2
Back
SplineSet
317.383 489.746 m 4,0,1
 337.014469886 486.770956551 337.014469886 486.770956551 356.796878787 480.289758497 c 0
 376.579287688 473.808560442 376.579287688 473.808560442 397.461 464.355 c 0,2,3
 408.169540087 459.508015569 408.169540087 459.508015569 418.787410731 454.130751407 c 0
 429.405281376 448.753487244 429.405281376 448.753487244 439.941 442.871 c 1,4,-1
 413.574 396.973 l 1,5,6
 389.49175798 407.326560097 389.49175798 407.326560097 365.723 414.551 c 0,7,8
 340.077447585 422.34561812 340.077447585 422.34561812 316.310531335 425.541884123 c 0
 292.543615085 428.738150125 292.543615085 428.738150125 270.02 425.781 c 0,9,10
 237.190390686 421.473253857 237.190390686 421.473253857 210.762 403.93 c 0,11,12
 197.645756901 395.223643314 197.645756901 395.223643314 186.679811871 383.500644226 c 0
 175.71386684 371.777645138 175.71386684 371.777645138 167.48 357.91 c 0,13,14
 160.80454807 346.666261144 160.80454807 346.666261144 155.788592897 333.84611212 c 0
 150.772637725 321.025963095 150.772637725 321.025963095 147.709740436 308.314221214 c 0
 144.646843147 295.602479333 144.646843147 295.602479333 142.943 281.881 c 0,15,16
 141.301892837 268.665245948 141.301892837 268.665245948 140.897950872 255.158672996 c 0
 140.494008906 241.652100045 140.494008906 241.652100045 141.289382462 228.330327004 c 0
 142.084756017 215.008553963 142.084756017 215.008553963 144.043 201.66 c 0,17,18
 149.571920625 163.956918419 149.571920625 163.956918419 164.062 136.23 c 0,19,20
 185.279514463 95.6324381125 185.279514463 95.6324381125 225.098 74.707 c 0,21,22
 266.71340383 52.837649378 266.71340383 52.837649378 318.848 57.1289 c 0,23,24
 392.777564541 63.2144602859 392.777564541 63.2144602859 451.66 114.746 c 1,25,-1
 470.215 69.3359 l 1,26,27
 391.694306462 -3.09914324848 391.694306462 -3.09914324848 290.527 -9.27734 c 0,28,29
 263.427421813 -10.9325165583 263.427421813 -10.9325165583 237.021683218 -6.66269430275 c 0
 210.615944624 -2.39287204718 210.615944624 -2.39287204718 186.797 8.03906 c 0,30,31
 136.840292429 29.9213062974 136.840292429 29.9213062974 105.957 74.707 c 0,32,33
 68.9887226702 128.319794437 68.9887226702 128.319794437 63.4766 210.938 c 0,34,35
 59.6187929924 268.753842833 59.6187929924 268.753842833 71.8457 318.716 c 0,36,37
 85.6579789973 375.162286199 85.6579789973 375.162286199 119.629 415.039 c 0,38,39
 152.69394259 453.855277636 152.69394259 453.855277636 201.66 474.609 c 0,40,41
 258.436271568 498.676130577 258.436271568 498.676130577 317.383 489.746 c 4,0,1
430.176 482.422 m 5,42,-1
 486.328 482.422 l 1,43,-1
 486.328 -259.277 l 1,44,-1
 406.25 -259.277 l 1,45,-1
 406.25 416.504 l 1,46,-1
 430.176 482.422 l 5,42,-1
EndSplineSet
Fore
SplineSet
400 393 m 1,0,1
 346 423 346 423 291 423 c 0,2,3
 215 423 215 423 174.5 373.5 c 128,-1,4
 134 324 134 324 134 239 c 128,-1,5
 134 154 134 154 176 103 c 128,-1,6
 218 52 218 52 292 52 c 0,7,8
 346 52 346 52 400 75 c 1,9,-1
 400 393 l 1,0,1
400 11 m 1,10,11
 343 -13 343 -13 284 -13 c 0,12,13
 187 -13 187 -13 118 54 c 128,-1,14
 49 121 49 121 49 246 c 0,15,16
 49 394 49 394 151 459 c 0,17,18
 203 491 203 491 273 491 c 128,-1,19
 343 491 343 491 409 448 c 1,20,-1
 424 481 l 1,21,-1
 483 481 l 1,22,-1
 483 -261 l 1,23,-1
 400 -261 l 1,24,-1
 400 11 l 1,10,11
EndSplineSet
EndChar

StartChar: m
Encoding: 109 109 17
Width: 783
VWidth: 1023
Flags: HMW
HStem: 0 73 408 73
VStem: 60 82<0 400> 349 81<0 382> 642 81<0 390>
LayerCount: 2
Back
SplineSet
590.82 491.211 m 4,0,1
 641.861225108 492.902302981 641.861225108 492.902302981 680.82 471.333 c 0,2,3
 722.72820316 448.135026157 722.72820316 448.135026157 742.188 403.32 c 0,4,5
 755.035394931 373.7326939 755.035394931 373.7326939 757.852 331.339 c 0,6,7
 759.194872248 311.176264498 759.194872248 311.176264498 758.789 257.324 c 2,8,-1
 756.836 0 l 1,9,-1
 676.758 0 l 1,10,-1
 676.27 290.527 l 2,11,12
 676.220879421 318.319423829 676.220879421 318.319423829 673.828 332.839 c 0,13,14
 670.123335138 355.367236521 670.123335138 355.367236521 659.668 372.559 c 0,15,16
 653.273676673 383.067872652 653.273676673 383.067872652 644.246192998 391.618678178 c 0
 635.218709323 400.169483703 635.218709323 400.169483703 624.385 405.969 c 0,17,18
 619.030672117 408.834915762 619.030672117 408.834915762 613.232367223 411.037934845 c 0
 607.434062328 413.240953929 607.434062328 413.240953929 601.470664027 414.706627655 c 0
 595.507265727 416.172301381 595.507265727 416.172301381 589.430679723 416.985059845 c 0
 583.354093719 417.79781831 583.354093719 417.79781831 577.148 417.969 c 0,19,20
 538.927394103 419.023982339 538.927394103 419.023982339 485.352 394.531 c 0,21,22
 453.145700376 379.808647194 453.145700376 379.808647194 414.062 356.934 c 1,23,-1
 381.348 407.715 l 1,24,25
 411.4475127 429.270232952 411.4475127 429.270232952 443.359 446.289 c 0,26,27
 523.409410941 488.980335103 523.409410941 488.980335103 590.82 491.211 c 4,0,1
301.27 491.211 m 4,28,29
 350.545307325 493.846060505 350.545307325 493.846060505 389.068 471.247 c 0,30,31
 428.897448176 447.882230428 428.897448176 447.882230428 447.754 403.32 c 0,32,33
 460.350414815 373.548800103 460.350414815 373.548800103 463.287 331.309 c 0,34,35
 464.757524441 310.144627472 464.757524441 310.144627472 464.355 257.324 c 2,36,-1
 462.402 0 l 1,37,-1
 382.324 0 l 1,38,-1
 381.836 290.527 l 2,39,40
 381.820960525 299.388384102 381.820960525 299.388384102 381.706188189 305.015183847 c 0
 381.591415853 310.641983592 381.591415853 310.641983592 381.018811811 318.466482819 c 0
 380.446207769 326.290982047 380.446207769 326.290982047 379.361 332.828 c 0,41,42
 375.633381211 355.298421128 375.633381211 355.298421128 365.234 372.559 c 0,43,44
 359.167215392 382.628658125 359.167215392 382.628658125 350.740707562 390.939020582 c 0
 342.314199732 399.249383039 342.314199732 399.249383039 332.201 405.078 c 0,45,46
 322.212229761 410.834478171 322.212229761 410.834478171 310.855367339 414.069007257 c 0
 299.498504916 417.303536342 299.498504916 417.303536342 287.598 417.969 c 0,47,48
 249.984648201 420.072467532 249.984648201 420.072467532 195.801 394.531 c 0,49,50
 166.898755717 380.907490877 166.898755717 380.907490877 124.512 356.934 c 1,51,-1
 106.445 407.715 l 1,52,53
 137.613477312 429.158377976 137.613477312 429.158377976 168.457 446.289 c 0,54,55
 243.801296065 488.134346988 243.801296065 488.134346988 301.27 491.211 c 4,28,29
87.8906 482.422 m 5,56,-1
 144.043 482.422 l 1,57,-1
 167.969 426.27 l 1,58,-1
 167.969 0 l 1,59,-1
 87.8906 0 l 1,60,-1
 87.8906 482.422 l 5,56,-1
EndSplineSet
Fore
SplineSet
425 383 m 1,0,1
 430 366 430 366 430 327 c 2,2,-1
 430 0 l 1,3,-1
 349 0 l 1,4,-1
 349 307 l 2,5,6
 349 351 349 351 339 374 c 0,7,8
 318 419 318 419 267 425 c 0,9,10
 261 426 261 426 254 426 c 0,11,12
 207 426 207 426 142 389 c 1,13,-1
 142 0 l 1,14,-1
 60 0 l 1,15,-1
 60 480 l 1,16,-1
 117 480 l 1,17,-1
 133 444 l 1,18,19
 178 472 178 472 213 483 c 1,20,21
 249 493 249 493 280 493 c 0,22,23
 325 493 325 493 360 472 c 1,24,25
 384 459 384 459 404 430 c 1,26,27
 467 472 467 472 502 482 c 0,28,29
 540 493 540 493 573 493 c 0,30,31
 618 493 618 493 653 472 c 0,32,33
 723 430 723 430 723 327 c 2,34,-1
 723 0 l 1,35,-1
 642 0 l 1,36,-1
 642 307 l 2,37,38
 642 351 642 351 632 374 c 0,39,40
 611 419 611 419 558 425 c 0,41,42
 552 426 552 426 546 426 c 0,43,44
 496 426 496 426 425 383 c 1,0,1
EndSplineSet
EndChar

StartChar: c
Encoding: 99 99 18
Width: 467
VWidth: 1023
Flags: HMW
HStem: -10 67<209.074 393.763> 408 68<206.038 398.764>
LayerCount: 2
Fore
SplineSet
297 491 m 4,0,1
 300 491 300 491 302 491 c 0,2,3
 360 491 360 491 427 462 c 1,4,-1
 407 404 l 1,5,6
 352 423 352 423 306 423 c 0,7,8
 303 423 303 423 300 423 c 0,9,10
 135 416 135 416 135 247 c 0,11,12
 135 237 135 237 136 226 c 0,13,14
 142 121 142 121 211 81 c 0,15,16
 243 63 243 63 292 57 c 0,17,18
 303 56 303 56 314 56 c 0,19,20
 354 56 354 56 402 72 c 1,21,-1
 421 17 l 1,22,23
 352 -10 352 -10 290 -10 c 0,24,25
 288 -10 288 -10 285 -10 c 0,26,27
 159 -10 159 -10 100 73 c 0,28,29
 59 131 59 131 57 238 c 0,30,31
 57 241 57 241 57 243 c 0,32,33
 57 347 57 347 115 417 c 0,34,35
 176 490 176 490 297 491 c 4,0,1
EndSplineSet
EndChar

StartChar: t
Encoding: 116 116 19
Width: 387
VWidth: 1023
Flags: HW
HStem: -9 68<205.12 345.524> 415 68<25 106 187 347>
VStem: 106 81<82.7104 415 483 603>
LayerCount: 2
Back
SplineSet
39.0625 482.422 m 5,0,-1
 331.055 482.422 l 1,1,-1
 331.055 419.434 l 1,2,-1
 39.0625 419.434 l 1,3,-1
 39.0625 482.422 l 5,0,-1
104.004 620.605 m 5,4,-1
 184.082 620.605 l 1,5,-1
 184.082 154.785 l 2,6,7
 184.082 112.764802038 184.082 112.764802038 194.285 92.332 c 0,8,9
 201.709389337 77.4687156905 201.709389337 77.4687156905 214.311 67.7852 c 0,10,11
 220.557469639 62.9845532391 220.557469639 62.9845532391 227.895677231 59.6816797294 c 0
 235.233884822 56.3788062196 235.233884822 56.3788062196 243.164 54.6875 c 0,12,13
 261.079223557 52.3280482024 261.079223557 52.3280482024 271.66775 52.9867 c 0
 282.256276443 53.6453517976 282.256276443 53.6453517976 300.293 56.6406 c 0,14,15
 305.444151164 57.496016481 305.444151164 57.496016481 318.204908043 59.6796024246 c 0
 330.965664923 61.8631883682 330.965664923 61.8631883682 337.891 62.9883 c 1,16,-1
 349.121 8.30078 l 1,17,18
 330.769979698 3.66791141792 330.769979698 3.66791141792 313.477 0 c 0,19,20
 278.573241564 -7.40397321215 278.573241564 -7.40397321215 255.2425 -9.0826475 c 0
 231.911758436 -10.7613217879 231.911758436 -10.7613217879 197.266 -4.88281 c 0,21,22
 189.087391935 -2.8137523713 189.087391935 -2.8137523713 181.356636213 0.20709511927 c 0
 173.62588049 3.22794260984 173.62588049 3.22794260984 166.225363787 7.3225195474 c 0
 158.824847084 11.417096485 158.824847084 11.417096485 152.236 16.4072 c 0,23,24
 142.282001263 23.9453783323 142.282001263 23.9453783323 134.092465723 33.5596145988 c 0
 125.902930184 43.1738508653 125.902930184 43.1738508653 119.936 54.2588 c 0,25,26
 108.705308753 75.1248912978 108.705308753 75.1248912978 104.863 101.812 c 0,27,28
 102.378195387 119.078313447 102.378195387 119.078313447 102.539 151.855 c 2,29,-1
 104.004 452.148 l 1,30,-1
 104.004 620.605 l 5,4,-1
EndSplineSet
Fore
SplineSet
25 415 m 5,0,-1
 25 483 l 1,1,-1
 106 483 l 1,2,-1
 106 603 l 1,3,-1
 187 607 l 1,4,-1
 187 483 l 1,5,-1
 347 483 l 1,6,-1
 347 415 l 1,7,-1
 187 415 l 1,8,-1
 187 156 l 2,9,10
 186 103 186 103 204 81 c 0,11,12
 222 59 222 59 264 59 c 0,13,14
 306 59 306 59 347 70 c 1,15,-1
 347 9 l 1,16,17
 292 -9 292 -9 241 -9 c 0,18,19
 168 -9 168 -9 137 31 c 128,-1,20
 106 71 106 71 106 150 c 2,21,-1
 106 415 l 1,22,-1
 25 415 l 5,0,-1
EndSplineSet
EndChar

StartChar: r
Encoding: 114 114 20
Width: 391
VWidth: 1023
Flags: HW
HStem: 0 21G<88 171> 402 79<299.077 364> 418 72<207.126 357.922>
VStem: 88 83<0 395.646>
LayerCount: 2
Back
SplineSet
285.645 491.699 m 0,0,1
 311.467847384 492.684456014 311.467847384 492.684456014 337.058772338 487.71508912 c 0
 362.649697293 482.745722227 362.649697293 482.745722227 386.23 472.168 c 1,2,-1
 361.816 408.691 l 1,3,4
 323.652147303 423.511501043 323.652147303 423.511501043 282.715 423.34 c 0,5,6
 271.736569386 423.294097934 271.736569386 423.294097934 260.712069301 422.074829503 c 0
 249.687569216 420.855561072 249.687569216 420.855561072 238.962442418 418.538209559 c 0
 228.237315619 416.220858047 228.237315619 416.220858047 217.681967739 412.801532628 c 0
 207.126619859 409.38220721 207.126619859 409.38220721 197.068286168 404.977772059 c 0
 187.009952477 400.573336909 187.009952477 400.573336909 177.338459926 395.135548253 c 0
 167.666967376 389.697759597 167.666967376 389.697759597 158.690129918 383.387834559 c 0
 149.713292459 377.077909521 149.713292459 377.077909521 141.340358364 369.803251378 c 0
 132.967424268 362.528593235 132.967424268 362.528593235 125.488 354.492 c 1,7,-1
 105.957 389.975 l 1,8,9
 135.28533128 434.876108948 135.28533128 434.876108948 183.668408041 462.266039889 c 0
 232.051484802 489.65597083 232.051484802 489.65597083 285.645 491.699 c 0,0,1
87.8906 482.422 m 1,10,-1
 144.043 482.422 l 1,11,-1
 167.969 425.781 l 1,12,-1
 167.969 0 l 1,13,-1
 87.8906 0 l 1,14,-1
 87.8906 482.422 l 1,10,-1
EndSplineSet
Fore
SplineSet
148 481 m 1,0,-1
 164 441 l 1,1,2
 228 490 228 490 298 490 c 0,3,4
 332 490 332 490 364 481 c 1,5,-1
 364 402 l 1,6,-1
 354 402 l 1,7,8
 314 418 314 418 281 418 c 0,9,10
 224 418 224 418 171 383 c 1,11,-1
 171 0 l 1,12,-1
 88 0 l 1,13,-1
 88 481 l 1,14,-1
 148 481 l 1,0,-1
EndSplineSet
EndChar

StartChar: v
Encoding: 118 118 21
Width: 492
VWidth: 1023
Flags: HW
HStem: 0 21G<194.562 297.438> 464 20G<22 117.018 378.929 470>
LayerCount: 2
Back
SplineSet
448.242 482.422 m 5,0,-1
 365.234 482.422 l 1,1,-1
 219.238 5.85938 l 1,2,-1
 265.137 5.85938 l 1,3,-1
 114.746 482.422 l 1,4,-1
 31.7383 482.422 l 1,5,-1
 201.66 0 l 1,6,-1
 279.785 0 l 1,7,-1
 448.242 482.422 l 5,0,-1
EndSplineSet
Fore
SplineSet
470 484 m 1,0,-1
 290 0 l 1,1,-1
 202 0 l 1,2,-1
 22 484 l 1,3,-1
 110 484 l 1,4,-1
 243 105 l 1,5,-1
 248 79 l 1,6,-1
 252 105 l 1,7,-1
 386 484 l 1,8,-1
 470 484 l 1,0,-1
EndSplineSet
EndChar

StartChar: k
Encoding: 107 107 22
Width: 503
VWidth: 1023
Flags: HMW
HStem: 0 73 217 73 408 73 651 20
VStem: 68 80<0 738>
LayerCount: 2
Fore
SplineSet
68 672 m 1,0,-1
 148 672 l 1,1,-1
 148 0 l 1,2,-1
 68 0 l 1,3,-1
 68 672 l 1,0,-1
369 492 m 1,4,-1
 457 492 l 1,5,-1
 247 275 l 1,6,-1
 470 0 l 1,7,-1
 374 0 l 1,8,-1
 156 267 l 1,9,-1
 369 492 l 1,4,-1
EndSplineSet
EndChar

StartChar: j
Encoding: 106 106 23
Width: 237
VWidth: 1023
Flags: HW
HStem: 462 20G<83 163.073> 586 83<82 164>
VStem: 82 82<-157.946 482 586 669>
LayerCount: 2
Fore
SplineSet
165 -64 m 2,0,1
 165 -124 165 -124 158 -142 c 0,2,3
 138 -193 138 -193 111.5 -219 c 128,-1,4
 85 -245 85 -245 35 -263 c 1,5,-1
 5 -202 l 1,6,7
 84 -164 84 -164 84 -77 c 0,8,9
 84 -74 84 -74 84 -71 c 1,10,-1
 84 -68 l 1,11,-1
 83 482 l 1,12,-1
 163 482 l 1,13,-1
 165 -64 l 2,0,1
82 669 m 1,14,-1
 164 669 l 1,15,-1
 164 586 l 1,16,-1
 82 586 l 1,17,-1
 82 669 l 1,14,-1
EndSplineSet
EndChar

StartChar: x
Encoding: 120 120 24
Width: 511
VWidth: 1023
Flags: HW
HStem: 0 21G<38 136.591 360.746 468> 462 20G<32 139.241 378.283 478>
LayerCount: 2
Fore
SplineSet
392 482 m 1,0,-1
 478 482 l 1,1,-1
 300 236 l 1,2,-1
 468 0 l 1,3,-1
 375 0 l 1,4,-1
 246 181 l 1,5,-1
 123 0 l 1,6,-1
 38 0 l 1,7,-1
 207 237 l 1,8,-1
 32 482 l 1,9,-1
 125 482 l 1,10,-1
 261 291 l 1,11,-1
 392 482 l 1,0,-1
EndSplineSet
EndChar

StartChar: z
Encoding: 122 122 25
Width: 526
VWidth: 1023
Flags: HW
HStem: 0 63<177 453> 419 63<73 336>
LayerCount: 2
Fore
SplineSet
73 482 m 1,0,-1
 441 482 l 1,1,-1
 441 440 l 1,2,-1
 177 63 l 1,3,-1
 453 63 l 1,4,-1
 453 0 l 1,5,-1
 73 0 l 1,6,-1
 73 42 l 1,7,-1
 336 419 l 1,8,-1
 73 419 l 1,9,-1
 73 482 l 1,0,-1
EndSplineSet
EndChar

StartChar: y
Encoding: 121 121 26
Width: 507
VWidth: 1023
Flags: HW
HStem: 462 20G<22 110.384 397.616 481>
LayerCount: 2
Fore
SplineSet
405 482 m 1,0,-1
 481 482 l 1,1,-1
 205 -259 l 1,2,-1
 120 -259 l 1,3,-1
 219 -19 l 1,4,-1
 22 482 l 1,5,-1
 103 482 l 1,6,-1
 254 73 l 1,7,-1
 405 482 l 1,0,-1
EndSplineSet
EndChar

StartChar: f
Encoding: 102 102 27
Width: 372
VWidth: 1023
Flags: HW
HStem: 0 21G<95.9523 177> 419 63<25 95 176 337>
VStem: 95 81<0 419 482 598.575>
LayerCount: 2
Fore
SplineSet
110 622 m 0,0,1
 153 698 153 698 255 698 c 0,2,3
 306 698 306 698 372 679 c 1,4,-1
 359 619 l 1,5,6
 314 632 314 632 281 632 c 0,7,8
 259 632 259 632 243 626 c 0,9,10
 185 606 185 606 178 559 c 0,11,12
 176 545 176 545 176 528 c 2,13,-1
 176 482 l 1,14,-1
 337 482 l 1,15,-1
 337 419 l 1,16,-1
 176 419 l 1,17,-1
 177 0 l 1,18,-1
 96 0 l 1,19,-1
 95 419 l 1,20,-1
 25 419 l 1,21,-1
 25 482 l 1,22,-1
 95 482 l 1,23,-1
 95 531 l 2,24,25
 95 595 95 595 110 622 c 0,0,1
EndSplineSet
EndChar

StartChar: G
Encoding: 71 71 28
Width: 758
VWidth: 1023
Flags: HMW
HStem: -9 73<347.505 562.505> 298 68<415.505 612.505> 625 73
VStem: 95 83<235 463> 613 78<103 298>
LayerCount: 2
Fore
SplineSet
576 601 m 0,0,1
 504 627 504 627 441 627 c 0,2,3
 364 627 364 627 303 587 c 0,4,5
 181 507 181 507 178 354 c 0,6,7
 178 351 178 351 177 348 c 0,8,9
 177 272 177 272 212 207 c 0,10,11
 248 140 248 140 313 102 c 128,-1,12
 378 64 378 64 466 64 c 128,-1,13
 554 64 554 64 613 121 c 1,14,-1
 613 298 l 1,15,-1
 416 298 l 1,16,-1
 416 366 l 1,17,-1
 694 366 l 1,18,-1
 691 94 l 1,19,20
 601 -9 601 -9 435 -9 c 0,21,22
 431 -9 431 -9 427 -9 c 0,23,24
 333 -8 333 -8 258.5 35 c 128,-1,25
 184 78 184 78 139 164 c 0,26,27
 95 247 95 247 94 342 c 0,28,29
 94 345 94 345 95 348 c 0,30,31
 97 448 97 448 140 528.5 c 128,-1,32
 183 609 183 609 259 654 c 0,33,34
 336 699 336 699 433 699 c 0,35,36
 472 699 472 699 516 692 c 0,37,38
 592 679 592 679 662 640 c 1,39,-1
 629 578 l 1,40,41
 612 587 612 587 576 601 c 0,0,1
EndSplineSet
EndChar

StartChar: H
Encoding: 72 72 29
Width: 740
VWidth: 1023
Flags: HW
HStem: 0 21G<90 177 562 650> 311 75<177 562>
VStem: 90 87<0 311 386 692> 562 88<0 311 386 692>
LayerCount: 2
Back
SplineSet
174.316 394.531 m 5,0,-1
 644.043 394.531 l 1,1,-1
 644.043 321.289 l 1,2,-1
 174.316 321.289 l 1,3,-1
 174.316 394.531 l 5,0,-1
595.703 693.848 m 5,4,-1
 678.711 693.848 l 1,5,-1
 678.711 0 l 1,6,-1
 595.703 0 l 1,7,-1
 595.703 693.848 l 5,4,-1
141.602 693.848 m 5,8,-1
 224.609 693.848 l 1,9,-1
 224.609 0 l 1,10,-1
 141.602 0 l 1,11,-1
 141.602 693.848 l 5,8,-1
EndSplineSet
Fore
SplineSet
562 692 m 1,0,-1
 650 692 l 1,1,-1
 650 0 l 1,2,-1
 562 0 l 1,3,-1
 562 311 l 1,4,-1
 177 311 l 1,5,-1
 177 0 l 1,6,-1
 90 0 l 1,7,-1
 90 692 l 1,8,-1
 177 692 l 1,9,-1
 177 386 l 1,10,-1
 562 386 l 1,11,-1
 562 692 l 1,0,-1
EndSplineSet
EndChar

StartChar: g
Encoding: 103 103 30
Width: 542
VWidth: 1023
Flags: HMW
HStem: -261 73 0 73 408 73
VStem: 406 80<-123 23 74 407>
LayerCount: 2
Fore
SplineSet
202 475 m 0,0,1
 241 491 241 491 283 491 c 0,2,3
 337 491 337 491 397 464 c 1,4,-1
 420 454 l 1,5,-1
 430 482 l 1,6,-1
 486 482 l 1,7,-1
 486 -23 l 2,8,9
 486 -87 486 -87 472.5 -127 c 128,-1,10
 459 -167 459 -167 421.5 -203 c 128,-1,11
 384 -239 384 -239 326 -254 c 0,12,13
 288 -264 288 -264 247 -264 c 0,14,15
 195 -264 195 -264 139 -247 c 0,16,17
 113 -239 113 -239 100 -233 c 1,18,-1
 122 -175 l 1,19,20
 185 -198 185 -198 238 -198 c 0,21,22
 280 -198 280 -198 314 -184 c 0,23,24
 394 -152 394 -152 404 -58 c 0,25,26
 406 -44 406 -44 406 9 c 2,27,-1
 406 23 l 1,28,29
 354 -6 354 -6 294 -9 c 0,30,31
 287 -9 287 -9 279 -9 c 0,32,33
 167 -9 167 -9 103 82 c 0,34,35
 69 131 69 131 64 201 c 0,36,37
 63 218 63 218 63 234 c 0,38,39
 63 349 63 349 120 415 c 0,40,41
 153 454 153 454 202 475 c 0,0,1
406 83 m 1,42,-1
 406 400 l 1,43,44
 341 427 341 427 291 427 c 0,45,46
 245 427 245 427 211 404 c 0,47,48
 154 366 154 366 143 284 c 0,49,50
 140 263 140 263 141 244 c 0,51,52
 141 186 141 186 164 139 c 0,53,54
 184 96 184 96 224 74 c 0,55,56
 257 56 257 56 298 56 c 0,57,58
 306 56 306 56 316 57 c 0,59,60
 368 62 368 62 406 83 c 1,42,-1
EndSplineSet
EndChar

StartChar: O
Encoding: 79 79 31
Width: 811
VWidth: 1023
Flags: HW
HStem: -8 74<322.31 515.429> 626 74<322.31 515.429>
VStem: 90 94<221.501 470.277> 654 94<221.501 470.11>
LayerCount: 2
Back
SplineSet
425.781 628.418 m 4,0,1
 377.457123236 628.15211066 377.457123236 628.15211066 332.377078384 608.103844821 c 0
 287.297033531 588.055578981 287.297033531 588.055578981 255.859 552.246 c 0,2,3
 246.830852891 541.962822309 246.830852891 541.962822309 238.944451779 530.418018278 c 0
 231.058050667 518.873214247 231.058050667 518.873214247 224.613798221 506.615981722 c 0
 218.169545776 494.358749197 218.169545776 494.358749197 213.013701779 481.555643278 c 0
 207.857857782 468.752537359 207.857857782 468.752537359 203.924 455.305 c 0,4,5
 189.077666454 404.54782708 189.077666454 404.54782708 190.43 345.703 c 0,6,7
 191.664639575 291.927763167 191.664639575 291.927763167 206.741552009 242.618190879 c 0
 221.818464443 193.308618591 221.818464443 193.308618591 251.953 154.785 c 0,8,9
 285.74610275 111.586253095 285.74610275 111.586253095 334.205 88.251 c 0,10,11
 383.014654495 64.7446127159 383.014654495 64.7446127159 437.5 65.4297 c 0,12,13
 463.568412626 65.7575690492 463.568412626 65.7575690492 489.023969944 71.9343054647 c 0
 514.479527262 78.1110418801 514.479527262 78.1110418801 537.563 89.8008 c 0,14,15
 584.34310629 113.489456012 584.34310629 113.489456012 616.211 156.25 c 0,16,17
 671.741067726 230.756484571 671.741067726 230.756484571 671.875 345.703 c 0,18,19
 671.989469913 444.322197031 671.989469913 444.322197031 629.883 514.16 c 0,20,21
 623.568035343 524.635076907 623.568035343 524.635076907 616.196780559 534.434381968 c 0
 608.825525775 544.233687028 608.825525775 544.233687028 600.486147441 553.223194032 c 0
 592.146769108 562.212701037 592.146769108 562.212701037 582.975452559 570.278285968 c 0
 573.80413601 578.343870898 573.80413601 578.343870898 563.765619441 585.446938032 c 0
 553.727102872 592.550005167 553.727102872 592.550005167 543.081 598.481 c 0,22,23
 488.745005825 628.765236484 488.745005825 628.765236484 425.781 628.418 c 4,0,1
435.059 701.172 m 4,24,25
 468.461890031 700.849658812 468.461890031 700.849658812 501.058753719 694.426347225 c 0
 533.655617407 688.003035639 533.655617407 688.003035639 563.857 675.513 c 0,26,27
 626.851881342 649.461577413 626.851881342 649.461577413 671.387 600.586 c 0,28,29
 716.801365381 550.747947728 716.801365381 550.747947728 738.691 481.605 c 0,30,31
 758.722426269 418.340487534 758.722426269 418.340487534 757.324 345.703 c 0,32,33
 755.806118749 266.820510136 755.806118749 266.820510136 729.81 198.988 c 0,34,35
 701.466509967 125.015467436 701.466509967 125.015467436 647.461 75.1953 c 0,36,37
 629.988680366 59.0782746043 629.988680366 59.0782746043 609.724723852 45.778025368 c 0
 589.460767337 32.4777761317 589.460767337 32.4777761317 567.720084148 22.647970472 c 0
 545.979400959 12.8181648124 545.979400959 12.8181648124 522.754035852 6.07731432797 c 0
 499.528670745 -0.663536156435 499.528670745 -0.663536156435 475.656356148 -4.00414216797 c 0
 451.784041552 -7.34474817951 451.784041552 -7.34474817951 427.734 -7.32422 c 0,38,39
 364.598763004 -7.27048967194 364.598763004 -7.27048967194 305.449818063 15.6543358928 c 0
 246.300873122 38.5791614575 246.300873122 38.5791614575 203.125 81.543 c 0,40,41
 152.979090198 131.443851804 152.979090198 131.443851804 127.832 203.572 c 0,42,43
 104.910280932 269.313084641 104.910280932 269.313084641 104.98 345.703 c 0,44,45
 105.016897901 384.494993067 105.016897901 384.494993067 111.226307809 421.970099009 c 0
 117.435717716 459.44520495 117.435717716 459.44520495 130.207 494.199 c 0,46,47
 157.820786127 569.354701061 157.820786127 569.354701061 212.402 619.629 c 0,48,49
 256.214458899 659.983877918 256.214458899 659.983877918 314.633464213 680.878978719 c 0
 373.052469528 701.77407952 373.052469528 701.77407952 435.059 701.172 c 4,24,25
EndSplineSet
Fore
SplineSet
419 626 m 128,-1,1
 351 626 351 626 298 590.5 c 128,-1,2
 245 555 245 555 214.5 491 c 128,-1,3
 184 427 184 427 184 346 c 128,-1,4
 184 265 184 265 214.5 201 c 128,-1,5
 245 137 245 137 298 101.5 c 128,-1,6
 351 66 351 66 419 66 c 128,-1,7
 487 66 487 66 540 101.5 c 128,-1,8
 593 137 593 137 623.5 201 c 128,-1,9
 654 265 654 265 654 345.5 c 128,-1,10
 654 426 654 426 624 490.5 c 128,-1,11
 594 555 594 555 540.5 590.5 c 128,-1,0
 487 626 487 626 419 626 c 128,-1,1
90 345.5 m 128,-1,13
 90 452 90 452 130 532.5 c 128,-1,14
 170 613 170 613 245.5 656.5 c 128,-1,15
 321 700 321 700 418.5 700 c 128,-1,16
 516 700 516 700 591.5 656.5 c 128,-1,17
 667 613 667 613 707.5 531.5 c 128,-1,18
 748 450 748 450 748 345 c 128,-1,19
 748 240 748 240 707 159.5 c 128,-1,20
 666 79 666 79 591 35.5 c 128,-1,21
 516 -8 516 -8 418.5 -8 c 128,-1,22
 321 -8 321 -8 246 35.5 c 128,-1,23
 171 79 171 79 130.5 159 c 128,-1,12
 90 239 90 239 90 345.5 c 128,-1,13
EndSplineSet
EndChar

StartChar: A
Encoding: 65 65 32
Width: 648
VWidth: 1023
Flags: HW
HStem: 0 21G<30 113.931 527.069 618> 202 72<202 438> 674 20G<269.882 378.118>
LayerCount: 2
Fore
SplineSet
277 694 m 1,0,-1
 371 694 l 1,1,-1
 618 0 l 1,2,-1
 534 0 l 1,3,-1
 464 202 l 1,4,-1
 177 202 l 1,5,-1
 107 0 l 1,6,-1
 30 0 l 1,7,-1
 277 694 l 1,0,-1
321 613 m 1,8,-1
 202 274 l 1,9,-1
 438 274 l 1,10,-1
 321 613 l 1,8,-1
EndSplineSet
EndChar

StartChar: L
Encoding: 76 76 33
Width: 537
VWidth: 1023
Flags: HW
HStem: 0 73<210.8 521.8> 674 20G<127.8 210.8>
VStem: 128 83<73 694>
LayerCount: 2
Fore
SplineSet
128 694 m 1,0,-1
 211 694 l 1,1,-1
 211 73 l 1,2,-1
 522 73 l 1,3,-1
 522 0 l 1,4,-1
 128 0 l 1,5,-1
 128 694 l 1,0,-1
EndSplineSet
EndChar

StartChar: E
Encoding: 69 69 34
Width: 556
VWidth: 1023
Flags: HW
HStem: 0 73<173 496> 321 73<173 469> 621 73<173 496>
VStem: 90 83<73 321 394 621>
LayerCount: 2
Fore
SplineSet
90 0 m 1,0,-1
 90 694 l 1,1,-1
 496 694 l 1,2,-1
 496 621 l 1,3,-1
 173 621 l 1,4,-1
 173 394 l 1,5,-1
 469 394 l 1,6,-1
 469 321 l 1,7,-1
 173 321 l 1,8,-1
 173 73 l 1,9,-1
 496 73 l 1,10,-1
 496 0 l 1,11,-1
 90 0 l 1,0,-1
EndSplineSet
EndChar

StartChar: F
Encoding: 70 70 35
Width: 551
VWidth: 1023
Flags: HW
HStem: 0 21G<90 173> 321 73<173 462> 621 73<173 491>
VStem: 90 83<0 321 394 621>
LayerCount: 2
Fore
SplineSet
173 621 m 1,0,-1
 173 394 l 1,1,-1
 462 394 l 1,2,-1
 462 321 l 1,3,-1
 173 321 l 1,4,-1
 173 0 l 1,5,-1
 90 0 l 1,6,-1
 90 694 l 1,7,-1
 491 694 l 1,8,-1
 491 621 l 1,9,-1
 173 621 l 1,0,-1
EndSplineSet
EndChar

StartChar: N
Encoding: 78 78 36
Width: 746
VWidth: 1023
Flags: HW
HStem: 0 21G<90 173 538.01 656> 674 20G<90 208.012 573 656>
VStem: 90 83<0 582> 573 83<113 694>
LayerCount: 2
Fore
SplineSet
90 694 m 1,0,-1
 195 694 l 1,1,-1
 573 113 l 1,2,-1
 573 694 l 1,3,-1
 656 694 l 1,4,-1
 656 0 l 1,5,-1
 551 0 l 1,6,-1
 173 582 l 1,7,-1
 173 0 l 1,8,-1
 90 0 l 1,9,-1
 90 694 l 1,0,-1
EndSplineSet
EndChar

StartChar: V
Encoding: 86 86 37
Width: 647
VWidth: 1023
Flags: HW
HStem: 0 21G<265.026 381.974> 674 20G<30 135.535 518.465 617>
LayerCount: 2
Fore
SplineSet
30 694 m 1,0,-1
 129 694 l 1,1,-1
 327 88 l 1,2,-1
 525 694 l 1,3,-1
 617 694 l 1,4,-1
 375 0 l 1,5,-1
 272 0 l 1,6,-1
 30 694 l 1,0,-1
EndSplineSet
EndChar

StartChar: Z
Encoding: 90 90 38
Width: 652
VWidth: 1023
Flags: HW
HStem: 0 73<178.4 626.4> 621 73<82.4004 494.4>
LayerCount: 2
Fore
SplineSet
82 694 m 1,0,-1
 613 694 l 1,1,-1
 613 641 l 1,2,-1
 178 73 l 1,3,-1
 626 73 l 1,4,-1
 626 0 l 1,5,-1
 68 0 l 1,6,-1
 68 54 l 1,7,-1
 494 621 l 1,8,-1
 82 621 l 1,9,-1
 82 694 l 1,0,-1
EndSplineSet
EndChar

StartChar: T
Encoding: 84 84 39
Width: 585
VWidth: 1023
Flags: HW
HStem: 0 21G<268.8 351.8> 621 73<37.7998 268.8 351.8 583.8>
VStem: 269 83<0 621>
LayerCount: 2
Fore
SplineSet
38 694 m 1,0,-1
 584 694 l 1,1,-1
 584 621 l 1,2,-1
 352 621 l 1,3,-1
 352 0 l 1,4,-1
 269 0 l 1,5,-1
 269 621 l 1,6,-1
 38 621 l 1,7,-1
 38 694 l 1,0,-1
EndSplineSet
EndChar

StartChar: I
Encoding: 73 73 40
Width: 328
VWidth: 1023
Flags: HW
HStem: 0 21G<140.4 223.4> 674 20G<140.4 223.4>
VStem: 140 83<0 694>
LayerCount: 2
Fore
SplineSet
140 694 m 1,0,-1
 223 694 l 1,1,-1
 223 0 l 1,2,-1
 140 0 l 1,3,-1
 140 694 l 1,0,-1
EndSplineSet
EndChar

StartChar: X
Encoding: 88 88 41
Width: 660
VWidth: 1023
Flags: HW
HStem: 0 21G<48.5996 163.956 527.243 647.6> 674 20G<77.5996 192.086 512.496 620.6>
LayerCount: 2
Fore
SplineSet
526 694 m 1,0,-1
 621 694 l 1,1,-1
 402 364 l 1,2,-1
 648 0 l 1,3,-1
 541 0 l 1,4,-1
 346 292 l 1,5,-1
 151 0 l 1,6,-1
 49 0 l 1,7,-1
 299 362 l 1,8,-1
 78 694 l 1,9,-1
 179 694 l 1,10,-1
 355 433 l 1,11,-1
 526 694 l 1,0,-1
EndSplineSet
EndChar

StartChar: Y
Encoding: 89 89 42
Width: 609
VWidth: 1023
Flags: HW
HStem: 0 21G<273.1 356.1> 674 20G<44.0996 154.434 486.556 592.1>
VStem: 273 83<0 329>
LayerCount: 2
Fore
SplineSet
44 694 m 1,0,-1
 142 694 l 1,1,-1
 319 407 l 1,2,-1
 499 694 l 1,3,-1
 592 694 l 1,4,-1
 356 329 l 1,5,-1
 356 0 l 1,6,-1
 273 0 l 1,7,-1
 273 329 l 1,8,-1
 44 694 l 1,0,-1
EndSplineSet
EndChar

StartChar: K
Encoding: 75 75 43
Width: 673
VWidth: 1023
Flags: HW
HStem: 0 21G<127.8 210.8 514.384 638.8> 674 20G<127.8 210.8 498.403 619.8>
VStem: 128 83<0 694>
LayerCount: 2
Fore
SplineSet
128 694 m 1,0,-1
 211 694 l 1,1,-1
 211 0 l 1,2,-1
 128 0 l 1,3,-1
 128 694 l 1,0,-1
516 694 m 1,4,-1
 620 694 l 1,5,-1
 327 363 l 1,6,-1
 639 0 l 1,7,-1
 532 0 l 1,8,-1
 222 356 l 1,9,-1
 516 694 l 1,4,-1
EndSplineSet
EndChar

StartChar: M
Encoding: 77 77 44
Width: 855
VWidth: 1023
Flags: HW
HStem: 0 21G<90 173 682 765> 674 20G<90 217.546 645.216 765>
VStem: 90 83<0 575> 682 83<0 575>
LayerCount: 2
Fore
SplineSet
90 694 m 1,0,-1
 207 694 l 1,1,-1
 429 273 l 1,2,-1
 656 694 l 1,3,-1
 765 694 l 1,4,-1
 765 0 l 1,5,-1
 682 0 l 1,6,-1
 682 575 l 1,7,-1
 469 199 l 1,8,-1
 386 199 l 1,9,-1
 173 575 l 1,10,-1
 173 0 l 1,11,-1
 90 0 l 1,12,-1
 90 694 l 1,0,-1
EndSplineSet
EndChar

StartChar: hyphen
Encoding: 45 45 45
Width: 400
VWidth: 1023
Flags: HW
HStem: 288 67<55 345>
VStem: 55 290<288 355>
LayerCount: 2
Fore
SplineSet
55 355 m 5,0,-1
 345 355 l 1,1,-1
 345 288 l 1,2,-1
 55 288 l 1,3,-1
 55 355 l 5,0,-1
EndSplineSet
EndChar

StartChar: J
Encoding: 74 74 46
Width: 449
VWidth: 1023
Flags: HW
HStem: 673 20G<274.6 357.6>
VStem: 275 83<115.756 693>
LayerCount: 2
Fore
SplineSet
275 693 m 1,0,-1
 358 693 l 1,1,-1
 358 208 l 2,2,3
 358 158 358 158 348.5 120.5 c 128,-1,4
 339 83 339 83 310 52 c 0,5,6
 256 -5 256 -5 157 -8 c 0,7,8
 151 -8 151 -8 144 -8 c 0,9,10
 95 -8 95 -8 49 3 c 1,11,-1
 62 73 l 1,12,13
 101 64 101 64 133 64 c 0,14,15
 170 64 170 64 200 76 c 0,16,17
 255 98 255 98 270 152 c 0,18,19
 275 172 275 172 275 204 c 2,20,-1
 275 693 l 1,0,-1
EndSplineSet
EndChar

StartChar: R
Encoding: 82 82 47
Width: 634
VWidth: 1023
Flags: HW
HStem: 0 21G<90 173 482.034 588> 289 73<173 307> 621 73<173 410.51>
VStem: 90 83<0 289 362 621>
LayerCount: 2
Fore
SplineSet
307 290 m 1,0,1
 246 289 l 1,2,-1
 173 289 l 1,3,-1
 173 0 l 1,4,-1
 90 0 l 1,5,-1
 90 694 l 1,6,-1
 344 694 l 2,7,8
 401 694 401 694 435.5 684 c 128,-1,9
 470 674 470 674 497 645 c 0,10,11
 548 591 548 591 548 496.5 c 128,-1,12
 548 402 548 402 486 345 c 1,13,14
 450 310 450 310 392 298 c 1,15,-1
 588 0 l 1,16,-1
 495 0 l 1,17,-1
 307 290 l 1,0,1
173 362 m 1,18,-1
 256 362 l 2,19,20
 317 362 317 362 339 364 c 0,21,22
 425 372 425 372 453 436 c 0,23,24
 465 463 465 463 465 492 c 0,25,26
 465 517 465 517 456 543 c 1,27,28
 433 603 433 603 368 616 c 0,29,30
 343 621 343 621 300 621 c 2,31,-1
 173 621 l 1,32,-1
 173 362 l 1,18,-1
EndSplineSet
EndChar

StartChar: D
Encoding: 68 68 48
Width: 762
VWidth: 1023
Flags: HW
HStem: 0 74<218.9 465.702> 620 73<218.9 465.149>
VStem: 127 92<74 620> 609 96<217.98 482.361>
LayerCount: 2
Back
SplineSet
224.609 620.605 m 1,0,-1
 224.609 73.2422 l 1,1,-1
 325.684 73.2422 l 2,2,3
 385.821488483 73.2422 385.821488483 73.2422 417.41 78.252 c 0,4,5
 466.068371785 85.9701967823 466.068371785 85.9701967823 503.906 107.91 c 0,6,7
 559.820156715 140.329204468 559.820156715 140.329204468 590.332 200.684 c 0,8,9
 600.765060921 221.325210539 600.765060921 221.325210539 607.836479573 244.706519145 c 0
 614.907898224 268.087827751 614.907898224 268.087827751 618.348520427 290.965814189 c 0
 621.78914263 313.843800627 621.78914263 313.843800627 622.559 338.379 c 0,10,11
 623.028454783 353.324710053 623.028454783 353.324710053 622.411343242 367.88072125 c 0
 621.794231702 382.436732446 621.794231702 382.436732446 620.034531758 397.199612084 c 0
 618.274831813 411.962491721 618.274831813 411.962491721 615.136148798 426.324073102 c 0
 611.997465783 440.685654483 611.997465783 440.685654483 607.588420646 454.55890838 c 0
 603.17937551 468.432162277 603.17937551 468.432162277 597.087954354 481.93809162 c 0
 590.996533197 495.444020964 590.996533197 495.444020964 583.496 507.812 c 0,12,13
 547.925316725 566.463660344 547.925316725 566.463660344 485.84 596.68 c 0,14,15
 456.458777386 610.97780615 456.458777386 610.97780615 424.166 616.523 c 0,16,17
 409.642663681 619.016658954 409.642663681 619.016658954 394.356867865 619.810829477 c 0
 379.071072048 620.605 379.071072048 620.605 359.375 620.605 c 2,18,-1
 224.609 620.605 l 1,0,-1
141.602 693.848 m 1,19,-1
 335.449 693.848 l 2,20,21
 455.981526687 693.848 455.981526687 693.848 525.391 665.527 c 0,22,23
 565.897627917 648.998688137 565.897627917 648.998688137 599.867496769 621.773423277 c 0
 633.837365621 594.548158417 633.837365621 594.548158417 656.738 559.082 c 0,24,25
 711.223241723 474.703788371 711.223241723 474.703788371 705.566 344.727 c 0,26,27
 702.419798181 272.409349803 702.419798181 272.409349803 682.212 212.053 c 0,28,29
 659.159338942 143.199656244 659.159338942 143.199656244 614.746 96.1914 c 0,30,31
 558.471854393 36.6244156374 558.471854393 36.6244156374 470.703 14.6484 c 0,32,33
 411.201180437 0.00295973783626 411.201180437 0.00295973783626 291.992 -1.7763568394e-15 c 2,34,-1
 141.602 0 l 1,35,-1
 141.602 693.848 l 1,19,-1
EndSplineSet
Fore
SplineSet
127 693 m 1,0,-1
 356 693 l 2,1,2
 522 693 522 693 613.5 604.5 c 128,-1,3
 705 516 705 516 705 347.5 c 128,-1,4
 705 179 705 179 608 89.5 c 128,-1,5
 511 0 511 0 324 0 c 2,6,-1
 127 0 l 1,7,-1
 127 693 l 1,0,-1
609 354 m 0,8,9
 609 620 609 620 335 620 c 2,10,-1
 219 620 l 1,11,-1
 219 74 l 1,12,-1
 336 74 l 2,13,14
 493 74 493 74 559 164 c 0,15,16
 609 232 609 232 609 354 c 0,8,9
EndSplineSet
EndChar

StartChar: P
Encoding: 80 80 49
Width: 633
VWidth: 1023
Flags: HW
HStem: 0 21G<127.8 210.8> 291 73<210.8 448.009> 621 73<210.8 447.996>
VStem: 128 83<0 291 362.49 621>
LayerCount: 2
Fore
SplineSet
128 694 m 1,0,-1
 346 694 l 2,1,2
 416 694 416 694 448 688 c 0,3,4
 502 678 502 678 536 645 c 1,5,6
 588 593 588 593 588 515 c 0,7,8
 588 502 588 502 587 489 c 0,9,10
 572 344 572 344 459 307 c 0,11,12
 400 287 400 287 302 287 c 0,13,14
 260 287 260 287 211 291 c 1,15,-1
 211 0 l 1,16,-1
 128 0 l 1,17,-1
 128 694 l 1,0,-1
211 364 m 1,18,19
 260 360 260 360 299 360 c 0,20,21
 319 360 319 360 337 361 c 0,22,23
 390 364 390 364 413 370 c 0,24,25
 465 383 465 383 489 434 c 0,26,27
 503 463 503 463 504 494 c 0,28,29
 504 517 504 517 496 540 c 0,30,31
 472 609 472 609 388 618 c 0,32,33
 368 621 368 621 301 621 c 2,34,-1
 211 621 l 1,35,-1
 211 364 l 1,18,19
EndSplineSet
EndChar

StartChar: B
Encoding: 66 66 50
Width: 632
VWidth: 1023
Flags: HMW
HStem: 0 73<173 430.5> 333 64<173 369.634> 630 64<173 400.428>
VStem: 90 83<73 333 397 630> 445 80<455.096 589.018> 493 82<129.551 273.926>
LayerCount: 2
Fore
SplineSet
173 630 m 1,0,-1
 173 397 l 1,1,-1
 261 400 l 1,2,3
 445 404 445 404 445 523 c 0,4,5
 445 601 445 601 366 623 c 0,6,7
 342 630 342 630 306 630 c 2,8,-1
 173 630 l 1,0,-1
173 333 m 1,9,-1
 173 73 l 1,10,-1
 326 73 l 2,11,12
 380 73 380 73 435 96 c 0,13,14
 454 104 454 104 469 119 c 0,15,16
 500 150 500 150 500 202 c 0,17,18
 500 268 500 268 445 306 c 0,19,20
 396 339 396 339 316 340 c 0,21,22
 305 340 305 340 294 339 c 2,23,-1
 173 333 l 1,9,-1
90 694 m 1,24,-1
 334 694 l 2,25,26
 430 694 430 694 477.5 643.5 c 128,-1,27
 525 593 525 593 525 527 c 0,28,29
 525 485 525 485 496.5 443 c 128,-1,30
 468 401 468 401 435 388 c 1,31,32
 499 376 499 376 540.5 325.5 c 128,-1,33
 582 275 582 275 582 210 c 0,34,35
 582 123 582 123 514 61.5 c 128,-1,36
 446 0 446 0 315 0 c 2,37,-1
 90 0 l 1,38,-1
 90 694 l 1,24,-1
EndSplineSet
EndChar

StartChar: U
Encoding: 85 85 51
Width: 709
VWidth: 1023
Flags: HW
HStem: -10 72<253.432 454.377> 674 20G<91 174 535 618>
VStem: 91 83<136.866 694> 535 83<139.491 694>
LayerCount: 2
Fore
SplineSet
90 265 m 1,0,-1
 91 303 l 1,1,-1
 91 694 l 1,2,-1
 174 694 l 1,3,-1
 174 244 l 2,4,5
 174 199 174 199 181.5 170 c 0,6,7
 188 140 188 140 212 114 c 0,8,9
 259 62 259 62 354 62 c 128,-1,10
 449 62 449 62 498 117 c 0,11,12
 520 142 520 142 527.5 170.5 c 128,-1,13
 535 199 535 199 535 244 c 2,14,-1
 535 694 l 1,15,-1
 618 694 l 1,16,-1
 618 265 l 1,17,-1
 619 223 l 1,18,19
 617 126 617 126 575 73 c 0,20,21
 510 -10 510 -10 354 -10 c 128,-1,22
 198 -10 198 -10 133 73 c 1,23,24
 90 125 90 125 90 223 c 2,25,-1
 90 265 l 1,0,-1
EndSplineSet
EndChar

StartChar: Q
Encoding: 81 81 52
Width: 816
VWidth: 1023
Flags: HW
HStem: -7 72<331.85 533.309> 628 73<320.796 517.256>
VStem: 94 85<226.191 478.985> 662 85<205.95 472.153>
LayerCount: 2
Fore
SplineSet
202 620 m 1,0,1
 290 701 290 701 423 701 c 0,2,3
 426 701 426 701 428 701 c 0,4,5
 492 701 492 701 554.5 675 c 0,6,7
 616 649 616 649 660 601 c 0,8,9
 746 504 746 504 746.5 351.5 c 0,10,11
 748 199 748 199 674 107 c 1,12,-1
 762 20 l 1,13,-1
 718 -27 l 1,14,-1
 626 59 l 1,15,16
 543 -7 543 -7 423 -7 c 0,17,18
 420 -7 420 -7 418 -7 c 1,19,20
 278 -4 278 -4 188 85 c 0,21,22
 142 131 142 131 118 200 c 128,-1,23
 94 269 94 269 94 345.5 c 128,-1,24
 94 422 94 422 120.5 495 c 128,-1,25
 147 568 147 568 202 620 c 1,0,1
618 162 m 1,26,27
 662 229 662 229 662 328 c 0,28,29
 662 334 662 334 661 341 c 0,30,31
 658 449 658 449 623 508.5 c 128,-1,32
 588 568 588 568 534 598 c 128,-1,33
 480 628 480 628 422 628 c 0,34,35
 311 626 311 626 245 551 c 0,36,37
 180 477 180 477 179 358 c 0,38,39
 179 355 179 355 179 352 c 0,40,41
 182 229 182 229 242 155 c 0,42,43
 275 113 275 113 324.5 89.5 c 128,-1,44
 374 66 374 66 424 65 c 0,45,46
 427 65 427 65 430 65 c 0,47,48
 514 65 514 65 572 111 c 1,49,-1
 418 256 l 1,50,-1
 468 309 l 1,51,-1
 618 162 l 1,26,27
EndSplineSet
EndChar

StartChar: W
Encoding: 87 87 53
Width: 1005
VWidth: 1023
Flags: HW
HStem: 0 21G<236.718 336.862 677.69 777.994> 674 20G<25 120.003 457.997 554.175 892.168 980>
LayerCount: 2
Fore
SplineSet
25 694 m 1,0,-1
 114 694 l 1,1,-1
 289 111 l 1,2,-1
 464 694 l 1,3,-1
 548 694 l 1,4,-1
 728 111 l 1,5,-1
 898 694 l 1,6,-1
 980 694 l 1,7,-1
 772 0 l 1,8,-1
 684 0 l 1,9,-1
 501 580 l 1,10,-1
 331 0 l 1,11,-1
 243 0 l 1,12,-1
 25 694 l 1,0,-1
EndSplineSet
EndChar

StartChar: C
Encoding: 67 67 54
Width: 692
VWidth: 1023
Flags: HW
HStem: -10 75<362.126 608.264> 593 68<582.984 632.268> 623 74<358.734 605.483>
VStem: 109 94<227.273 463.76>
LayerCount: 2
Back
SplineSet
485.352 698.73 m 4,0,1
 540.273689029 698.245710054 540.273689029 698.245710054 597.168 684.57 c 0,2,3
 609.525796675 681.600153688 609.525796675 681.600153688 621.763486099 678.047965888 c 0
 634.001175523 674.495778088 634.001175523 674.495778088 646.035847235 670.389700778 c 0
 658.070518947 666.283623468 658.070518947 666.283623468 669.922 661.621 c 1,4,-1
 644.531 592.773 l 1,5,6
 605.352534546 606.357905835 605.352534546 606.357905835 567.383 614.746 c 0,7,8
 551.403123697 618.277791857 551.403123697 618.277791857 536.662242705 620.650060034 c 0
 521.921361713 623.02232821 521.921361713 623.02232821 505.818423961 624.359273299 c 0
 489.715486209 625.696218389 489.715486209 625.696218389 474.609 625.488 c 0,9,10
 417.531550544 624.704500735 417.531550544 624.704500735 369.127 602.163 c 0,11,12
 319.715760666 579.152694662 319.715760666 579.152694662 283.691 536.133 c 0,13,14
 216.905899945 456.376018211 216.905899945 456.376018211 217.285 345.703 c 0,15,16
 217.651019765 239.01549446 217.651019765 239.01549446 281.738 162.109 c 0,17,18
 299.806223718 140.426981681 299.806223718 140.426981681 322.32709268 123.012754053 c 0
 344.847961642 105.598526425 344.847961642 105.598526425 370.413 93.5117 c 0,19,20
 420.278093865 69.933665499 420.278093865 69.933665499 479.492 66.8945 c 0,21,22
 525.593677936 64.52817076 525.593677936 64.52817076 577.637 74.707 c 0,23,24
 616.011960872 82.212616719 616.011960872 82.212616719 653.809 95.7031 c 1,25,-1
 679.199 34.1797 l 1,26,27
 657.833308972 24.8920973731 657.833308972 24.8920973731 635.811794485 17.4231202566 c 0
 613.790279998 9.95414314012 613.790279998 9.95414314012 591.309 4.39453 c 0,28,29
 544.698108285 -7.13248481333 544.698108285 -7.13248481333 499.833375 -9.596175 c 0
 454.968641715 -12.0598651867 454.968641715 -12.0598651867 407.715 -4.39453 c 0,30,31
 304.873435926 13.8408592274 304.873435926 13.8408592274 234.863 83.9844 c 0,32,33
 209.826131689 109.069765877 209.826131689 109.069765877 190.628960945 139.767716543 c 0
 171.431790201 170.46566721 171.431790201 170.46566721 158.811 204.732 c 0,34,35
 150.607680867 227.00508334 150.607680867 227.00508334 145.119836965 250.602355082 c 0
 139.631993064 274.199626825 139.631993064 274.199626825 136.974163035 297.863978251 c 0
 134.316333006 321.528329677 134.316333006 321.528329677 134.277 345.703 c 0,36,37
 134.222402056 379.233720524 134.222402056 379.233720524 139.502821964 412.093083901 c 0
 144.783241872 444.952447278 144.783241872 444.952447278 155.283178036 476.308900474 c 0
 165.783114199 507.66535367 165.783114199 507.66535367 182.395571964 536.849677651 c 0
 199.00802973 566.034001633 199.00802973 566.034001633 220.703 590.332 c 0,38,39
 269.964884429 645.501158771 269.964884429 645.501158771 340.955 673.398 c 0,40,41
 407.174729741 699.421679465 407.174729741 699.421679465 485.352 698.73 c 4,0,1
EndSplineSet
Fore
SplineSet
203 346 m 0,0,1
 203 180 203 180 335 100 c 1,2,3
 396 65 396 65 478 65 c 128,-1,4
 560 65 560 65 641 98 c 1,5,-1
 662 32 l 1,6,7
 570 -10 570 -10 455 -10 c 0,8,9
 340 -10 340 -10 253 48 c 0,10,11
 225 66 225 66 203 89 c 0,12,13
 109 189 109 189 109 345 c 0,14,15
 109 420 109 420 135 487 c 0,16,17
 187 618 187 618 315 671 c 0,18,19
 377 697 377 697 444.5 697 c 128,-1,20
 512 697 512 697 558 688 c 128,-1,21
 604 679 604 679 653 661 c 1,22,-1
 630 593 l 1,23,24
 579 611 579 611 543.5 617 c 128,-1,25
 508 623 508 623 459 623 c 128,-1,26
 410 623 410 623 359.5 601.5 c 128,-1,27
 309 580 309 580 275 543 c 0,28,29
 203 464 203 464 203 346 c 0,0,1
EndSplineSet
EndChar

StartChar: S
Encoding: 83 83 55
Width: 599
VWidth: 1023
Flags: HW
HStem: -9 81<162.242 386.841> 622 78<230.37 485.598>
VStem: 74 91<457.824 569.074> 449 90<123.688 240.321>
LayerCount: 2
Fore
SplineSet
94 576 m 0,0,1
 161 700 161 700 354 700 c 0,2,3
 425 700 425 700 516 672 c 1,4,-1
 489 597 l 1,5,6
 402 622 402 622 333 622 c 128,-1,7
 264 622 264 622 214.5 592 c 128,-1,8
 165 562 165 562 165 511.5 c 128,-1,9
 165 461 165 461 220.5 432.5 c 128,-1,10
 276 404 276 404 332.5 387 c 128,-1,11
 389 370 389 370 419 355 c 128,-1,12
 449 340 449 340 481 317 c 0,13,14
 539 274 539 274 539 194 c 0,15,16
 539 136 539 136 501 84 c 1,17,18
 457 27 457 27 374 3 c 1,19,20
 328 -9 328 -9 269.5 -9 c 128,-1,21
 211 -9 211 -9 166 2 c 128,-1,22
 121 13 121 13 60 37 c 1,23,-1
 89 118 l 1,24,25
 213 72 213 72 284.5 72 c 128,-1,26
 356 72 356 72 402.5 102 c 128,-1,27
 449 132 449 132 449 182 c 0,28,29
 449 245 449 245 375 278 c 0,30,31
 347 291 347 291 307 304 c 128,-1,32
 267 317 267 317 224 333 c 128,-1,33
 181 349 181 349 149 368 c 128,-1,34
 117 387 117 387 95.5 420.5 c 128,-1,35
 74 454 74 454 74 496.5 c 128,-1,36
 74 539 74 539 94 576 c 0,0,1
EndSplineSet
EndChar

StartChar: at
Encoding: 64 64 56
Width: 1025
VWidth: 1023
Flags: HW
HStem: -169 67<579.952 670> -11 69<446.268 596.665 726.909 827.977> 417 63<459.27 633.792> 616 68<403.194 682.67>
VStem: 77 86<98.3564 373.277> 297 88<124.575 335.179> 635 77<88.3315 407.31> 881 83<145.774 416.849>
LayerCount: 2
Back
SplineSet
645.996 472.656 m 5,0,-1
 701.172 472.656 l 1,1,-1
 699.707 123.047 l 2,2,3
 699.704238129 122.393664131 699.704238129 122.393664131 699.698358422 121.086829595 c 0
 699.589203869 96.8259390536 699.589203869 96.8259390536 700.669 84.7549 c 0,4,5
 701.269753769 78.0390746733 701.269753769 78.0390746733 702.304337958 72.0387003145 c 0
 703.338922147 66.0383259557 703.338922147 66.0383259557 705.189662042 59.6640996855 c 0
 707.040401937 53.2898734152 707.040401937 53.2898734152 709.595 47.6797 c 0,6,7
 718.208295375 28.7639725422 718.208295375 28.7639725422 733.906 18.75 c 0,8,9
 750.694175633 8.03640906547 750.694175633 8.03640906547 770.508 10.2539 c 0,10,11
 782.800617084 11.62945472 782.800617084 11.62945472 794.250799302 18.0004588849 c 0
 805.700981521 24.3714630498 805.700981521 24.3714630498 815.43 34.1797 c 0,12,13
 833.323127389 52.2176758695 833.323127389 52.2176758695 846.68 80.5664 c 0,14,15
 877.875464179 146.778280361 877.875464179 146.778280361 876.465 261.719 c 0,16,17
 875.585347517 333.791067661 875.585347517 333.791067661 861.777 387.906 c 0,18,19
 853.612624813 419.890783607 853.612624813 419.890783607 839.608774188 448.65058573 c 0
 825.604923562 477.410387852 825.604923562 477.410387852 805.664 500.977 c 0,20,21
 769.776674832 543.388761186 769.776674832 543.388761186 715.332 568.848 c 0,22,23
 640.638596372 603.775110762 640.638596372 603.775110762 541.016 604.492 c 0,24,25
 519.411450585 604.646044771 519.411450585 604.646044771 498.608098084 603.048618611 c 0
 477.804745584 601.451192452 477.804745584 601.451192452 456.493061916 597.745861389 c 0
 435.181378247 594.040530325 435.181378247 594.040530325 415.231938084 588.324538611 c 0
 395.282497921 582.608546897 395.282497921 582.608546897 375.510901916 574.220981389 c 0
 355.73930591 565.83341588 355.73930591 565.83341588 337.891 555.176 c 0,26,27
 294.393802227 529.202926985 294.393802227 529.202926985 260.826131044 488.780754468 c 0
 227.258459862 448.358581952 227.258459862 448.358581952 206.543 399.414 c 0,28,29
 170.233019656 313.624419524 170.233019656 313.624419524 170.41 212.891 c 0,30,31
 170.640188827 82.0261313181 170.640188827 82.0261313181 234.863 -7.8125 c 0,32,33
 280.101964843 -71.0969131742 280.101964843 -71.0969131742 351.562 -105.957 c 0,34,35
 450.509225647 -154.225948693 450.509225647 -154.225948693 558.594 -133.301 c 0,36,37
 600.664876193 -125.154305629 600.664876193 -125.154305629 639.16 -106.445 c 1,38,-1
 669.922 -164.551 l 1,39,40
 630.780101062 -184.79748349 630.780101062 -184.79748349 587.891 -195.801 c 0,41,42
 461.41591496 -228.249719144 461.41591496 -228.249719144 330.078 -181.641 c 0,43,44
 222.497843869 -143.460917658 222.497843869 -143.460917658 162.109 -63.9648 c 0,45,46
 142.174340977 -37.7217166471 142.174340977 -37.7217166471 127.775928212 -7.0850259052 c 0
 113.377515447 23.5516648367 113.377515447 23.5516648367 104.591 56.9668 c 0,47,48
 88.9745402895 116.361561233 88.9745402895 116.361561233 88.3789 190.43 c 0,49,50
 87.3360899963 319.998483794 87.3360899963 319.998483794 126.465 421.875 c 0,51,52
 151.729121607 487.654666204 151.729121607 487.654666204 197.583208736 541.418916578 c 0
 243.437295865 595.183166952 243.437295865 595.183166952 303.711 627.441 c 0,53,54
 408.081530937 683.298083484 408.081530937 683.298083484 557.617 683.105 c 0,55,56
 581.244769172 683.07475174 581.244769172 683.07475174 603.555596666 681.561386772 c 0
 625.86642416 680.048021804 625.86642416 680.048021804 648.622872084 676.805628853 c 0
 671.379320008 673.563235903 671.379320008 673.563235903 693.849034166 668.043418022 c 0
 716.318748324 662.52360014 716.318748324 662.52360014 737.305 654.897 c 0,57,58
 829.396386261 621.431152657 829.396386261 621.431152657 883.301 549.316 c 0,59,60
 925.518905127 492.843405824 925.518905127 492.843405824 943.56 411.642 c 0,61,62
 951.389155113 376.382896941 951.389155113 376.382896941 954.889934302 338.937707562 c 0
 958.390713491 301.492518182 958.390713491 301.492518182 958.496 261.23 c 0,63,64
 958.679290098 192.248432156 958.679290098 192.248432156 948.042 139.947 c 0,65,66
 941.643440059 108.466337998 941.643440059 108.466337998 930.400770901 80.1130546204 c 0
 919.158101744 51.7597712432 919.158101744 51.7597712432 902.344 27.832 c 0,67,68
 877.061936034 -8.14457822443 877.061936034 -8.14457822443 842.124 -29.7979 c 0,69,70
 804.385849578 -53.1914578455 804.385849578 -53.1914578455 763.184 -55.6641 c 0,71,72
 731.231105521 -57.5806760656 731.231105521 -57.5806760656 703.364 -46.2334 c 0,73,74
 674.215388641 -34.3622832255 674.215388641 -34.3622832255 654.858 -10.2246 c 0,75,76
 636.295632378 12.9249347773 636.295632378 12.9249347773 629.443 44.6934 c 0,77,78
 624.877412485 65.8601955751 624.877412485 65.8601955751 625 105.469 c 2,79,-1
 625.977 414.551 l 1,80,-1
 645.996 472.656 l 5,0,-1
540.039 468.75 m 4,81,82
 578.633559036 464.714517377 578.633559036 464.714517377 616.211 449.219 c 0,83,84
 637.250606407 440.539730571 637.250606407 440.539730571 656.738 428.711 c 1,85,-1
 631.348 385.254 l 1,86,87
 609.1410326 395.580528164 609.1410326 395.580528164 585.938 401.855 c 0,88,89
 537.133633206 415.057658429 537.133633206 415.057658429 495.117 407.715 c 0,90,91
 463.303342085 402.154437667 463.303342085 402.154437667 437.744 385.189 c 0,92,93
 411.785755491 367.96279459 411.785755491 367.96279459 395.02 340.82 c 0,94,95
 385.452943743 325.333064247 385.452943743 325.333064247 379.235513753 306.952637301 c 0
 373.018083764 288.572210354 373.018083764 288.572210354 370.37981958 270.515362699 c 0
 367.741555396 252.458515045 367.741555396 252.458515045 367.676 232.91 c 0,96,97
 367.471269074 171.972939611 367.471269074 171.972939611 392.09 128.906 c 0,98,99
 395.602666492 122.76157791 395.602666492 122.76157791 399.713358175 116.95104029 c 0
 403.824049859 111.140502669 403.824049859 111.140502669 408.436600158 105.778013877 c 0
 413.049150458 100.415525086 413.049150458 100.415525086 418.183534101 95.4819652896 c 0
 423.317917744 90.5484054935 423.317917744 90.5484054935 428.85308164 86.1571472104 c 0
 434.388245535 81.7658889274 434.388245535 81.7658889274 440.370710027 77.8986569562 c 0
 446.353174519 74.0314249851 446.353174519 74.0314249851 452.637 70.8008 c 0,100,101
 492.725242226 50.1895553277 492.725242226 50.1895553277 541.504 53.7109 c 0,102,103
 612.723341718 58.850704952 612.723341718 58.850704952 667.48 108.887 c 1,104,-1
 685.059 65.4297 l 1,105,106
 650.302503097 32.3981170233 650.302503097 32.3981170233 605.971293382 12.7879770867 c 0
 561.640083667 -6.82216284991 561.640083667 -6.82216284991 514.648 -9.27734 c 0,107,108
 461.145975789 -12.0722459205 461.145975789 -12.0722459205 415.332 7.93262 c 0,109,110
 367.435798317 28.84752083 367.435798317 28.84752083 336.914 70.8008 c 0,111,112
 292.745528713 131.51193429 292.745528713 131.51193429 293.457 223.145 c 0,113,114
 293.830138085 271.30803354 293.830138085 271.30803354 306.937 313.998 c 0,115,116
 313.868790346 336.577830375 313.868790346 336.577830375 324.562491325 357.109758863 c 0
 335.256192305 377.64168735 335.256192305 377.64168735 349.609 395.02 c 0,117,118
 382.374229188 434.689047079 382.374229188 434.689047079 430.176 454.102 c 0,119,120
 481.357429805 474.886314435 481.357429805 474.886314435 540.039 468.75 c 4,81,82
EndSplineSet
Fore
SplineSet
650 54 m 1,0,1
 593 -11 593 -11 506 -11 c 0,2,3
 444 -11 444 -11 394 20 c 0,4,5
 297 82 297 82 297 224 c 0,6,7
 297 346 297 346 364.5 413 c 128,-1,8
 432 480 432 480 532 480 c 0,9,10
 589 480 589 480 652 455 c 1,11,-1
 660 475 l 1,12,-1
 712 475 l 1,13,-1
 712 146 l 2,14,15
 712 80 712 80 745 63 c 0,16,17
 758 56 758 56 778 56 c 0,18,19
 818 56 818 56 849 109 c 1,20,21
 881 167 881 167 881 280 c 128,-1,22
 881 393 881 393 832 473 c 0,23,24
 746 616 746 616 540 616 c 0,25,26
 373 616 373 616 268 511 c 0,27,28
 220 463 220 463 191.5 392.5 c 128,-1,29
 163 322 163 322 163 246 c 0,30,31
 163 96 163 96 234 2 c 0,32,33
 303 -88 303 -88 419 -117 c 0,34,35
 465 -128 465 -128 514 -129 c 0,36,37
 589 -129 589 -129 670 -102 c 1,38,-1
 670 -169 l 1,39,40
 574 -199 574 -199 488 -199 c 0,41,42
 426 -200 426 -200 370 -184 c 0,43,44
 236 -148 236 -148 156.5 -36 c 128,-1,45
 77 76 77 76 77 236 c 0,46,47
 78 334 78 334 112 418 c 0,48,49
 180 583 180 583 355 651 c 0,50,51
 441 684 441 684 523 684 c 0,52,53
 671 684 671 684 759 640 c 0,54,55
 888 574 888 574 934 450 c 1,56,57
 964 374 964 374 964 301 c 0,58,59
 964 119 964 119 876 38 c 0,60,61
 824 -11 824 -11 765 -11 c 0,62,63
 683 -11 683 -11 650 54 c 1,0,1
636 111 m 1,64,-1
 635 123 l 1,65,-1
 635 400 l 1,66,67
 591 417 591 417 541 417 c 0,68,69
 469 417 469 417 427 366 c 128,-1,70
 385 315 385 315 385 231.5 c 128,-1,71
 385 148 385 148 421 103 c 128,-1,72
 457 58 457 58 524 58 c 0,73,74
 568 58 568 58 595 75 c 128,-1,75
 622 92 622 92 636 111 c 1,64,-1
EndSplineSet
EndChar

StartChar: question
Encoding: 63 63 57
Width: 510
VWidth: 1023
Flags: HW
HStem: 0 98<152 250> 632 70<77.4705 293.883>
VStem: 152 98<0 98> 159 83<191 281.203> 347 81<451.131 586.181>
LayerCount: 2
Fore
SplineSet
152 98 m 1,0,-1
 250 98 l 1,1,-1
 250 0 l 1,2,-1
 152 0 l 1,3,-1
 152 98 l 1,0,-1
179 632 m 0,4,5
 128 632 128 632 74 609 c 1,6,-1
 49 668 l 1,7,8
 118 702 118 702 214 702 c 0,9,10
 310 702 310 702 369 660 c 128,-1,11
 428 618 428 618 428 538 c 0,12,13
 428 458 428 458 391 412 c 0,14,15
 377 394 377 394 354 373 c 2,16,-1
 315 339 l 2,17,18
 270 300 270 300 256 264 c 0,19,20
 242 228 242 228 242 191 c 1,21,-1
 159 191 l 1,22,23
 159 274 159 274 191 317 c 0,24,25
 223 360 223 360 258 389 c 1,26,27
 295 418 295 418 310 433 c 0,28,29
 347 469 347 469 347 522 c 0,30,31
 347 632 347 632 179 632 c 0,4,5
EndSplineSet
EndChar

StartChar: eight
Encoding: 56 56 58
Width: 634
VWidth: 1023
Flags: HMW
HStem: 0 73<230.774 410.633> 340 65 620 73<238.786 398.022>
VStem: 73 85<129.825 268.901> 112 82<480.306 590.868> 442 80<475.656 591.023> 476 86<123.881 267.459>
LayerCount: 2
Fore
SplineSet
424 587 m 0,0,1
 390 633 390 633 306 633 c 1,2,3
 264 633 264 633 229 604 c 128,-1,4
 194 575 194 575 194 536 c 0,5,6
 194 463 194 463 310 426 c 0,7,8
 322 422 322 422 329 420 c 2,9,-1
 341 416 l 1,10,11
 407 458 407 458 424.5 481 c 128,-1,12
 442 504 442 504 442 533.5 c 128,-1,13
 442 563 442 563 424 587 c 0,0,1
303 354 m 1,14,15
 236 335 236 335 197 291.5 c 128,-1,16
 158 248 158 248 158 195.5 c 128,-1,17
 158 143 158 143 204 103 c 128,-1,18
 250 63 250 63 320.5 63 c 128,-1,19
 391 63 391 63 433.5 100.5 c 128,-1,20
 476 138 476 138 476 194 c 0,21,22
 476 311 476 311 303 354 c 1,14,15
212 386 m 1,23,24
 112 436 112 436 112 545 c 0,25,26
 112 569 112 569 125.5 599 c 128,-1,27
 139 629 139 629 166 653 c 0,28,29
 222 703 222 703 319 703 c 128,-1,30
 416 703 416 703 469 658 c 128,-1,31
 522 613 522 613 522 534 c 0,32,33
 522 490 522 490 499 456.5 c 128,-1,34
 476 423 476 423 424 387 c 1,35,36
 495 355 495 355 528.5 306.5 c 128,-1,37
 562 258 562 258 562 196 c 128,-1,38
 562 134 562 134 521 81 c 0,39,40
 452 -10 452 -10 320 -10 c 0,41,42
 252 -10 252 -10 195.5 15 c 128,-1,43
 139 40 139 40 106 87 c 128,-1,44
 73 134 73 134 73 191 c 128,-1,45
 73 248 73 248 110 301.5 c 128,-1,46
 147 355 147 355 212 386 c 1,23,24
EndSplineSet
EndChar

StartChar: nine
Encoding: 57 57 59
Width: 634
VWidth: 1023
Flags: HMW
HStem: 0 73<137 174.297> 256 65<239.089 398.008> 620 73
VStem: 470 82<394.829 547.695>
LayerCount: 2
Fore
SplineSet
319 704 m 128,-1,1
 406 704 406 704 458.5 660.5 c 128,-1,2
 511 617 511 617 530.5 557.5 c 128,-1,3
 550 498 550 498 552 414 c 0,4,5
 552 409 552 409 552 404 c 0,6,7
 552 324 552 324 532 240 c 0,8,9
 510 150 510 150 458 95 c 0,10,11
 363 -7 363 -7 188 -7 c 0,12,13
 181 -7 181 -7 175 -7 c 0,14,15
 152 -7 152 -7 131 -4 c 1,16,-1
 137 68 l 1,17,18
 167 65 167 65 194 65 c 0,19,20
 332 65 332 65 398 142 c 1,21,22
 437 189 437 189 450 262 c 1,23,24
 456 308 456 308 458 320 c 1,25,26
 432 292 432 292 390.5 274 c 128,-1,27
 349 256 349 256 299 256 c 0,28,29
 196 258 196 258 138 324 c 0,30,31
 84 386 84 386 84 468 c 0,32,33
 84 474 84 474 84 479 c 1,34,35
 90 577 90 577 161 642 c 1,36,0
 232 704 232 704 319 704 c 128,-1,1
377 619 m 0,37,38
 345 636 345 636 314 636 c 0,39,40
 285 636 285 636 257 622 c 1,41,42
 232 611 232 611 209 586 c 0,43,44
 167 541 167 541 164 484 c 0,45,46
 164 480 164 480 164 476 c 0,47,48
 164 424 164 424 198 381 c 1,49,50
 244 325 244 325 312 324 c 0,51,52
 315 324 315 324 317 324 c 0,53,54
 381 324 381 324 426 367 c 0,55,56
 470 411 470 411 470 468 c 0,57,58
 470 528 470 528 427 579 c 0,59,60
 404 605 404 605 377 619 c 0,37,38
EndSplineSet
EndChar

StartChar: six
Encoding: 54 54 60
Width: 634
VWidth: 1023
Flags: HMW
HStem: 0 73<246.743 392.767> 620 73<312.016 497>
VStem: 83 81<146.101 314.54>
LayerCount: 2
Fore
SplineSet
173 388 m 1,0,1
 233 454 233 454 333 454 c 0,2,3
 334 454 334 454 336 454 c 0,4,5
 438 453 438 453 496 386 c 0,6,7
 550 324 550 324 550 236 c 0,8,9
 550 229 550 229 550 222 c 1,10,11
 544 119 544 119 473 50 c 1,12,13
 405 -12 405 -12 316 -12 c 128,-1,14
 227 -12 227 -12 175 31 c 128,-1,15
 123 74 123 74 104 132 c 128,-1,16
 85 190 85 190 83 267 c 0,17,18
 83 276 83 276 83 284 c 0,19,20
 83 607 83 607 307 679 c 0,21,22
 371 700 371 700 443 700 c 0,23,24
 473 700 473 700 503 696 c 1,25,-1
 497 624 l 1,26,27
 468 627 468 627 442 627 c 0,28,29
 369 627 369 627 312 603 c 1,30,31
 209 561 209 561 182 440 c 0,32,33
 178 422 178 422 173 388 c 1,0,1
384 371 m 0,34,35
 351 387 351 387 317 387 c 0,36,37
 289 387 289 387 259 376 c 1,38,39
 232 367 232 367 208 344 c 1,40,41
 164 298 164 298 164 233 c 0,42,43
 164 165 164 165 210 110 c 0,44,45
 255 56 255 56 318 56 c 128,-1,46
 381 56 381 56 423.5 104.5 c 128,-1,47
 466 153 466 153 470 217 c 0,48,49
 470 223 470 223 470 229 c 0,50,51
 470 286 470 286 436 330 c 0,52,53
 414 357 414 357 384 371 c 0,34,35
EndSplineSet
EndChar

StartChar: seven
Encoding: 55 55 61
Width: 634
VWidth: 0
Flags: HMW
HStem: 0 20<150 257.093> 620 73<64 469>
LayerCount: 2
Fore
SplineSet
571 694 m 1,0,-1
 571 642 l 1,1,-1
 247 0 l 1,2,-1
 150 0 l 1,3,-1
 469 616 l 1,4,-1
 64 616 l 1,5,-1
 64 694 l 1,6,-1
 571 694 l 1,0,-1
EndSplineSet
EndChar

StartChar: five
Encoding: 53 53 62
Width: 634
VWidth: 1023
Flags: HMW
HStem: 0 73<98.4865 320.784> 620 73<194 533>
VStem: 115 80<431 621> 467 88<140.771 289.085>
LayerCount: 2
Fore
SplineSet
115 694 m 1,0,-1
 533 694 l 1,1,-1
 533 621 l 1,2,-1
 194 621 l 1,3,-1
 195 431 l 1,4,5
 253 437 253 437 297 437 c 0,6,7
 337 437 337 437 366 432 c 0,8,9
 489 410 489 410 535 314 c 1,10,11
 555 268 555 268 555 222 c 0,12,13
 555 117 555 117 477 52 c 0,14,15
 428 12 428 12 372 1 c 0,16,17
 318 -10 318 -10 254 -10 c 0,18,19
 176 -10 176 -10 84 7 c 1,20,-1
 100 81 l 1,21,22
 181 64 181 64 248 64 c 0,23,24
 291 64 291 64 329 71 c 0,25,26
 374 79 374 79 408 103 c 0,27,28
 468 146 468 146 469 213 c 0,29,30
 469 224 469 224 467 236 c 0,31,32
 462 280 462 280 426 312 c 0,33,34
 369 364 369 364 263 364 c 0,35,36
 251 364 251 364 238 363 c 0,37,38
 189 360 189 360 115 352 c 1,39,-1
 115 694 l 1,0,-1
EndSplineSet
EndChar

StartChar: two
Encoding: 50 50 63
Width: 634
VWidth: 0
Flags: HMW
HStem: 0 73<211 553> 620 73<190.926 386.181>
LayerCount: 2
Fore
SplineSet
97 644 m 1,0,1
 204 696 204 696 314 698 c 0,2,3
 317 698 317 698 319 699 c 0,4,5
 425 699 425 699 490 636 c 1,6,7
 540 586 540 586 540 522 c 0,8,9
 540 512 540 512 539 502 c 0,10,11
 533 453 533 453 504.5 416 c 128,-1,12
 476 379 476 379 432.5 342 c 128,-1,13
 389 305 389 305 350 272 c 1,14,15
 284 214 284 214 255 166 c 128,-1,16
 226 118 226 118 211 73 c 1,17,-1
 553 73 l 1,18,-1
 553 0 l 1,19,-1
 110 0 l 1,20,-1
 110 45 l 1,21,22
 143 149 143 149 215 239 c 1,23,24
 273 310 273 310 357 376 c 1,25,-1
 398 410 l 1,26,27
 443 449 443 449 450 479 c 0,28,29
 454 493 454 493 454 506 c 0,30,31
 454 548 454 548 417 584 c 0,32,33
 372 628 372 628 300 627 c 0,34,35
 295 627 295 627 291 627 c 0,36,37
 255 626 255 626 195 607 c 2,38,-1
 116 582 l 1,39,-1
 97 644 l 1,0,1
EndSplineSet
EndChar

StartChar: three
Encoding: 51 51 64
Width: 634
VWidth: 1023
Flags: HMW
HStem: 0 73<133.98 367.562> 334 71<230 346.149> 620 73<174.692 372.029>
VStem: 422 84<465.729 582.069> 452 84<126.258 262.359>
LayerCount: 2
Fore
SplineSet
399 380 m 1,0,1
 536 341 536 341 536 213 c 0,2,3
 536 107 536 107 459.5 42.5 c 128,-1,4
 383 -22 383 -22 267 -22 c 2,5,-1
 265 -22 l 2,6,7
 179 -22 179 -22 86 16 c 1,8,-1
 109 83 l 1,9,10
 209 55 209 55 276.5 55 c 128,-1,11
 344 55 344 55 398 94 c 128,-1,12
 452 133 452 133 452 197 c 128,-1,13
 452 261 452 261 388 301 c 0,14,15
 335 334 335 334 240 334 c 2,16,-1
 230 334 l 1,17,-1
 230 405 l 1,18,19
 353 410 353 410 398 463 c 0,20,21
 422 491 422 491 422 529 c 128,-1,22
 422 567 422 567 385 597 c 128,-1,23
 348 627 348 627 282.5 627 c 128,-1,24
 217 627 217 627 127 586 c 1,25,-1
 100 652 l 1,26,27
 202 702 202 702 294 702 c 128,-1,28
 386 702 386 702 446 655.5 c 128,-1,29
 506 609 506 609 506 538 c 0,30,31
 506 484 506 484 477 441 c 128,-1,32
 448 398 448 398 399 380 c 1,0,1
EndSplineSet
EndChar

StartChar: one
Encoding: 49 49 65
Width: 634
VWidth: 0
Flags: HW
HStem: 0 73<143 306 386 547> 674 20G<241.304 386>
VStem: 306 80<73 614>
LayerCount: 2
Fore
SplineSet
290 694 m 1,0,-1
 386 694 l 1,1,-1
 386 73 l 1,2,-1
 547 73 l 1,3,-1
 547 0 l 1,4,-1
 143 0 l 1,5,-1
 143 73 l 1,6,-1
 306 73 l 1,7,-1
 306 614 l 1,8,-1
 153 554 l 1,9,-1
 122 625 l 1,10,-1
 290 694 l 1,0,-1
EndSplineSet
EndChar

StartChar: zero
Encoding: 48 48 66
Width: 634
VWidth: 1023
Flags: HMW
HStem: 0 73<244.479 391.192> 620 73<241.293 393.906>
VStem: 54 82<203.708 498.348> 498 83<201.979 492.75>
LayerCount: 2
Fore
SplineSet
404 599 m 0,0,1
 366 628 366 628 324 628 c 0,2,3
 321 628 321 628 319 628 c 1,4,5
 232 628 232 628 182 550 c 0,6,7
 135 477 135 477 136 361 c 0,8,9
 136 354 136 354 136 347 c 0,10,11
 140 154 140 154 239 88 c 0,12,13
 276 63 276 63 319.5 63 c 128,-1,14
 363 63 363 63 399 90 c 0,15,16
 495 161 495 161 498 343 c 0,17,18
 498 348 498 348 498 354 c 0,19,20
 498 527 498 527 404 599 c 0,0,1
54 343 m 0,21,22
 54 349 54 349 54 356 c 0,23,24
 54 518 54 518 128 610 c 0,25,26
 203 703 203 703 318 703 c 0,27,28
 322 703 322 703 325 703 c 0,29,30
 382 701 382 701 433 673 c 0,31,32
 581 590 581 590 581 355 c 0,33,34
 581 349 581 349 581 343 c 0,35,36
 578 175 578 175 503 82 c 0,37,38
 469 39 469 39 420 14.5 c 128,-1,39
 371 -10 371 -10 317 -10 c 128,-1,40
 263 -10 263 -10 213 16 c 0,41,42
 108 70 108 70 72 208 c 0,43,44
 56 269 56 269 54 343 c 0,21,22
EndSplineSet
EndChar

StartChar: four
Encoding: 52 52 67
Width: 634
VWidth: 0
Flags: HW
HStem: 0 21G<375 455> 168 73<154 375 455 576> 674 20G<327.11 455>
VStem: 375 80<0 168 241 615>
LayerCount: 2
Fore
SplineSet
339 694 m 1,0,-1
 455 694 l 1,1,-1
 455 241 l 1,2,-1
 576 241 l 1,3,-1
 576 168 l 1,4,-1
 455 168 l 1,5,-1
 455 0 l 1,6,-1
 375 0 l 1,7,-1
 375 168 l 1,8,-1
 59 168 l 1,9,-1
 59 223 l 1,10,-1
 339 694 l 1,0,-1
375 241 m 1,11,-1
 375 615 l 1,12,-1
 154 241 l 1,13,-1
 375 241 l 1,11,-1
EndSplineSet
EndChar

StartChar: period
Encoding: 46 46 68
Width: 278
VWidth: 1023
Flags: HW
HStem: 0 103<88 190>
VStem: 88 102<0 103>
LayerCount: 2
Fore
SplineSet
88 103 m 1,0,-1
 190 103 l 1,1,-1
 190 0 l 1,2,-1
 88 0 l 1,3,-1
 88 103 l 1,0,-1
EndSplineSet
EndChar

StartChar: comma
Encoding: 44 44 69
Width: 278
VWidth: 1023
Flags: HW
HStem: -107 190<98 108>
VStem: 21 165
LayerCount: 2
Fore
SplineSet
98 83 m 1,0,-1
 186 83 l 1,1,-1
 108 -107 l 1,2,-1
 21 -107 l 1,3,-1
 98 83 l 1,0,-1
EndSplineSet
EndChar

StartChar: bracketleft
Encoding: 91 91 70
Width: 370
VWidth: 1023
Flags: HW
HStem: -200 73<202 346> 665 73<202 346>
VStem: 122 224<-200 -127 665 738> 122 80<-127 665>
LayerCount: 2
Back
SplineSet
159.668 737.793 m 5,0,-1
 345.703 737.793 l 1,1,-1
 345.703 665.039 l 1,2,-1
 159.668 665.039 l 1,3,-1
 159.668 737.793 l 5,0,-1
159.668 -127.441 m 5,4,-1
 345.703 -127.441 l 1,5,-1
 345.703 -200.195 l 1,6,-1
 159.668 -200.195 l 1,7,-1
 159.668 -127.441 l 5,4,-1
122.07 737.793 m 5,8,-1
 202.148 737.793 l 1,9,-1
 202.148 -200.195 l 1,10,-1
 122.07 -200.195 l 1,11,-1
 122.07 737.793 l 5,8,-1
EndSplineSet
Fore
SplineSet
346 -200 m 1,0,-1
 122 -200 l 1,1,-1
 122 738 l 1,2,-1
 346 738 l 1,3,-1
 346 665 l 1,4,-1
 202 665 l 1,5,-1
 202 -127 l 1,6,-1
 346 -127 l 1,7,-1
 346 -200 l 1,0,-1
EndSplineSet
EndChar

StartChar: bracketright
Encoding: 93 93 71
Width: 370
VWidth: 1023
Flags: HW
HStem: -200 73<24 168> 665 73<24 168>
VStem: 24 224<-200 -127 665 738> 168 80<-127 665>
LayerCount: 2
Fore
SplineSet
248 -200 m 1,0,-1
 24 -200 l 1,1,-1
 24 -127 l 1,2,-1
 168 -127 l 1,3,-1
 168 665 l 1,4,-1
 24 665 l 1,5,-1
 24 738 l 1,6,-1
 248 738 l 1,7,-1
 248 -200 l 1,0,-1
EndSplineSet
EndChar

StartChar: parenleft
Encoding: 40 40 72
Width: 362
VWidth: 1023
Flags: HW
VStem: 107 86<110.326 451.77>
LayerCount: 2
Fore
SplineSet
259 756 m 1,0,-1
 323 722 l 1,1,2
 260 618 260 618 226 502 c 0,3,4
 192 386 192 386 193 281 c 0,5,6
 193 175 193 175 226 60 c 0,7,8
 259 -55 259 -55 323 -158 c 1,9,-1
 260 -199 l 1,10,11
 187 -80 187 -80 147 44 c 0,12,13
 107 168 107 168 107 282 c 0,14,15
 107 510 107 510 259 756 c 1,0,-1
EndSplineSet
EndChar

StartChar: parenright
Encoding: 41 41 73
Width: 362
VWidth: 1023
Flags: HW
VStem: 169 86<106.748 451.831>
LayerCount: 2
Fore
SplineSet
104 756 m 1,0,1
 255 508 255 508 255 281 c 0,2,3
 255 163 255 163 213 39 c 128,-1,4
 171 -85 171 -85 102 -199 c 1,5,-1
 39 -158 l 1,6,7
 169 56 169 56 169 281 c 0,8,9
 169 387 169 387 135.5 502.5 c 128,-1,10
 102 618 102 618 39 722 c 1,11,-1
 104 756 l 1,0,1
EndSplineSet
EndChar

StartChar: slash
Encoding: 47 47 74
Width: 354
VWidth: 1023
Flags: HW
HStem: 674 20G<255.442 345>
VStem: 20 325
LayerCount: 2
Fore
SplineSet
262 694 m 1,0,-1
 345 694 l 1,1,-1
 103 -44 l 1,2,-1
 20 -44 l 1,3,-1
 262 694 l 1,0,-1
EndSplineSet
EndChar

StartChar: backslash
Encoding: 92 92 75
Width: 354
VWidth: 1023
Flags: HW
HStem: 674 20G<10 99.5583>
VStem: 10 325
LayerCount: 2
Fore
SplineSet
10 694 m 1,0,-1
 93 694 l 1,1,-1
 335 -44 l 1,2,-1
 252 -44 l 1,3,-1
 10 694 l 1,0,-1
EndSplineSet
EndChar

StartChar: plus
Encoding: 43 43 76
Width: 683
VWidth: 1023
Flags: HW
HStem: 288 67<61 306 378 623>
VStem: 306 72<41 288 355 602>
LayerCount: 2
Fore
SplineSet
306 602 m 1,0,-1
 378 602 l 1,1,-1
 378 355 l 1,2,-1
 623 355 l 1,3,-1
 623 288 l 1,4,-1
 378 288 l 1,5,-1
 378 41 l 1,6,-1
 306 41 l 1,7,-1
 306 288 l 1,8,-1
 61 288 l 1,9,-1
 61 355 l 1,10,-1
 306 355 l 1,11,-1
 306 602 l 1,0,-1
EndSplineSet
EndChar

StartChar: asterisk
Encoding: 42 42 77
Width: 583
VWidth: 1023
Flags: HW
HStem: 673 20G<250 333>
LayerCount: 2
Fore
SplineSet
250 693 m 1,0,-1
 333 693 l 1,1,-1
 325 538 l 1,2,-1
 455 624 l 1,3,-1
 496 551 l 1,4,-1
 357 481 l 1,5,-1
 496 412 l 1,6,-1
 455 339 l 1,7,-1
 325 425 l 1,8,-1
 333 270 l 1,9,-1
 250 270 l 1,10,-1
 259 425 l 1,11,-1
 129 339 l 1,12,-1
 88 412 l 1,13,-1
 227 481 l 1,14,-1
 88 551 l 1,15,-1
 129 624 l 1,16,-1
 259 538 l 1,17,-1
 250 693 l 1,0,-1
EndSplineSet
EndChar

StartChar: numbersign
Encoding: 35 35 78
Width: 684
VWidth: 1023
Flags: HW
HStem: 185 73<23 177 255 430 508 663> 430 73<22 177 255 430 508 663> 674 20G<177 255 430 508>
VStem: 177 78<-15 185 258 430 503 694> 430 78<-15 185 258 430 503 694>
LayerCount: 2
Fore
SplineSet
177 694 m 1,0,-1
 255 694 l 1,1,-1
 255 503 l 1,2,-1
 430 503 l 1,3,-1
 430 694 l 1,4,-1
 508 694 l 1,5,-1
 508 503 l 1,6,-1
 663 503 l 1,7,-1
 663 430 l 1,8,-1
 508 430 l 1,9,-1
 508 258 l 1,10,-1
 663 258 l 1,11,-1
 663 185 l 1,12,-1
 508 185 l 1,13,-1
 508 -15 l 1,14,-1
 430 -15 l 1,15,-1
 430 185 l 1,16,-1
 255 185 l 1,17,-1
 255 -15 l 1,18,-1
 177 -15 l 1,19,-1
 177 185 l 1,20,-1
 23 185 l 1,21,-1
 23 258 l 1,22,-1
 177 258 l 1,23,-1
 177 430 l 1,24,-1
 22 430 l 1,25,-1
 22 503 l 1,26,-1
 177 503 l 1,27,-1
 177 694 l 1,0,-1
255 258 m 1,28,-1
 430 258 l 1,29,-1
 430 430 l 1,30,-1
 255 430 l 1,31,-1
 255 258 l 1,28,-1
EndSplineSet
EndChar

StartChar: dollar
Encoding: 36 36 79
Width: 585
VWidth: 1023
Flags: HW
HStem: 110 63<164.097 270> 548 63<329.377 435.944>
VStem: 123 83<440.019 522.684> 270 59<-32 110 611 738> 397 88<199.495 285.46>
LayerCount: 2
Fore
SplineSet
355 611 m 1,0,-1
 387 608 l 2,1,2
 391 608 391 608 397.5 606.5 c 128,-1,3
 404 605 404 605 412.5 603.5 c 128,-1,4
 421 602 421 602 425 601 c 2,5,-1
 436 598 l 1,6,-1
 446 594 l 2,7,8
 454 592 454 592 458 591 c 1,9,-1
 438 530 l 1,10,11
 372 548 372 548 331 548 c 0,12,13
 265 548 265 548 237 530 c 0,14,15
 227 524 227 524 216.5 509 c 128,-1,16
 206 494 206 494 206 474 c 0,17,18
 206 440 206 440 278 416 c 0,19,20
 374 384 374 384 408.5 367 c 128,-1,21
 443 350 443 350 464 323 c 128,-1,22
 485 296 485 296 485 270 c 128,-1,23
 485 244 485 244 480.5 224 c 128,-1,24
 476 204 476 204 460 182 c 0,25,26
 421 125 421 125 329 113 c 1,27,-1
 329 -32 l 1,28,-1
 270 -32 l 1,29,-1
 270 110 l 1,30,31
 196 112 196 112 111 146 c 1,32,-1
 133 207 l 1,33,34
 179 187 179 187 207 180 c 128,-1,35
 235 173 235 173 271 173 c 128,-1,36
 307 173 307 173 334 179 c 128,-1,37
 361 185 361 185 379 203 c 0,38,39
 397 222 397 222 397 246 c 0,40,41
 397 286 397 286 354 302 c 0,42,43
 347 305 347 305 332.5 310 c 128,-1,44
 318 315 318 315 306 319.5 c 128,-1,45
 294 324 294 324 262 334 c 0,46,47
 205 351 205 351 164 381 c 128,-1,48
 123 411 123 411 123 469 c 0,49,50
 123 532 123 532 188 576 c 1,51,52
 221 596 221 596 270 605 c 1,53,-1
 270 738 l 1,54,-1
 329 738 l 1,55,-1
 329 611 l 1,56,-1
 355 611 l 1,0,-1
EndSplineSet
EndChar

StartChar: semicolon
Encoding: 59 59 80
Width: 278
VWidth: 1023
Flags: HW
HStem: 382 103<88 190>
VStem: 88 102<382 485>
LayerCount: 2
Fore
SplineSet
88 485 m 1,0,-1
 190 485 l 1,1,-1
 190 382 l 1,2,-1
 88 382 l 1,3,-1
 88 485 l 1,0,-1
98 83 m 1,4,-1
 186 83 l 1,5,-1
 108 -107 l 1,6,-1
 21 -107 l 1,7,-1
 98 83 l 1,4,-1
EndSplineSet
EndChar

StartChar: colon
Encoding: 58 58 81
Width: 278
VWidth: 1023
Flags: HW
HStem: 0 103<88 190> 382 103<88 190>
VStem: 88 102<0 103 382 485>
LayerCount: 2
Fore
SplineSet
88 103 m 1,0,-1
 190 103 l 1,1,-1
 190 0 l 1,2,-1
 88 0 l 1,3,-1
 88 103 l 1,0,-1
88 485 m 1,4,-1
 190 485 l 1,5,-1
 190 382 l 1,6,-1
 88 382 l 1,7,-1
 88 485 l 1,4,-1
EndSplineSet
EndChar

StartChar: equal
Encoding: 61 61 82
Width: 683
VWidth: 1023
Flags: HW
HStem: 171 74<107 576> 393 73<107 576>
LayerCount: 2
Fore
SplineSet
107 466 m 1,0,-1
 576 466 l 1,1,-1
 576 393 l 1,2,-1
 107 393 l 1,3,-1
 107 466 l 1,0,-1
107 245 m 1,4,-1
 576 245 l 1,5,-1
 576 171 l 1,6,-1
 107 171 l 1,7,-1
 107 245 l 1,4,-1
EndSplineSet
EndChar

StartChar: quotedbl
Encoding: 34 34 83
Width: 388
VWidth: 1023
Flags: HW
HStem: 529 209<54 144 244 334>
VStem: 54 90<529 738> 244 90<529 738>
LayerCount: 2
Fore
SplineSet
54 738 m 1,0,-1
 144 738 l 1,1,-1
 144 529 l 1,2,-1
 54 529 l 1,3,-1
 54 738 l 1,0,-1
244 738 m 1,4,-1
 334 738 l 1,5,-1
 334 529 l 1,6,-1
 244 529 l 1,7,-1
 244 738 l 1,4,-1
EndSplineSet
EndChar

StartChar: quotesingle
Encoding: 39 39 84
Width: 197
VWidth: 1023
Flags: HW
HStem: 529 209<54 144>
VStem: 54 90<529 738>
LayerCount: 2
Fore
SplineSet
54 738 m 1,0,-1
 144 738 l 1,1,-1
 144 529 l 1,2,-1
 54 529 l 1,3,-1
 54 738 l 1,0,-1
EndSplineSet
EndChar

StartChar: underscore
Encoding: 95 95 85
Width: 566
VWidth: 1023
Flags: HW
HStem: 0 73<73 493>
LayerCount: 2
Fore
SplineSet
73 73 m 1,0,-1
 493 73 l 1,1,-1
 493 0 l 1,2,-1
 73 0 l 1,3,-1
 73 73 l 1,0,-1
EndSplineSet
EndChar

StartChar: percent
Encoding: 37 37 86
Width: 648
VWidth: 1023
Flags: HW
HStem: 0 21G<42 138.631> 27 46<435.365 526.667> 262 47<433.542 528.356> 394 45<116.357 203.882> 619 47<113.571 206.539> 674 20G<501.369 598>
VStem: 48 48<456.413 600.141> 223 48<458.867 603.13> 365 47<97.2353 239.63> 549 48<96.0068 241.745>
LayerCount: 2
Fore
SplineSet
223 519 m 128,-1,1
 223 558 223 558 216.5 577 c 128,-1,2
 210 596 210 596 196.5 607.5 c 128,-1,3
 183 619 183 619 157.5 619 c 128,-1,4
 132 619 132 619 114 599.5 c 128,-1,5
 96 580 96 580 96 543 c 0,6,7
 96 478 96 478 118 456 c 1,8,9
 137 439 137 439 160.5 439 c 128,-1,10
 184 439 184 439 203.5 459.5 c 128,-1,0
 223 480 223 480 223 519 c 128,-1,1
160 666 m 0,11,12
 239 666 239 666 263 591 c 0,13,14
 271 564 271 564 271 533 c 0,15,16
 271 469 271 469 239.5 431.5 c 128,-1,17
 208 394 208 394 160 394 c 128,-1,18
 112 394 112 394 80 427.5 c 128,-1,19
 48 461 48 461 48 528.5 c 128,-1,20
 48 596 48 596 81 631 c 128,-1,21
 114 666 114 666 160 666 c 0,11,12
503 258 m 0,22,23
 494 262 494 262 474.5 262 c 128,-1,24
 455 262 455 262 433.5 240.5 c 128,-1,25
 412 219 412 219 412 181 c 0,26,27
 412 118 412 118 435 95.5 c 128,-1,28
 458 73 458 73 482.5 73 c 128,-1,29
 507 73 507 73 528 96 c 128,-1,30
 549 119 549 119 549 170 c 0,31,32
 549 240 549 240 503 258 c 0,22,23
597 180 m 128,-1,34
 597 107 597 107 563 67 c 128,-1,35
 529 27 529 27 481.5 27 c 128,-1,36
 434 27 434 27 399.5 61.5 c 128,-1,37
 365 96 365 96 365 166 c 128,-1,38
 365 236 365 236 400.5 272.5 c 128,-1,39
 436 309 436 309 478 309 c 128,-1,40
 520 309 520 309 558.5 281 c 128,-1,33
 597 253 597 253 597 180 c 128,-1,34
515 694 m 1,41,-1
 598 694 l 1,42,-1
 125 0 l 1,43,-1
 42 0 l 1,44,-1
 515 694 l 1,41,-1
EndSplineSet
EndChar

StartChar: braceright
Encoding: 125 125 87
Width: 389
VWidth: 1023
Flags: HW
HStem: -201 63<40.3333 82.7361> 235 67<293.076 346> 675 63<40.3333 82.6609>
VStem: 27 319
CounterMasks: 1 e0
LayerCount: 2
Fore
SplineSet
27 -138 m 1,0,1
 136 -123 136 -123 149 32 c 0,2,3
 149 34 149 34 152 72 c 128,-1,4
 155 110 155 110 160.5 141.5 c 128,-1,5
 166 173 166 173 186 209 c 128,-1,6
 206 245 206 245 242 269 c 1,7,8
 172 315 172 315 157 414 c 0,9,10
 155 427 155 427 150.5 501.5 c 128,-1,11
 146 576 146 576 118 617 c 1,12,13
 87 666 87 666 27 675 c 1,14,-1
 42 738 l 1,15,16
 113 734 113 734 162 679 c 128,-1,17
 211 624 211 624 220 528 c 1,18,19
 220 500 220 500 229 433 c 0,20,21
 234 400 234 400 249 373 c 0,22,23
 282 313 282 313 346 302 c 1,24,-1
 346 235 l 1,25,26
 283 225 283 225 250 166 c 0,27,28
 232 134 232 134 229 103 c 0,29,30
 228 95 228 95 224.5 50.5 c 128,-1,31
 221 6 221 6 218.5 -16 c 128,-1,32
 216 -38 216 -38 202 -75.5 c 128,-1,33
 188 -113 188 -113 165 -139 c 0,34,35
 114 -195 114 -195 42 -201 c 1,36,-1
 27 -138 l 1,0,1
EndSplineSet
EndChar

StartChar: asciitilde
Encoding: 126 126 88
Width: 515
VWidth: 1023
Flags: HW
HStem: 281 149
LayerCount: 2
Fore
SplineSet
383 430 m 5,0,-1
 435 422 l 1,1,-1
 427 381 l 2,2,3
 418 336 418 336 404 317 c 0,4,5
 377 282 377 282 339 282 c 0,6,7
 320 282 320 282 299 290 c 0,8,9
 277 299 277 299 249 323 c 2,10,-1
 232 338 l 1,11,-1
 216 354 l 1,12,13
 198 370 198 370 181 370 c 0,14,15
 179 370 179 370 176 370 c 0,16,17
 157 368 157 368 148 346 c 0,18,19
 142 333 142 333 137 306 c 2,20,-1
 133 281 l 1,21,-1
 80 289 l 1,22,-1
 88 331 l 2,23,24
 97 376 97 376 111 395 c 0,25,26
 139 431 139 431 177 431 c 0,27,28
 196 431 196 431 217 422 c 0,29,30
 237 414 237 414 266 389 c 1,31,-1
 283 373 l 1,32,33
 313 343 313 343 335 343 c 0,34,35
 345 343 345 343 354 349 c 1,36,37
 365 358 365 358 369 368 c 128,-1,38
 373 378 373 378 378 405 c 2,39,-1
 383 430 l 5,0,-1
EndSplineSet
EndChar

StartChar: grave
Encoding: 96 96 89
Width: 547
VWidth: 1023
Flags: HW
HStem: 570 204
VStem: 134 281
LayerCount: 2
Fore
SplineSet
168 774 m 1,0,-1
 415 623 l 1,1,-1
 384 570 l 1,2,-1
 134 714 l 1,3,-1
 168 774 l 1,0,-1
EndSplineSet
EndChar

StartChar: asciicircum
Encoding: 94 94 90
Width: 722
VWidth: 1023
Flags: HW
HStem: 537 215
VStem: 186 326
LayerCount: 2
Fore
SplineSet
354 752 m 1,0,-1
 512 580 l 1,1,-1
 467 537 l 1,2,-1
 348 666 l 1,3,-1
 229 540 l 1,4,-1
 186 578 l 1,5,-1
 354 752 l 1,0,-1
EndSplineSet
EndChar

StartChar: ampersand
Encoding: 38 38 91
Width: 775
VWidth: 1023
Flags: HW
HStem: 0 21G<590.612 709>
LayerCount: 2
Fore
SplineSet
335 703 m 0,0,1
 338 703 338 703 341 703 c 0,2,3
 458 703 458 703 496 626 c 0,4,5
 507 604 507 604 507 575 c 0,6,7
 507 563 507 563 505 551 c 0,8,9
 499 507 499 507 452 458 c 1,10,-1
 437 443 l 1,11,12
 425 433 425 433 418 427 c 2,13,-1
 355 377 l 1,14,-1
 525 196 l 1,15,-1
 683 368 l 1,16,-1
 729 322 l 1,17,-1
 571 147 l 1,18,-1
 709 0 l 1,19,-1
 610 0 l 1,20,-1
 515 98 l 1,21,22
 462 47 462 47 435 29 c 0,23,24
 368 -16 368 -16 280 -22 c 0,25,26
 269 -23 269 -23 259 -23 c 0,27,28
 186 -23 186 -23 139 18 c 0,29,30
 88 63 88 63 88 132 c 0,31,32
 88 135 88 135 88 137 c 0,33,34
 91 240 91 240 172 315 c 0,35,36
 185 327 185 327 228 362 c 1,37,-1
 246 376 l 1,38,-1
 208 417 l 2,39,40
 147 483 147 483 147 547 c 0,41,42
 147 567 147 567 153 586 c 0,43,44
 169 643 169 643 223.5 673 c 128,-1,45
 278 703 278 703 335 703 c 0,0,1
310 425 m 1,46,-1
 353 458 l 2,47,48
 386 483 386 483 407 507 c 0,49,50
 427 530 427 530 427 553 c 0,51,52
 427 601 427 601 389 620 c 0,53,54
 365 633 365 633 338 633 c 0,55,56
 325 633 325 633 311 630 c 0,57,58
 269 621 269 621 249 595 c 128,-1,59
 229 569 229 569 229 543 c 0,60,61
 229 511 229 511 258 479 c 0,62,63
 264 472 264 472 285 451 c 2,64,-1
 310 425 l 1,46,-1
469 146 m 1,65,-1
 293 328 l 1,66,-1
 243 287 l 1,67,68
 169 225 169 225 169 160 c 0,69,70
 169 154 169 154 170 148 c 0,71,72
 174 103 174 103 208.5 76 c 128,-1,73
 243 49 243 49 289 49 c 0,74,75
 369 49 369 49 453 130 c 1,76,-1
 469 146 l 1,65,-1
EndSplineSet
EndChar

StartChar: less
Encoding: 60 60 92
Width: 523
VWidth: 1023
Flags: HW
LayerCount: 2
Fore
SplineSet
475 551 m 1,0,-1
 475 475 l 1,1,-1
 134 303 l 1,2,-1
 475 139 l 1,3,-1
 475 59 l 1,4,-1
 49 260 l 1,5,-1
 49 341 l 1,6,-1
 475 551 l 1,0,-1
EndSplineSet
EndChar

StartChar: greater
Encoding: 62 62 93
Width: 523
VWidth: 1023
Flags: HW
LayerCount: 2
Fore
SplineSet
49 551 m 1,0,-1
 475 341 l 1,1,-1
 475 260 l 1,2,-1
 49 59 l 1,3,-1
 49 139 l 1,4,-1
 390 303 l 1,5,-1
 49 475 l 1,6,-1
 49 551 l 1,0,-1
EndSplineSet
EndChar

StartChar: braceleft
Encoding: 123 123 94
Width: 389
VWidth: 1023
Flags: HW
HStem: -201 63<307.339 349.556> 235 67<44 96.9239> 675 63<307.416 349.556>
VStem: 44 318
CounterMasks: 1 e0
LayerCount: 2
Fore
SplineSet
167 492 m 2,0,-1
 169 528 l 1,1,2
 182 670 182 670 282 720 c 0,3,4
 314 735 314 735 348 738 c 1,5,-1
 362 675 l 1,6,7
 250 658 250 658 240 499 c 0,8,9
 236 442 236 442 231 404 c 128,-1,10
 226 366 226 366 205 330 c 128,-1,11
 184 294 184 294 147 269 c 1,12,13
 225 218 225 218 236 93 c 1,14,15
 241 48 241 48 241 32 c 1,16,17
 253 -123 253 -123 362 -138 c 1,18,-1
 348 -201 l 1,19,20
 277 -195 277 -195 227 -141 c 0,21,22
 178 -87 178 -87 169 3 c 0,23,24
 168 15 168 15 166.5 37 c 128,-1,25
 165 59 165 59 161.5 96 c 128,-1,26
 158 133 158 133 141 164 c 0,27,28
 108 224 108 224 44 235 c 1,29,-1
 44 302 l 1,30,31
 106 312 106 312 140 372 c 0,32,33
 157 404 157 404 161 433.5 c 128,-1,34
 165 463 165 463 167 492 c 2,0,-1
EndSplineSet
EndChar

StartChar: sterling
Encoding: 163 163 95
Width: 634
VWidth: 1023
Flags: HW
HStem: 0 66<74 193 273 561> 323 66<107 193 273 532> 632 67<348.298 527.361>
VStem: 193 80<66 323 389 556.917>
LayerCount: 2
Fore
SplineSet
74 66 m 1,0,-1
 193 66 l 1,1,-1
 193 323 l 1,2,-1
 107 323 l 1,3,-1
 107 389 l 1,4,-1
 193 389 l 1,5,-1
 193 458 l 2,6,7
 193 519 193 519 204 555 c 0,8,9
 224 617 224 617 284 658 c 0,10,11
 345 699 345 699 431 699 c 0,12,13
 483 699 483 699 545 680 c 1,14,-1
 522 621 l 1,15,16
 482 632 482 632 440.5 632 c 128,-1,17
 399 632 399 632 373 622 c 0,18,19
 330 605 330 605 306 575 c 1,20,21
 278 535 278 535 275.5 498.5 c 128,-1,22
 273 462 273 462 273 445 c 2,23,-1
 273 389 l 1,24,-1
 532 389 l 1,25,-1
 532 323 l 1,26,-1
 273 323 l 1,27,-1
 273 66 l 1,28,-1
 561 66 l 1,29,-1
 561 0 l 1,30,-1
 74 0 l 1,31,-1
 74 66 l 1,0,-1
EndSplineSet
EndChar

StartChar: exclamdown
Encoding: 161 161 96
Width: 317
VWidth: 1023
Flags: HW
HStem: 547 98<110 208>
VStem: 110 98<547 645> 117 83<-200 421>
LayerCount: 2
Fore
SplineSet
117 421 m 1,0,-1
 200 421 l 1,1,-1
 200 -200 l 1,2,-1
 117 -200 l 1,3,-1
 117 421 l 1,0,-1
110 645 m 1,4,-1
 208 645 l 1,5,-1
 208 547 l 1,6,-1
 110 547 l 1,7,-1
 110 645 l 1,4,-1
EndSplineSet
EndChar

StartChar: cent
Encoding: 162 162 97
Width: 498
VWidth: 1023
Flags: HW
HStem: 137 55<358.178 419.545>
VStem: 265 59<-32 113.123 606 738>
LayerCount: 2
Fore
SplineSet
265 738 m 1,0,-1
 324 738 l 1,1,-1
 324 606 l 1,2,3
 385 603 385 603 442 578 c 1,4,-1
 423 519 l 1,5,6
 369 538 369 538 324 538 c 0,7,8
 320 538 320 538 316 538 c 0,9,10
 150 530 150 530 150 365 c 0,11,12
 150 356 150 356 151 346 c 0,13,14
 157 243 157 243 227 201 c 1,15,16
 273 175 273 175 327 175 c 0,17,18
 370 175 370 175 417 192 c 1,19,-1
 437 137 l 1,20,21
 385 116 385 116 324 111 c 1,22,-1
 324 -32 l 1,23,-1
 265 -32 l 1,24,-1
 265 112 l 1,25,26
 168 122 168 122 116 194 c 0,27,28
 73 254 73 254 73 347 c 0,29,30
 73 464 73 464 127.5 528 c 128,-1,31
 182 592 182 592 265 604 c 1,32,-1
 265 738 l 1,0,-1
EndSplineSet
EndChar

StartChar: currency
Encoding: 164 164 98
Width: 634
Flags: HW
HStem: 193 69<256.116 377.553> 462 69<257.244 377.167>
VStem: 148 72<298.581 424.126>
LayerCount: 2
Fore
SplineSet
151 589 m 1,0,-1
 233 508 l 1,1,2
 271 531 271 531 317 531 c 128,-1,3
 363 531 363 531 402 508 c 1,4,-1
 483 588 l 1,5,-1
 544 527 l 1,6,-1
 463 447 l 1,7,8
 486 409 486 409 486 363 c 128,-1,9
 486 317 486 317 463 278 c 1,10,-1
 543 197 l 1,11,-1
 482 136 l 1,12,-1
 402 217 l 1,13,14
 362 193 362 193 316.5 193 c 128,-1,15
 271 193 271 193 233 216 c 1,16,-1
 152 135 l 1,17,-1
 91 196 l 1,18,-1
 172 277 l 1,19,20
 148 317 148 317 148 361.5 c 128,-1,21
 148 406 148 406 172 447 c 1,22,-1
 90 528 l 1,23,-1
 151 589 l 1,0,-1
220 361 m 128,-1,25
 220 319 220 319 248.5 290.5 c 128,-1,26
 277 262 277 262 316.5 262 c 128,-1,27
 356 262 356 262 384 288.5 c 128,-1,28
 412 315 412 315 415 356 c 0,29,30
 415 360 415 360 415 363 c 0,31,32
 414 400 414 400 388 430 c 0,33,34
 358 462 358 462 317 462 c 128,-1,35
 276 462 276 462 248 432.5 c 128,-1,24
 220 403 220 403 220 361 c 128,-1,25
EndSplineSet
EndChar

StartChar: yen
Encoding: 165 165 99
Width: 634
VWidth: 1023
Flags: HW
HStem: 0 21G<275 353> 122 61<141 275 353 494> 280 61<141 271 356 494> 674 20G<70 170.644 468.017 565>
VStem: 275 78<0 122 183 280>
LayerCount: 2
Fore
SplineSet
70 694 m 1,0,-1
 160 694 l 1,1,-1
 317 399 l 1,2,-1
 479 694 l 1,3,-1
 565 694 l 1,4,-1
 356 341 l 1,5,-1
 494 341 l 1,6,-1
 494 280 l 1,7,-1
 353 280 l 1,8,-1
 353 183 l 1,9,-1
 494 183 l 1,10,-1
 494 122 l 1,11,-1
 353 122 l 1,12,-1
 353 0 l 1,13,-1
 275 0 l 1,14,-1
 275 122 l 1,15,-1
 141 122 l 1,16,-1
 141 183 l 1,17,-1
 275 183 l 1,18,-1
 275 280 l 1,19,-1
 141 280 l 1,20,-1
 141 341 l 1,21,-1
 271 341 l 1,22,-1
 70 694 l 1,0,-1
EndSplineSet
EndChar

StartChar: brokenbar
Encoding: 166 166 100
Width: 431
VWidth: 1023
Flags: HW
VStem: 176 80<-150 225 409 782>
LayerCount: 2
Fore
SplineSet
176 782 m 1,0,-1
 256 782 l 1,1,-1
 256 409 l 1,2,-1
 176 409 l 1,3,-1
 176 782 l 1,0,-1
176 225 m 1,4,-1
 256 225 l 1,5,-1
 256 -150 l 1,6,-1
 176 -150 l 1,7,-1
 176 225 l 1,4,-1
EndSplineSet
EndChar

StartChar: section
Encoding: 167 167 101
Width: 554
VWidth: 1023
Flags: HW
HStem: -10 63<126.871 350.091> 634 66<212.548 434.078>
VStem: 95 88<334.175 423.009 519.057 606.017> 384 92<85.0452 182.157 271.427 365.168>
LayerCount: 2
Fore
SplineSet
229 690 m 0,0,1
 266 700 266 700 310 700 c 128,-1,2
 354 700 354 700 367 698 c 2,3,-1
 386 695 l 2,4,5
 392 695 392 695 404 692 c 2,6,-1
 419 688 l 1,7,8
 423 688 423 688 435 684 c 2,9,-1
 450 679 l 1,10,-1
 428 615 l 1,11,12
 370 634 370 634 310.5 634 c 128,-1,13
 251 634 251 634 217 615 c 128,-1,14
 183 596 183 596 183 560 c 0,15,16
 183 537 183 537 206.5 518 c 0,17,18
 230 498 230 498 263 488 c 0,19,20
 340 464 340 464 400 437 c 0,21,22
 433 422 433 422 454.5 394.5 c 128,-1,23
 476 367 476 367 476 333 c 0,24,25
 476 274 476 274 435 231 c 1,26,27
 476 198 476 198 476 150 c 0,28,29
 476 74 476 74 411 28 c 0,30,31
 356 -10 356 -10 257.5 -10 c 128,-1,32
 159 -10 159 -10 78 22 c 1,33,-1
 101 83 l 1,34,35
 185 53 185 53 249 53 c 0,36,37
 384 53 384 53 384 140 c 0,38,39
 384 180 384 180 327 202 c 0,40,41
 311 209 311 209 285 216.5 c 128,-1,42
 259 224 259 224 236 232 c 128,-1,43
 213 240 213 240 196 245.5 c 128,-1,44
 179 251 179 251 152 267 c 0,45,46
 95 302 95 302 95 361.5 c 128,-1,47
 95 421 95 421 138 461 c 1,48,49
 96 496 96 496 96 545 c 128,-1,50
 96 594 96 594 125 629 c 1,51,52
 159 672 159 672 229 690 c 0,0,1
207 425 m 1,53,54
 183 406 183 406 183 382.5 c 128,-1,55
 183 359 183 359 193 346 c 0,56,57
 207 328 207 328 263 305 c 0,58,59
 270 303 270 303 314.5 288 c 128,-1,60
 359 273 359 273 363 271 c 1,61,62
 384 292 384 292 384 323 c 0,63,64
 384 372 384 372 290 399 c 2,65,-1
 248 411 l 2,66,67
 230 417 230 417 207 425 c 1,53,54
EndSplineSet
EndChar

StartChar: copyright
Encoding: 169 169 102
Width: 859
VWidth: 1023
Flags: HW
HStem: -7 65<321.828 538.727> 156 48<378.053 520.642> 609 65<321.096 538.188>
VStem: 83 65<227.422 439.078> 273 57<252.932 422.361> 711 65<227.422 439.331>
LayerCount: 2
Fore
SplineSet
446 515 m 0,0,1
 450 515 450 515 453 515 c 0,2,3
 495 515 495 515 541 494 c 1,4,-1
 526 452 l 1,5,6
 485 467 485 467 450 467 c 0,7,8
 420 467 420 467 394 456 c 0,9,10
 330 429 330 429 330 338 c 0,11,12
 330 333 330 333 330 327 c 0,13,14
 334 251 334 251 384 221 c 0,15,16
 405 208 405 208 441 204 c 0,17,18
 449 203 449 203 458 203 c 0,19,20
 487 203 487 203 522 215 c 1,21,-1
 537 175 l 1,22,23
 489 156 489 156 441 156 c 0,24,25
 348 156 348 156 304 216 c 0,26,27
 273 259 273 259 273 334.5 c 128,-1,28
 273 410 273 410 314.5 461.5 c 128,-1,29
 356 513 356 513 446 515 c 0,0,1
430 609 m 128,-1,31
 376 609 376 609 324 588 c 0,32,33
 216 545 216 545 170 440 c 0,34,35
 148 390 148 390 148 333.5 c 0,36,37
 148 278 148 278 170 226 c 0,38,39
 215 123 215 123 323 79 c 0,40,41
 376 58 376 58 430 58 c 128,-1,42
 484 58 484 58 536 78 c 0,43,44
 643 120 643 120 689 227 c 0,45,46
 711 277 711 277 711 333.5 c 0,47,48
 710 390 710 390 688 442 c 0,49,50
 642 547 642 547 537 588 c 0,51,30
 484 609 484 609 430 609 c 128,-1,31
110 464 m 0,52,53
 165 594 165 594 298 648 c 0,54,55
 364 674 364 674 429 674 c 128,-1,56
 494 674 494 674 559.5 648 c 128,-1,57
 625 622 625 622 674 575 c 128,-1,58
 723 528 723 528 749.5 464 c 128,-1,59
 776 400 776 400 776 332.5 c 128,-1,60
 776 265 776 265 749 201.5 c 128,-1,61
 722 138 722 138 673.5 91 c 128,-1,62
 625 44 625 44 560 18.5 c 128,-1,63
 495 -7 495 -7 429.5 -7 c 128,-1,64
 364 -7 364 -7 300 18 c 128,-1,65
 236 43 236 43 186.5 91.5 c 128,-1,66
 137 140 137 140 110 202.5 c 128,-1,67
 83 265 83 265 83 333 c 128,-1,68
 83 401 83 401 110 464 c 0,52,53
EndSplineSet
EndChar

StartChar: guillemotleft
Encoding: 171 171 103
Width: 457
VWidth: 1023
Flags: HW
HStem: 462 20G<147.067 251 328.067 433>
LayerCount: 2
Fore
SplineSet
342 482 m 1,0,-1
 433 482 l 1,1,-1
 299 304 l 1,2,-1
 433 126 l 1,3,-1
 342 126 l 1,4,-1
 218 304 l 1,5,-1
 342 482 l 1,0,-1
161 482 m 1,6,-1
 251 482 l 1,7,-1
 118 304 l 1,8,-1
 251 126 l 1,9,-1
 161 126 l 1,10,-1
 37 304 l 1,11,-1
 161 482 l 1,6,-1
EndSplineSet
EndChar

StartChar: guillemotright
Encoding: 187 187 104
Width: 457
VWidth: 1023
Flags: HW
HStem: 462 20G<24 128.933 206 309.933>
LayerCount: 2
Fore
SplineSet
115 482 m 1,0,-1
 239 304 l 1,1,-1
 115 126 l 1,2,-1
 24 126 l 1,3,-1
 158 304 l 1,4,-1
 24 482 l 1,5,-1
 115 482 l 1,0,-1
296 482 m 1,6,-1
 420 304 l 1,7,-1
 296 126 l 1,8,-1
 206 126 l 1,9,-1
 339 304 l 1,10,-1
 206 482 l 1,11,-1
 296 482 l 1,6,-1
EndSplineSet
EndChar

StartChar: registered
Encoding: 174 174 105
Width: 601
VWidth: 1023
Flags: HW
HStem: 256 55<207.632 394.289> 480 38<254 309> 605 40<254 352.884> 708 54<207.602 393.154>
VStem: 44 54<418.746 599.254> 208 46<379 480 518 605> 503 55<418.746 598.56>
LayerCount: 2
Fore
SplineSet
309 481 m 1,0,-1
 266 480 l 1,1,-1
 254 480 l 1,2,-1
 254 379 l 1,3,-1
 208 379 l 1,4,-1
 208 643 l 1,5,-1
 317 645 l 2,6,7
 320 645 320 645 322 645 c 0,8,9
 377 645 377 645 396 604 c 0,10,11
 405 587 405 587 405 567 c 0,12,13
 405 552 405 552 400 536 c 0,14,15
 389 498 389 498 352 487 c 1,16,-1
 407 379 l 1,17,-1
 358 379 l 1,18,-1
 309 481 l 1,0,-1
120 689 m 0,19,20
 196 762 196 762 300 762 c 0,21,22
 350 762 350 762 398 743 c 0,23,24
 497 703 497 703 538 606 c 0,25,26
 558 557 558 557 558 509 c 0,27,28
 558 462 558 462 538 414 c 0,29,30
 498 317 498 317 398 276 c 0,31,32
 349 256 349 256 300.5 256 c 128,-1,33
 252 256 252 256 204.5 275.5 c 128,-1,34
 157 295 157 295 120 330.5 c 128,-1,35
 83 366 83 366 63.5 413.5 c 128,-1,36
 44 461 44 461 44 509 c 128,-1,37
 44 557 44 557 64 605.5 c 128,-1,38
 84 654 84 654 120 689 c 0,19,20
443 651 m 0,39,40
 383 708 383 708 300.5 708 c 128,-1,41
 218 708 218 708 158 650 c 128,-1,42
 98 592 98 592 98 509 c 128,-1,43
 98 426 98 426 157.5 368.5 c 128,-1,44
 217 311 217 311 300.5 311 c 128,-1,45
 384 311 384 311 443.5 368.5 c 128,-1,46
 503 426 503 426 503 509 c 0,47,48
 503 550 503 550 486 588 c 128,-1,49
 469 626 469 626 443 651 c 0,39,40
254 518 m 1,50,-1
 270 518 l 2,51,52
 311 518 311 518 330.5 520.5 c 0,53,54
 350 524 350 524 358 546 c 0,55,56
 362 556 362 556 362 564 c 0,57,58
 362 574 362 574 356 581 c 0,59,60
 341 603 341 603 315 605 c 1,61,-1
 254 605 l 1,62,-1
 254 518 l 1,50,-1
EndSplineSet
EndChar

StartChar: paragraph
Encoding: 182 182 106
Width: 653
VWidth: 1023
Flags: HW
HStem: 0 21G<276.94 360 478 561> 665 73<360 478>
VStem: 63 297<449.609 648.755> 277 83<0 337.067> 478 83<0 665>
LayerCount: 2
Fore
SplineSet
113 687 m 1,0,1
 145 717 145 717 187.5 727.5 c 128,-1,2
 230 738 230 738 298 738 c 2,3,-1
 561 738 l 1,4,-1
 561 0 l 1,5,-1
 478 0 l 1,6,-1
 478 665 l 1,7,-1
 360 665 l 1,8,-1
 360 0 l 1,9,-1
 277 0 l 1,10,-1
 276 335 l 1,11,12
 227 339 227 339 198 348 c 0,13,14
 170 357 170 357 144 376 c 0,15,16
 100 409 100 409 81.5 458 c 128,-1,17
 63 507 63 507 63 553 c 0,18,19
 63 637 63 637 113 687 c 1,0,1
EndSplineSet
EndChar

StartChar: periodcentered
Encoding: 183 183 107
Width: 288
VWidth: 1023
Flags: HW
HStem: 307 102<93 195>
VStem: 93 102<307 409>
LayerCount: 2
Fore
SplineSet
93 409 m 1,0,-1
 195 409 l 1,1,-1
 195 307 l 1,2,-1
 93 307 l 1,3,-1
 93 409 l 1,0,-1
EndSplineSet
EndChar

StartChar: questiondown
Encoding: 191 191 108
Width: 511
VWidth: 1023
Flags: HW
HStem: -69 70<193.079 385.872>
VStem: 62 81<47.6794 174.961> 248 83<361.917 482>
LayerCount: 2
Fore
SplineSet
174 -45 m 128,-1,1
 128 -21 128 -21 95 22.5 c 128,-1,2
 62 66 62 66 62 125.5 c 128,-1,3
 62 185 62 185 100 225 c 0,4,5
 116 243 116 243 151.5 271.5 c 128,-1,6
 187 300 187 300 211 335 c 0,7,8
 248 387 248 387 248 482 c 1,9,-1
 331 482 l 1,10,11
 331 388 331 388 308 335 c 0,12,13
 298 311 298 311 280.5 285.5 c 128,-1,14
 263 260 263 260 222 226 c 2,15,-1
 192 202 l 1,16,17
 143 164 143 164 143 108 c 0,18,19
 143 65 143 65 179 33 c 0,20,21
 216 1 216 1 276 1 c 128,-1,22
 336 1 336 1 416 34 c 1,23,-1
 441 -26 l 1,24,25
 351 -69 351 -69 268 -69 c 0,26,0
 220 -69 220 -69 174 -45 c 128,-1,1
338 596 m 1,27,-1
 241 596 l 1,28,-1
 241 693 l 1,29,-1
 338 693 l 1,30,-1
 338 596 l 1,27,-1
EndSplineSet
EndChar

StartChar: uni00B5
Encoding: 181 181 109
Width: 579
VWidth: 1023
Flags: HW
HStem: 0 21G<426.909 492> 462 20G<93 173 412 492>
VStem: 93 80<-200 26 109.372 482> 412 80<82.5762 482>
LayerCount: 2
Fore
SplineSet
93 482 m 1,0,-1
 173 482 l 1,1,-1
 173 221 l 2,2,3
 173 64 173 64 283 55 c 0,4,5
 286 55 286 55 290 55 c 0,6,7
 336 55 336 55 412 92 c 1,8,-1
 412 482 l 1,9,-1
 492 482 l 1,10,-1
 492 0 l 1,11,-1
 436 0 l 1,12,-1
 421 33 l 1,13,14
 350 -13 350 -13 283 -13 c 128,-1,15
 216 -13 216 -13 173 26 c 1,16,-1
 173 -200 l 1,17,-1
 93 -200 l 1,18,-1
 93 482 l 1,0,-1
EndSplineSet
EndChar

StartChar: uni00AD
Encoding: 173 173 110
Width: 524
VWidth: 1023
Flags: HW
HStem: 288 67<107 417>
VStem: 107 310<288 355>
LayerCount: 2
Fore
SplineSet
107 355 m 1,0,-1
 417 355 l 1,1,-1
 417 288 l 1,2,-1
 107 288 l 1,3,-1
 107 355 l 1,0,-1
EndSplineSet
EndChar

StartChar: plusminus
Encoding: 177 177 111
Width: 683
VWidth: 1023
Flags: HW
HStem: 73 67<107 576> 426 67<107 306 377 576> 674 20G<306 377>
VStem: 306 71<225 426 493 694>
LayerCount: 2
Fore
SplineSet
306 694 m 1,0,-1
 377 694 l 1,1,-1
 377 493 l 1,2,-1
 576 493 l 1,3,-1
 576 426 l 1,4,-1
 377 426 l 1,5,-1
 377 225 l 1,6,-1
 306 225 l 1,7,-1
 306 426 l 1,8,-1
 107 426 l 1,9,-1
 107 493 l 1,10,-1
 306 493 l 1,11,-1
 306 694 l 1,0,-1
107 140 m 1,12,-1
 576 140 l 1,13,-1
 576 73 l 1,14,-1
 107 73 l 1,15,-1
 107 140 l 1,12,-1
EndSplineSet
EndChar

StartChar: ae
Encoding: 230 230 112
Width: 817
VWidth: 0
Flags: HW
HStem: -10 64<175.46 322.541 521.204 707.97> 213 60<175.214 354 438 677> 422 69<116.073 312.665 499.39 632.455>
VStem: 60 80<86.6745 183.143> 354 80<132.791 213 274 348.164> 677 77<273 369.381>
LayerCount: 2
Fore
SplineSet
354 213 m 1,0,-1
 317 214 l 1,1,2
 229 214 229 214 184.5 196 c 128,-1,3
 140 178 140 178 140 134 c 0,4,5
 140 101 140 101 172.5 77.5 c 128,-1,6
 205 54 205 54 247 54 c 0,7,8
 309 54 309 54 354 101 c 1,9,-1
 354 213 l 1,0,-1
677 273 m 1,10,-1
 677 290 l 2,11,12
 677 323 677 323 667 349 c 128,-1,13
 657 375 657 375 644 389 c 1,14,15
 617 422 617 422 573.5 422 c 128,-1,16
 530 422 530 422 500 401 c 0,17,18
 443 360 443 360 438 273 c 1,19,-1
 677 273 l 1,10,-1
754 245 m 1,20,-1
 753 213 l 1,21,-1
 434 213 l 1,22,-1
 434 207 l 2,23,24
 434 145 434 145 484.5 100 c 128,-1,25
 535 55 535 55 612 55 c 0,26,27
 655 55 655 55 712 72 c 1,28,-1
 726 18 l 1,29,30
 652 -9 652 -9 581 -9 c 0,31,32
 462 -9 462 -9 401 64 c 1,33,34
 345 -10 345 -10 231 -10 c 0,35,36
 186 -10 186 -10 146.5 8.5 c 128,-1,37
 107 27 107 27 83.5 59 c 128,-1,38
 60 91 60 91 60 130 c 0,39,40
 60 184 60 184 104 222 c 0,41,42
 164 274 164 274 308 274 c 2,43,-1
 354 274 l 1,44,-1
 354 299 l 2,45,46
 354 425 354 425 225 425 c 0,47,48
 193 425 193 425 111 403 c 1,49,-1
 91 461 l 1,50,51
 172 491 172 491 253 491 c 0,52,53
 368 491 368 491 408 406 c 1,54,55
 439 445 439 445 485.5 468 c 128,-1,56
 532 491 532 491 582 491 c 0,57,58
 754 491 754 491 754 245 c 1,20,-1
EndSplineSet
EndChar

StartChar: germandbls
Encoding: 223 223 113
Width: 615
VWidth: 1023
Flags: HW
HStem: -13 65<258.341 450.001> 0 21G<98.96 180> 626 72<219.281 344.01>
VStem: 99 81<0 585.028> 253 80<315.192 390.186> 382 78<485.075 590.291> 472 85<70.7451 178.514>
LayerCount: 2
Fore
SplineSet
294 698 m 0,0,1
 325 698 325 698 354 688 c 0,2,3
 404 670 404 670 433 624 c 1,4,5
 460 584 460 584 460 537.5 c 128,-1,6
 460 491 460 491 437 463 c 128,-1,7
 414 435 414 435 386.5 414.5 c 128,-1,8
 359 394 359 394 358 393 c 0,9,10
 333 372 333 372 333 352.5 c 128,-1,11
 333 333 333 333 343 318.5 c 128,-1,12
 353 304 353 304 391 289 c 2,13,-1
 426 276 l 2,14,15
 474 260 474 260 494 246 c 0,16,17
 556 205 556 205 557 127 c 0,18,19
 557 64 557 64 510 22 c 1,20,21
 469 -13 469 -13 397.5 -13 c 128,-1,22
 326 -13 326 -13 246 10 c 1,23,-1
 261 67 l 1,24,25
 338 52 338 52 380.5 52 c 128,-1,26
 423 52 423 52 447.5 69 c 128,-1,27
 472 86 472 86 472 124.5 c 128,-1,28
 472 163 472 163 444 184 c 0,29,30
 424 200 424 200 381 215 c 2,31,-1
 345 228 l 1,32,33
 253 264 253 264 253 343 c 0,34,35
 253 388 253 388 279 416 c 0,36,37
 293 432 293 432 323.5 455.5 c 128,-1,38
 354 479 354 479 356 481 c 0,39,40
 382 504 382 504 382 538 c 128,-1,41
 382 572 382 572 351 599 c 0,42,43
 319 626 319 626 279 626 c 128,-1,44
 239 626 239 626 209 595 c 128,-1,45
 179 564 179 564 179 499 c 2,46,-1
 180 0 l 1,47,-1
 99 0 l 1,48,-1
 98 500 l 2,49,50
 98 618 98 618 185 670 c 0,51,52
 232 698 232 698 294 698 c 0,0,1
EndSplineSet
EndChar

StartChar: multiply
Encoding: 215 215 114
Width: 634
VWidth: 1023
Flags: HW
LayerCount: 2
Fore
SplineSet
141 95 m 1,0,-1
 89 146 l 1,1,-1
 262 319 l 1,2,-1
 93 488 l 1,3,-1
 144 540 l 1,4,-1
 320 363 l 1,5,-1
 493 537 l 1,6,-1
 544 485 l 1,7,-1
 372 312 l 1,8,-1
 541 143 l 1,9,-1
 490 91 l 1,10,-1
 313 268 l 1,11,-1
 141 95 l 1,0,-1
EndSplineSet
EndChar

StartChar: divide
Encoding: 247 247 115
Width: 683
VWidth: 1023
Flags: HW
HStem: 41 95<294 389> 287 68<61 623> 507 95<294 389>
VStem: 294 95<41 136 507 602>
LayerCount: 2
Fore
SplineSet
61 355 m 1,0,-1
 623 355 l 1,1,-1
 623 287 l 1,2,-1
 61 287 l 1,3,-1
 61 355 l 1,0,-1
294 136 m 1,4,-1
 389 136 l 1,5,-1
 389 41 l 1,6,-1
 294 41 l 1,7,-1
 294 136 l 1,4,-1
294 602 m 1,8,-1
 389 602 l 1,9,-1
 389 507 l 1,10,-1
 294 507 l 1,11,-1
 294 602 l 1,8,-1
EndSplineSet
EndChar

StartChar: oslash
Encoding: 248 248 116
Width: 569
VWidth: 1023
Flags: HW
HStem: -10 65<201.366 356.188> 426 64<201.263 354.656> 466 20G<472.515 512.714>
VStem: 46 83<136.024 343.789> 427 83<134.537 345.226>
LayerCount: 2
Fore
SplineSet
492 486 m 1
 521 458 l 1
 66 -7 l 1
 38 20 l 1
 492 486 l 1
EndSplineSet
Refer: 6 111 N 1 0 0 1 0 0 2
EndChar

StartChar: OE
Encoding: 338 338 118
Width: 975
VWidth: 1023
Flags: HW
HStem: 0 73<328.073 513 596 897> 321 73<596 871> 621 73<334.314 513 596 897>
VStem: 105 83<219.154 467.523> 513 83<73 321 394 621>
LayerCount: 2
Fore
SplineSet
393 616 m 0,0,1
 273 597 273 597 220 493 c 0,2,3
 191 436 191 436 188 346 c 0,4,5
 188 340 188 340 188 333 c 0,6,7
 188 252 188 252 224 191 c 0,8,9
 283 95 283 95 386 77 c 0,10,11
 407 73 407 73 451 73 c 2,12,-1
 513 73 l 1,13,-1
 513 621 l 1,14,-1
 485 621 l 2,15,16
 428 621 428 621 393 616 c 0,0,1
340 679 m 0,17,18
 401 694 401 694 519 694 c 2,19,-1
 897 694 l 1,20,-1
 897 621 l 1,21,-1
 596 621 l 1,22,-1
 596 394 l 1,23,-1
 871 394 l 1,24,-1
 871 321 l 1,25,-1
 596 321 l 1,26,-1
 596 73 l 1,27,-1
 897 73 l 1,28,-1
 897 0 l 1,29,-1
 475 0 l 2,30,31
 349 0 349 0 276 31.5 c 128,-1,32
 203 63 203 63 159 132 c 0,33,34
 105 215 105 215 105 340 c 0,35,36
 105 344 105 344 105 349 c 1,37,38
 106 509 106 509 191 598 c 0,39,40
 246 656 246 656 340 679 c 0,17,18
EndSplineSet
EndChar

StartChar: oe
Encoding: 339 339 119
Width: 880
VWidth: 0
Flags: HW
HStem: -11 69<217.066 360.304 569.415 773.734> 199 60<501 740> 421 68<209.912 351.585 563.176 691.704>
VStem: 63 79<143.854 344.08> 425 74<128.969 199 259 341.009> 740 77<259 371.047>
LayerCount: 2
Fore
SplineSet
385 102 m 0,0,1
 425 145 425 145 425 235 c 0,2,3
 425 329 425 329 381 375 c 128,-1,4
 337 421 337 421 278 421 c 128,-1,5
 219 421 219 421 180.5 372 c 128,-1,6
 142 323 142 323 142 245 c 0,7,8
 142 193 142 193 160.5 150.5 c 128,-1,9
 179 108 179 108 212.5 83 c 128,-1,10
 246 58 246 58 281.5 58 c 128,-1,11
 317 58 317 58 340 68 c 128,-1,12
 363 78 363 78 385 102 c 0,0,1
501 259 m 1,13,-1
 740 259 l 1,14,-1
 740 269 l 2,15,16
 740 347 740 347 711 382 c 128,-1,17
 682 417 682 417 623.5 417 c 128,-1,18
 565 417 565 417 534 369.5 c 128,-1,19
 503 322 503 322 501 259 c 1,13,-1
290 489 m 0,20,21
 414 489 414 489 469 393 c 1,22,23
 530 487 530 487 644.5 487 c 128,-1,24
 759 487 759 487 800 380 c 0,25,26
 808 359 808 359 812.5 333 c 128,-1,27
 817 307 817 307 817 246 c 2,28,-1
 817 199 l 1,29,-1
 499 199 l 1,30,31
 500 130 500 130 561 85 c 0,32,33
 603 53 603 53 662.5 53 c 128,-1,34
 722 53 722 53 776 70 c 1,35,-1
 789 16 l 1,36,37
 717 -11 717 -11 643 -11 c 0,38,39
 513 -11 513 -11 458 78 c 1,40,41
 396 -11 396 -11 281 -11 c 0,42,43
 183 -11 183 -11 123 56.5 c 128,-1,44
 63 124 63 124 63 237.5 c 128,-1,45
 63 351 63 351 124.5 420 c 128,-1,46
 186 489 186 489 290 489 c 0,20,21
EndSplineSet
EndChar

StartChar: AE
Encoding: 198 198 120
Width: 935
VWidth: 1023
Flags: HW
HStem: 0 73<555 857> 202 72<249 472> 321 73<555 830> 621 73<383 472 555 857>
VStem: 472 83<73 202 274 321 394 621>
LayerCount: 2
Fore
SplineSet
334 694 m 1,0,-1
 857 694 l 1,1,-1
 857 621 l 1,2,-1
 555 621 l 1,3,-1
 555 394 l 1,4,-1
 830 394 l 1,5,-1
 830 321 l 1,6,-1
 555 321 l 1,7,-1
 555 73 l 1,8,-1
 857 73 l 1,9,-1
 857 0 l 1,10,-1
 472 0 l 1,11,-1
 472 202 l 1,12,-1
 221 202 l 1,13,-1
 143 0 l 1,14,-1
 63 0 l 1,15,-1
 334 694 l 1,0,-1
249 274 m 1,16,-1
 472 274 l 1,17,-1
 472 621 l 1,18,-1
 383 621 l 1,19,-1
 249 274 l 1,16,-1
EndSplineSet
EndChar

StartChar: onequarter
Encoding: 188 188 121
Width: 864
VWidth: 0
Flags: HW
HStem: 0 21G<175 272.556 691 756> 95 54<573 691 756 808> 674 20G<94.6923 221 564.444 662>
VStem: 156 65<302 630> 691 65<0 95 149 336>
LayerCount: 2
Fore
SplineSet
576 694 m 1,0,-1
 662 694 l 1,1,-1
 261 0 l 1,2,-1
 175 0 l 1,3,-1
 576 694 l 1,0,-1
167 694 m 1,4,-1
 221 694 l 1,5,-1
 221 302 l 1,6,-1
 156 302 l 1,7,-1
 156 630 l 1,8,-1
 88 611 l 1,9,-1
 73 668 l 1,10,-1
 167 694 l 1,4,-1
679 408 m 1,11,-1
 756 408 l 1,12,-1
 756 149 l 1,13,-1
 808 149 l 1,14,-1
 808 95 l 1,15,-1
 756 95 l 1,16,-1
 756 0 l 1,17,-1
 691 0 l 1,18,-1
 691 95 l 1,19,-1
 500 95 l 1,20,-1
 500 139 l 1,21,-1
 679 408 l 1,11,-1
691 336 m 1,22,-1
 573 149 l 1,23,-1
 691 149 l 1,24,-1
 691 336 l 1,22,-1
EndSplineSet
EndChar

StartChar: onehalf
Encoding: 189 189 122
Width: 877
VWidth: 0
Flags: HW
HStem: 0 57<639 824> 355 56<587.013 733.272> 674 20G<94.6923 221 564.444 662>
VStem: 156 65<302 630> 753 64<255.542 337.416>
LayerCount: 2
Fore
SplineSet
576 694 m 1,0,-1
 662 694 l 1,1,-1
 261 0 l 1,2,-1
 175 0 l 1,3,-1
 576 694 l 1,0,-1
556 377 m 1,4,5
 627 411 627 411 684 411 c 0,6,7
 741 411 741 411 779 381 c 0,8,9
 817 351 817 351 817 308 c 0,10,11
 817 265 817 265 790 232 c 0,12,13
 780 219 780 219 762 203 c 2,14,-1
 729 172 l 2,15,16
 683 130 683 130 666 105 c 0,17,18
 649 80 649 80 639 57 c 1,19,-1
 824 57 l 1,20,-1
 824 0 l 1,21,-1
 564 0 l 1,22,-1
 564 35 l 1,23,24
 594 132 594 132 695 221 c 1,25,26
 734 254 734 254 744 270 c 0,27,28
 754 286 754 286 753 297 c 0,29,30
 754 320 754 320 732 338 c 0,31,32
 710 356 710 356 676 355 c 0,33,34
 642 355 642 355 576 329 c 1,35,-1
 556 377 l 1,4,5
167 694 m 1,36,-1
 221 694 l 1,37,-1
 221 302 l 1,38,-1
 156 302 l 1,39,-1
 156 630 l 1,40,-1
 88 611 l 1,41,-1
 73 668 l 1,42,-1
 167 694 l 1,36,-1
EndSplineSet
EndChar

StartChar: threequarters
Encoding: 190 190 123
Width: 903
VWidth: 0
Flags: HW
HStem: 0 21G<220 317.527 730 795> 95 54<613 730 795 848> 293 59<81.0076 236.154> 489 55<143 225.29> 650 58<96.834 233.099> 674 20G<609.444 706>
VStem: 248 62<563.593 636.83> 264 63<375.829 464.459> 730 65<0 95 149 336>
LayerCount: 2
Fore
SplineSet
621 694 m 1,0,-1
 706 694 l 1,1,-1
 306 0 l 1,2,-1
 220 0 l 1,3,-1
 621 694 l 1,0,-1
719 408 m 1,4,-1
 795 408 l 1,5,-1
 795 149 l 1,6,-1
 848 149 l 1,7,-1
 848 95 l 1,8,-1
 795 95 l 1,9,-1
 795 0 l 1,10,-1
 730 0 l 1,11,-1
 730 95 l 1,12,-1
 540 95 l 1,13,-1
 540 139 l 1,14,-1
 719 408 l 1,4,-1
730 336 m 1,15,-1
 613 149 l 1,16,-1
 730 149 l 1,17,-1
 730 336 l 1,15,-1
68 676 m 1,18,19
 132 708 132 708 186.5 708 c 128,-1,20
 241 708 241 708 275.5 679.5 c 128,-1,21
 310 651 310 651 310 602.5 c 128,-1,22
 310 554 310 554 264 524 c 1,23,24
 327 498 327 498 327 434.5 c 128,-1,25
 327 371 327 371 282 332 c 128,-1,26
 237 293 237 293 171 293 c 2,27,-1
 169 293 l 2,28,29
 121 293 121 293 61 317 c 1,30,-1
 79 369 l 1,31,32
 145 352 145 352 178 352 c 128,-1,33
 211 352 211 352 237.5 371.5 c 128,-1,34
 264 391 264 391 264 418 c 128,-1,35
 264 445 264 445 248 460 c 0,36,37
 217 489 217 489 156 489 c 2,38,-1
 143 489 l 1,39,-1
 143 544 l 1,40,-1
 151 544 l 1,41,42
 204 546 204 546 226 563.5 c 128,-1,43
 248 581 248 581 248 601 c 128,-1,44
 248 621 248 621 230.5 635.5 c 128,-1,45
 213 650 213 650 177 650 c 128,-1,46
 141 650 141 650 90 625 c 1,47,-1
 68 676 l 1,18,19
EndSplineSet
EndChar

StartChar: degree
Encoding: 176 176 124
Width: 287
Flags: HW
HStem: 493 45<97.25 188.861> 668 44<98.3312 189.394>
VStem: 37 44<554.894 650.193> 206 45<555.487 651.747>
LayerCount: 2
Fore
SplineSet
188 557 m 128,-1,1
 206 576 206 576 206 602 c 128,-1,2
 206 628 206 628 188 648 c 128,-1,3
 170 668 170 668 143.5 668 c 128,-1,4
 117 668 117 668 99 649 c 128,-1,5
 81 630 81 630 81 602.5 c 128,-1,6
 81 575 81 575 98.5 556.5 c 128,-1,7
 116 538 116 538 143 538 c 128,-1,0
 170 538 170 538 188 557 c 128,-1,1
219 525 m 128,-1,9
 187 493 187 493 143.5 493 c 128,-1,10
 100 493 100 493 68.5 524.5 c 128,-1,11
 37 556 37 556 37 602.5 c 128,-1,12
 37 649 37 649 68.5 680.5 c 128,-1,13
 100 712 100 712 143.5 712 c 128,-1,14
 187 712 187 712 219 680 c 128,-1,15
 251 648 251 648 251 602.5 c 128,-1,8
 251 557 251 557 219 525 c 128,-1,9
EndSplineSet
EndChar

StartChar: cedilla
Encoding: 184 184 126
Width: 537
VWidth: 0
Flags: HW
VStem: 188 211
LayerCount: 2
Fore
SplineSet
267 11 m 1,0,-1
 329 11 l 1,1,-1
 310 -66 l 1,2,-1
 322 -70 l 2,3,4
 350 -79 350 -79 362 -86 c 0,5,6
 396 -105 396 -105 400 -149 c 0,7,8
 400 -153 400 -153 400 -157 c 0,9,10
 400 -196 400 -196 366 -222 c 0,11,12
 340 -242 340 -242 301 -243 c 0,13,14
 283 -243 283 -243 261 -238 c 0,15,16
 245 -234 245 -234 205 -223 c 2,17,-1
 188 -218 l 1,18,-1
 201 -173 l 1,19,-1
 216 -178 l 1,20,21
 276 -196 276 -196 300 -196 c 1,22,23
 340 -194 340 -194 349 -170 c 0,24,25
 352 -163 352 -163 352 -157 c 0,26,27
 352 -148 352 -148 345 -140 c 0,28,29
 333 -127 333 -127 323 -122.5 c 128,-1,30
 313 -118 313 -118 300 -114 c 2,31,-1
 239 -95 l 1,32,-1
 267 11 l 1,0,-1
EndSplineSet
EndChar

StartChar: Ccedilla
Encoding: 199 199 127
Width: 692
VWidth: 0
Flags: HW
HStem: -10 75<362.126 608.264> 593 68<582.984 632.268> 623 74<358.734 605.483>
VStem: 109 94<227.273 463.76>
LayerCount: 2
Fore
SplineSet
365 12 m 1
 435 9 l 1
 417 -66 l 1
 452 -77 452 -77 465 -85 c 0
 500 -106 500 -106 504 -150 c 0
 504 -154 504 -154 504 -158 c 0
 504 -196 504 -196 469 -225 c 0
 441 -247 441 -247 400 -247 c 0
 382 -247 382 -247 362 -243 c 0
 352 -241 352 -241 301 -226 c 1
 285 -221 l 1
 300 -170 l 1
 314 -175 l 1
 379 -194 379 -194 408 -194 c 0
 409 -194 409 -194 410 -194 c 0
 439 -193 439 -193 447 -172 c 0
 454 -156 454 -156 445 -144 c 0
 436 -131 436 -131 427 -127 c 0
 419 -123 419 -123 402 -118 c 2
 335 -98 l 1
 365 12 l 1
EndSplineSet
Refer: 54 67 N 1 0 0 1 0 0 3
EndChar

StartChar: dieresis
Encoding: 168 168 128
Width: 585
VWidth: 0
Flags: HW
HStem: 603 90<138 229 357 448>
VStem: 138 91<603 693> 357 91<603 693>
LayerCount: 2
Fore
SplineSet
357 693 m 1,0,-1
 448 693 l 1,1,-1
 448 603 l 1,2,-1
 357 603 l 1,3,-1
 357 693 l 1,0,-1
138 693 m 1,4,-1
 229 693 l 1,5,-1
 229 603 l 1,6,-1
 138 603 l 1,7,-1
 138 693 l 1,4,-1
EndSplineSet
EndChar

StartChar: Idieresis
Encoding: 207 207 131
Width: 327
VWidth: 0
Flags: HW
HStem: 0 21G<142 225> 674 20G<142 225> 800 91<43 133 233 323>
VStem: 43 90<800 891> 142 83<0 694> 233 90<800 891>
LayerCount: 2
Fore
SplineSet
233 891 m 1,0,-1
 323 891 l 1,1,-1
 323 800 l 1,2,-1
 233 800 l 1,3,-1
 233 891 l 1,0,-1
43 891 m 1,4,-1
 133 891 l 1,5,-1
 133 800 l 1,6,-1
 43 800 l 1,7,-1
 43 891 l 1,4,-1
142 694 m 1,8,-1
 225 694 l 1,9,-1
 225 0 l 1,10,-1
 142 0 l 1,11,-1
 142 694 l 1,8,-1
EndSplineSet
EndChar

StartChar: idieresis
Encoding: 239 239 136
Width: 255
VWidth: 0
Flags: HW
HStem: 0 21<88 168> 462 20<88 168> 604 90<-7 83 173 263>
VStem: -7 90<604 694> 88 80<0 482> 173 90<604 694>
CounterMasks: 1 1c
LayerCount: 2
Fore
SplineSet
173 694 m 1
 263 694 l 1
 263 604 l 1
 173 604 l 1
 173 694 l 1
-7 694 m 1
 83 694 l 1
 83 604 l 1
 -7 604 l 1
 -7 694 l 1
EndSplineSet
Refer: 140 305 N 1 0 0 1 0 0 3
EndChar

StartChar: dotlessi
Encoding: 305 305 140
Width: 255
VWidth: 1023
Flags: HW
HStem: 0 21G<88 168> 462 20G<88 168>
VStem: 88 80<0 482>
LayerCount: 2
Fore
SplineSet
88 482 m 1,0,-1
 168 482 l 1,1,-1
 168 0 l 1,2,-1
 88 0 l 1,3,-1
 88 482 l 1,0,-1
EndSplineSet
EndChar

StartChar: uni00B2
Encoding: 178 178 146
Width: 390
VWidth: 0
Flags: HW
HStem: 370 51<140 307> 693 51<87.9536 229.611>
VStem: 243 58<601.54 678.402>
LayerCount: 2
Fore
SplineSet
63 713 m 1,0,1
 125 744 125 744 178 744 c 128,-1,2
 231 744 231 744 266 717 c 128,-1,3
 301 690 301 690 301 648 c 128,-1,4
 301 606 301 606 269 573 c 0,5,6
 260 563 260 563 236 541 c 2,7,-1
 201 508 l 1,8,9
 160 471 160 471 140 421 c 1,10,-1
 307 421 l 1,11,-1
 307 370 l 1,12,-1
 71 370 l 1,13,-1
 72 402 l 1,14,15
 93 470 93 470 136 517 c 0,16,17
 166 550 166 550 204 584 c 128,-1,18
 242 618 242 618 243 640 c 0,19,20
 243 662 243 662 223 677.5 c 0,21,22
 204 693 204 693 174 693 c 128,-1,23
 144 693 144 693 82 669 c 1,24,-1
 63 713 l 1,0,1
EndSplineSet
EndChar

StartChar: uni00B3
Encoding: 179 179 147
Width: 390
VWidth: 1023
Flags: HW
HStem: 366 53<78.7285 225.545> 544 50<135 215.983> 690 53<86.4071 224.001>
VStem: 231 56<610.477 680.51> 246 56<439.663 523.928>
LayerCount: 2
Fore
SplineSet
255 717 m 0,0,1
 287 690 287 690 287 646 c 128,-1,2
 287 602 287 602 246 576 c 1,3,4
 302 552 302 552 302 494 c 128,-1,5
 302 436 302 436 262 400 c 0,6,7
 222 366 222 366 161 366 c 2,8,-1
 160 366 l 2,9,10
 118 366 118 366 61 388 c 1,11,-1
 77 435 l 1,12,13
 136 419 136 419 166 419 c 128,-1,14
 196 419 196 419 221 437 c 128,-1,15
 246 455 246 455 246 480 c 0,16,17
 246 504 246 504 224 524 c 128,-1,18
 202 544 202 544 147 544 c 2,19,-1
 135 544 l 1,20,-1
 135 594 l 1,21,22
 210 596 210 596 227 629 c 0,23,24
 231 636 231 636 231 650 c 128,-1,25
 231 664 231 664 215 677 c 128,-1,26
 199 690 199 690 167 690 c 128,-1,27
 135 690 135 690 87 668 c 1,28,-1
 68 714 l 1,29,30
 128 743 128 743 176 743 c 128,-1,31
 224 743 224 743 255 717 c 0,0,1
EndSplineSet
EndChar

StartChar: acute
Encoding: 180 180 148
Width: 547
VWidth: 1023
Flags: HW
HStem: 570 204
VStem: 134 280
LayerCount: 2
Fore
SplineSet
380 774 m 1,0,-1
 414 714 l 1,1,-1
 164 570 l 1,2,-1
 134 623 l 1,3,-1
 380 774 l 1,0,-1
EndSplineSet
EndChar

StartChar: uni00B9
Encoding: 185 185 149
Width: 265
VWidth: 0
Flags: HW
HStem: 665 47<40.0638 54.3077>
VStem: 112 55<371 685>
LayerCount: 2
Fore
SplineSet
123 738 m 1,0,-1
 167 738 l 1,1,-1
 167 371 l 1,2,-1
 112 371 l 1,3,-1
 112 685 l 1,4,-1
 42 665 l 1,5,-1
 29 712 l 1,6,-1
 123 738 l 1,0,-1
EndSplineSet
EndChar

StartChar: ordmasculine
Encoding: 186 186 150
Width: 372
VWidth: 1023
Flags: HW
HStem: 367 49<127.88 245.072> 691 51<125.226 246.852>
VStem: 33 55<459.267 653.149> 284 55<457.687 651.198>
LayerCount: 2
Fore
SplineSet
181 416 m 0,0,1
 284 416 284 416 284 558 c 0,2,3
 284 647 284 647 237 677 c 0,4,5
 216 691 216 691 191 691 c 0,6,7
 147 691 147 691 117.5 663 c 128,-1,8
 88 635 88 635 88 561 c 0,9,10
 88 464 88 464 135 432 c 0,11,12
 159 416 159 416 181 416 c 0,0,1
259 725 m 128,-1,14
 289 708 289 708 302 691 c 0,15,16
 339 647 339 647 339 558 c 128,-1,17
 339 469 339 469 295.5 418 c 128,-1,18
 252 367 252 367 186.5 367 c 128,-1,19
 121 367 121 367 80 407 c 1,20,21
 33 451 33 451 33 550 c 128,-1,22
 33 649 33 649 79.5 695.5 c 128,-1,23
 126 742 126 742 177.5 742 c 128,-1,13
 229 742 229 742 259 725 c 128,-1,14
EndSplineSet
EndChar

StartChar: agrave
Encoding: 224 224 166
Width: 491
VWidth: 0
Flags: HW
HStem: 0 73 217 73<197 355> 408 73
VStem: 345 82<91 224 284 384>
LayerCount: 2
Fore
SplineSet
217 756 m 1
 395 598 l 1
 356 549 l 1
 172 703 l 1
 217 756 l 1
EndSplineSet
Refer: 0 97 N 1 0 0 1 0 0 3
EndChar

StartChar: aacute
Encoding: 225 225 167
Width: 491
VWidth: 0
Flags: HW
HStem: 0 73 217 73<197 355> 408 73
VStem: 345 82<91 224 284 384>
LayerCount: 2
Fore
SplineSet
330 756 m 1
 375 703 l 1
 191 549 l 1
 152 598 l 1
 330 756 l 1
EndSplineSet
Refer: 0 97 N 1 0 0 1 0 0 3
EndChar

StartChar: egrave
Encoding: 232 232 171
Width: 523
VWidth: 0
Flags: HW
HStem: 0 73 217 73 408 73
VStem: 59 75<139 218 281 352> 395 75<281 374>
LayerCount: 2
Fore
SplineSet
230 756 m 1
 407 598 l 1
 368 549 l 1
 185 703 l 1
 230 756 l 1
EndSplineSet
Refer: 2 101 N 1 0 0 1 0 0 3
EndChar

StartChar: eacute
Encoding: 233 233 172
Width: 523
VWidth: 0
Flags: HW
HStem: 0 73 217 73 408 73
VStem: 59 75<139 218 281 352> 395 75<281 374>
LayerCount: 2
Fore
SplineSet
384 756 m 1
 429 703 l 1
 245 549 l 1
 206 598 l 1
 384 756 l 1
EndSplineSet
Refer: 2 101 N 1 0 0 1 0 0 3
EndChar

StartChar: igrave
Encoding: 236 236 174
Width: 255
VWidth: 0
Flags: HW
HStem: 0 21<88 168> 462 20<88 168>
VStem: -5 223 88 80<0 482>
LayerCount: 2
Fore
SplineSet
40 756 m 1
 218 598 l 1
 179 549 l 1
 -5 703 l 1
 40 756 l 1
EndSplineSet
Refer: 140 305 N 1 0 0 1 0 0 3
EndChar

StartChar: iacute
Encoding: 237 237 175
Width: 255
VWidth: 0
Flags: HW
HStem: 0 21<88 168> 462 20<88 168>
VStem: 55 222 88 80<0 482>
LayerCount: 2
Fore
SplineSet
232 756 m 1
 277 703 l 1
 94 549 l 1
 55 598 l 1
 232 756 l 1
EndSplineSet
Refer: 140 305 N 1 0 0 1 0 0 3
EndChar

StartChar: ograve
Encoding: 242 242 177
Width: 569
VWidth: 0
Flags: HW
HStem: -10 65<201.366 356.188> 426 64<201.263 354.656>
VStem: 46 83<136.024 343.789> 427 83<134.537 345.226>
LayerCount: 2
Fore
SplineSet
242 756 m 1
 420 598 l 1
 381 549 l 1
 197 703 l 1
 242 756 l 1
EndSplineSet
Refer: 6 111 N 1 0 0 1 0 0 3
EndChar

StartChar: oacute
Encoding: 243 243 178
Width: 569
VWidth: 0
Flags: HW
HStem: -10 65<201.366 356.188> 426 64<201.263 354.656>
VStem: 46 83<136.024 343.789> 427 83<134.537 345.226>
LayerCount: 2
Fore
SplineSet
329 756 m 1
 374 703 l 1
 190 549 l 1
 151 598 l 1
 329 756 l 1
EndSplineSet
Refer: 6 111 N 1 0 0 1 0 0 3
EndChar

StartChar: ugrave
Encoding: 249 249 181
Width: 521
VWidth: 0
Flags: HW
HStem: 0 73 408 73
VStem: 66 81<88 480> 391 82<83 480>
LayerCount: 2
Fore
SplineSet
116 756 m 1
 294 598 l 1
 255 549 l 1
 71 703 l 1
 116 756 l 1
EndSplineSet
Refer: 14 117 N 1 0 0 1 0 0 3
EndChar

StartChar: uacute
Encoding: 250 250 182
Width: 521
VWidth: 0
Flags: HW
HStem: 0 73 408 73
VStem: 66 81<88 480> 391 82<83 480>
LayerCount: 2
Fore
SplineSet
257 756 m 1
 302 703 l 1
 118 549 l 1
 79 598 l 1
 257 756 l 1
EndSplineSet
Refer: 14 117 N 1 0 0 1 0 0 3
EndChar

StartChar: yacute
Encoding: 253 253 184
Width: 507
VWidth: 0
Flags: HW
HStem: 462 20<22 110.384 397.616 481>
LayerCount: 2
Fore
SplineSet
374 756 m 1
 419 703 l 1
 235 549 l 1
 196 598 l 1
 374 756 l 1
EndSplineSet
Refer: 26 121 N 1 0 0 1 0 0 3
EndChar

StartChar: eth
Encoding: 240 240 186
Width: 611
VWidth: 1023
Flags: HW
HStem: 394 66<210.449 377.288>
VStem: 446 77<146.315 349.079>
LayerCount: 2
Fore
SplineSet
446 337 m 1,0,1
 355 394 355 394 291 394 c 0,2,3
 290 394 290 394 288 394 c 0,4,5
 223 393 223 393 182 349 c 0,6,7
 141 304 141 304 141 237 c 0,8,9
 141 227 141 227 142 217 c 0,10,11
 147 166 147 166 170 129 c 1,12,13
 192 94 192 94 228 74 c 0,14,15
 259 56 259 56 292 56 c 0,16,17
 297 56 297 56 302 56 c 0,18,19
 379 61 379 61 417 130 c 0,20,21
 446 182 446 182 446 312 c 0,22,23
 446 324 446 324 446 337 c 1,0,1
436 604 m 1,24,25
 523 508 523 508 523 350 c 0,26,27
 523 233 523 233 510 178 c 128,-1,28
 497 123 497 123 475 86.5 c 128,-1,29
 453 50 453 50 412 22 c 128,-1,30
 371 -6 371 -6 308 -9 c 0,31,32
 299 -9 299 -9 289 -9 c 0,33,34
 178 -9 178 -9 117 58 c 0,35,36
 63 118 63 118 63 213 c 0,37,38
 63 218 63 218 63 224 c 0,39,40
 66 326 66 326 130 396 c 0,41,42
 190 461 190 461 277 460 c 0,43,44
 283 460 283 460 289 460 c 1,45,46
 357 455 357 455 441 407 c 1,47,48
 435 454 435 454 418.5 490.5 c 128,-1,49
 402 527 402 527 365 563 c 1,50,-1
 278 513 l 1,51,-1
 251 559 l 1,52,-1
 321 599 l 1,53,54
 275 631 275 631 220 649 c 1,55,-1
 250 712 l 1,56,57
 332 689 332 689 395 641 c 1,58,-1
 483 692 l 1,59,-1
 510 646 l 1,60,-1
 436 604 l 1,24,25
EndSplineSet
EndChar

StartChar: thorn
Encoding: 254 254 187
Width: 596
VWidth: 1023
Flags: HW
HStem: 421 68<228.703 372.875> 674 20G<93 173>
VStem: 93 80<-259 41 112.971 363.293 432 694> 455 78<138.052 334.787>
LayerCount: 2
Fore
SplineSet
93 694 m 1,0,-1
 173 694 l 1,1,-1
 173 432 l 1,2,3
 221 485 221 485 299 489 c 0,4,5
 306 489 306 489 313 489 c 0,6,7
 357 489 357 489 398 473 c 0,8,9
 445 454 445 454 478 415 c 0,10,11
 533 349 533 349 533 245.5 c 128,-1,12
 533 142 533 142 473 68 c 0,13,14
 440 28 440 28 394 7 c 0,15,16
 353 -11 353 -11 308 -11 c 0,17,18
 302 -11 302 -11 295 -11 c 0,19,20
 222 -7 222 -7 173 41 c 1,21,-1
 173 -259 l 1,22,-1
 93 -259 l 1,23,-1
 93 694 l 1,0,-1
310 58 m 1,24,25
 370 63 370 63 412.5 108 c 128,-1,26
 455 153 455 153 455 226.5 c 128,-1,27
 455 300 455 300 430 340 c 0,28,29
 380 420 380 420 300 421 c 0,30,31
 245 421 245 421 210 383 c 1,32,33
 168 339 168 339 168 246 c 128,-1,34
 168 153 168 153 190 119 c 0,35,36
 229 58 229 58 299 58 c 0,37,38
 305 58 305 58 310 58 c 1,24,25
EndSplineSet
EndChar

StartChar: Eth
Encoding: 208 208 188
Width: 783
VWidth: 1023
Flags: HW
HStem: 0 73<247 498.662> 321 74<57 164 247 372> 621 73<247 502.592>
VStem: 164 83<73 321 395 621> 645 83<226.906 471.748>
LayerCount: 2
Fore
SplineSet
164 694 m 1,0,-1
 357 694 l 2,1,2
 477 694 477 694 555 662 c 0,3,4
 634 630 634 630 684 552 c 0,5,6
 729 483 729 483 729 372 c 0,7,8
 729 359 729 359 728 345 c 0,9,10
 720 184 720 184 635 94 c 128,-1,11
 550 4 550 4 376 0 c 1,12,-1
 164 0 l 1,13,-1
 164 321 l 1,14,-1
 57 321 l 1,15,-1
 57 395 l 1,16,-1
 164 395 l 1,17,-1
 164 694 l 1,0,-1
247 321 m 1,18,-1
 247 73 l 1,19,-1
 348 73 l 2,20,21
 401 73 401 73 445.5 79.5 c 128,-1,22
 490 86 490 86 526 108 c 1,23,24
 639 173 639 173 645 349 c 0,25,26
 645 355 645 355 645 361 c 0,27,28
 645 441 645 441 608 502 c 0,29,30
 549 599 549 599 446 617 c 0,31,32
 425 621 425 621 381 621 c 2,33,-1
 247 621 l 1,34,-1
 247 395 l 1,35,-1
 372 395 l 1,36,-1
 372 321 l 1,37,-1
 247 321 l 1,18,-1
EndSplineSet
EndChar

StartChar: Oslash
Encoding: 216 216 189
Width: 857
VWidth: 0
Flags: HW
HStem: -7 72<336.08 530.593> 628 73<330.495 527.929>
VStem: 105 85<227.865 479.861> 672 85<219.112 469.686>
LayerCount: 2
Fore
SplineSet
196 89 m 1,0,-1
 106 2 l 1,1,-1
 75 34 l 1,2,-1
 168 123 l 1,3,4
 105 214 105 214 105 346 c 0,5,6
 105 429 105 429 131.5 500 c 128,-1,7
 158 571 158 571 207 615 c 0,8,9
 301 701 301 701 432 701 c 0,10,11
 434 701 434 701 435 701 c 0,12,13
 502 701 502 701 564.5 675 c 128,-1,14
 627 649 627 649 670 602 c 1,15,-1
 760 688 l 1,16,-1
 791 656 l 1,17,-1
 698 567 l 1,18,19
 757 481 757 481 757 358 c 0,20,21
 757 352 757 352 757 346 c 0,22,23
 755 265 755 265 728 194.5 c 128,-1,24
 701 124 701 124 653 80 c 0,25,26
 558 -7 558 -7 423.5 -7 c 128,-1,27
 289 -7 289 -7 196 89 c 1,0,-1
609 544 m 1,28,29
 582 577 582 577 535.5 602.5 c 128,-1,30
 489 628 489 628 433 628 c 1,31,32
 322 626 322 626 254 550 c 0,33,34
 189 477 189 477 190 357 c 0,35,36
 190 352 190 352 190 346 c 1,37,38
 191 254 191 254 232 184 c 1,39,-1
 609 544 l 1,28,29
634 507 m 1,40,-1
 258 147 l 1,41,42
 327 65 327 65 437 65 c 0,43,44
 490 65 490 65 538 90 c 128,-1,45
 586 115 586 115 616 156 c 0,46,47
 672 232 672 232 672 335.5 c 128,-1,48
 672 439 672 439 634 507 c 1,40,-1
EndSplineSet
EndChar

StartChar: logicalnot
Encoding: 172 172 190
Width: 683
VWidth: 1023
Flags: HW
HStem: 285 72<61 550>
VStem: 550 73<138 285>
LayerCount: 2
Fore
SplineSet
61 357 m 1,0,-1
 623 357 l 1,1,-1
 623 138 l 1,2,-1
 550 138 l 1,3,-1
 550 285 l 1,4,-1
 61 285 l 1,5,-1
 61 357 l 1,0,-1
EndSplineSet
EndChar

StartChar: macron
Encoding: 175 175 191
Width: 683
VWidth: 1023
Flags: HW
HStem: 728 73<139 544>
LayerCount: 2
Fore
SplineSet
139 801 m 1,0,-1
 544 801 l 1,1,-1
 544 728 l 1,2,-1
 139 728 l 1,3,-1
 139 801 l 1,0,-1
EndSplineSet
EndChar

StartChar: ordfeminine
Encoding: 170 170 192
Width: 374
VWidth: 1023
Flags: HW
HStem: 362 39<147.506 237.587> 498 40<146.939 255> 615 39<99.9282 240.419>
VStem: 85 48<413.985 483.515> 255 47<416.144 498 538 590.62>
LayerCount: 2
Fore
SplineSet
255 538 m 1,0,-1
 255 547 l 2,1,2
 255 580 255 580 245 591 c 0,3,4
 224 615 224 615 184.5 615 c 128,-1,5
 145 615 145 615 103 602 c 1,6,-1
 94 636 l 1,7,8
 142 654 142 654 182 654 c 0,9,10
 252 654 252 654 279 627 c 0,11,12
 303 603 303 603 303 552 c 2,13,-1
 302 371 l 1,14,-1
 269 371 l 1,15,-1
 258 397 l 1,16,17
 226 362 226 362 183.5 362 c 128,-1,18
 141 362 141 362 113 385 c 128,-1,19
 85 408 85 408 85 447 c 0,20,21
 85 513 85 513 151 528 c 0,22,23
 186 536 186 536 255 538 c 1,0,-1
147 479 m 0,24,25
 133 468 133 468 133 449.5 c 128,-1,26
 133 431 133 431 149.5 416 c 128,-1,27
 166 401 166 401 196.5 401 c 128,-1,28
 227 401 227 401 255 441 c 1,29,-1
 255 498 l 1,30,-1
 246 498 l 2,31,32
 169 498 169 498 147 479 c 0,24,25
EndSplineSet
EndChar

StartChar: Thorn
Encoding: 222 222 193
Width: 647
VWidth: 1023
Flags: HW
HStem: 0 21G<142 225> 162 74<225 464.729> 487 73<225 462.996> 674 20G<142 225>
VStem: 142 83<0 162 236 487 560 694>
LayerCount: 2
Fore
SplineSet
142 694 m 1,0,-1
 225 694 l 1,1,-1
 225 560 l 1,2,3
 297 567 297 567 353 567 c 0,4,5
 432 567 432 567 479 553 c 0,6,7
 581 523 581 523 599 430 c 1,8,9
 604 408 604 408 604 384 c 0,10,11
 604 369 604 369 602 353 c 0,12,13
 585 210 585 210 465 175 c 0,14,15
 432 164 432 164 368 160 c 0,16,17
 340 158 340 158 311 159 c 0,18,19
 271 159 271 159 225 162 c 1,20,-1
 225 0 l 1,21,-1
 142 0 l 1,22,-1
 142 694 l 1,0,-1
225 487 m 1,23,-1
 225 236 l 1,24,25
 282 232 282 232 326 232 c 0,26,27
 399 232 399 232 437 244 c 0,28,29
 513 270 513 270 519 360 c 0,30,31
 519 366 519 366 519 371 c 0,32,33
 519 451 519 451 439 479 c 0,34,35
 399 492 399 492 327 492 c 0,36,37
 282 492 282 492 225 487 c 1,23,-1
EndSplineSet
EndChar

StartChar: quotedblleft
Encoding: 8220 8220 194
Width: 405
VWidth: 1023
Flags: HW
HStem: 482 212<81 115 266 300>
LayerCount: 2
Fore
SplineSet
176 694 m 1,0,-1
 115 482 l 1,1,-1
 20 482 l 1,2,-1
 81 694 l 1,3,-1
 176 694 l 1,0,-1
361 694 m 1,4,-1
 300 482 l 1,5,-1
 205 482 l 1,6,-1
 266 694 l 1,7,-1
 361 694 l 1,4,-1
EndSplineSet
EndChar

StartChar: quotedblright
Encoding: 8221 8221 195
Width: 405
VWidth: 1023
Flags: HW
HStem: 482 212<81 115 266 300>
LayerCount: 2
Fore
SplineSet
81 694 m 1,0,-1
 176 694 l 1,1,-1
 115 482 l 1,2,-1
 20 482 l 1,3,-1
 81 694 l 1,0,-1
266 694 m 1,4,-1
 361 694 l 1,5,-1
 300 482 l 1,6,-1
 205 482 l 1,7,-1
 266 694 l 1,4,-1
EndSplineSet
EndChar

StartChar: Euro
Encoding: 8364 8364 201
Width: 651
VWidth: 1023
Flags: HW
HStem: -10 76<345.559 559.486> 246 64<24 124 212 412> 414 64<56 127 224 443> 625 74<338.062 553.681>
VStem: 123 74<310 412.97> 133 79<196.566 246>
LayerCount: 2
Fore
SplineSet
133 246 m 1,0,-1
 24 246 l 1,1,-1
 24 310 l 1,2,-1
 124 310 l 1,3,4
 123 322 123 322 123 354 c 0,5,6
 123 386 123 386 127 414 c 1,7,-1
 56 414 l 1,8,-1
 56 478 l 1,9,-1
 142 478 l 1,10,-1
 145 488 l 1,11,12
 191 619 191 619 307 672 c 0,13,14
 365 699 365 699 443 699 c 0,15,16
 520 699 520 699 604 662 c 1,17,-1
 582 593 l 1,18,19
 499 625 499 625 438 625 c 0,20,21
 328 625 328 625 262 542 c 0,22,23
 238 512 238 512 224 478 c 1,24,-1
 443 478 l 1,25,-1
 443 414 l 1,26,-1
 204 414 l 1,27,28
 197 382 197 382 197 358 c 0,29,30
 197 334 197 334 199 310 c 1,31,-1
 412 310 l 1,32,-1
 412 246 l 1,33,-1
 212 246 l 1,34,35
 236 174 236 174 296 120 c 0,36,37
 356 66 356 66 448 66 c 0,38,39
 515 66 515 66 590 96 c 1,40,-1
 613 34 l 1,41,42
 522 -10 522 -10 442 -10 c 0,43,44
 362 -10 362 -10 304 17 c 0,45,46
 170 80 170 80 133 246 c 1,0,-1
EndSplineSet
EndChar

StartChar: emdash
Encoding: 8212 8212 202
Width: 675
VWidth: 1023
Flags: HW
HStem: 288 67<0 676>
LayerCount: 2
Fore
SplineSet
0 355 m 1,0,-1
 676 355 l 1,1,-1
 676 288 l 1,2,-1
 0 288 l 1,3,-1
 0 355 l 1,0,-1
EndSplineSet
EndChar

StartChar: endash
Encoding: 8211 8211 203
Width: 565
VWidth: 1023
Flags: HW
HStem: 288 67<0 566>
LayerCount: 2
Fore
SplineSet
0 355 m 1,0,-1
 566 355 l 1,1,-1
 566 288 l 1,2,-1
 0 288 l 1,3,-1
 0 355 l 1,0,-1
EndSplineSet
EndChar

StartChar: afii00208
Encoding: 8213 8213 204
Width: 781
VWidth: 1023
Flags: HW
HStem: 288 67<0 781>
LayerCount: 2
Fore
SplineSet
0 355 m 1,0,-1
 781 355 l 1,1,-1
 781 288 l 1,2,-1
 0 288 l 1,3,-1
 0 355 l 1,0,-1
EndSplineSet
EndChar

StartChar: bullet
Encoding: 8226 8226 206
Width: 680
VWidth: 0
Flags: HW
HStem: 99 476<242.083 437.917>
VStem: 102 476<239.083 434.917>
LayerCount: 2
Back
SplineSet
475 205 m 1,0,-1
 205 205 l 1,1,-1
 205 475 l 1,2,-1
 475 475 l 1,3,-1
 475 205 l 1,0,-1
EndSplineSet
Fore
SplineSet
173 337 m 133,-1,1
 173 406 173 406 222 455 c 128,-1,2
 271 504 271 504 340 504 c 129,-1,3
 409 504 409 504 458 455 c 128,-1,4
 507 406 507 406 507 337 c 129,-1,5
 507 268 507 268 458 219 c 128,-1,6
 409 170 409 170 340 170 c 129,-1,7
 271 170 271 170 222 219 c 128,-1,0
 173 268 173 268 173 337 c 133,-1,1
EndSplineSet
EndChar

StartChar: interrobang
Encoding: 8253 8253 207
Width: 510
VWidth: 1023
Flags: HW
HStem: 0 98<152 250>
VStem: 152 98<0 98> 164 73<191 274.948 369 527> 347 81<453.482 584.949>
LayerCount: 2
Fore
SplineSet
152 98 m 1,0,-1
 250 98 l 1,1,-1
 250 0 l 1,2,-1
 152 0 l 1,3,-1
 152 98 l 1,0,-1
49 668 m 1,4,5
 120 702 120 702 196 702 c 0,6,7
 427 702 427 702 428 536 c 0,8,9
 428 456 428 456 380 398 c 0,10,11
 365 381 365 381 335 355.5 c 128,-1,12
 305 330 305 330 285 310 c 128,-1,13
 265 290 265 290 251 259 c 128,-1,14
 237 228 237 228 237 198 c 2,15,-1
 237 191 l 1,16,-1
 164 191 l 1,17,-1
 164 527 l 1,18,-1
 237 527 l 1,19,-1
 237 369 l 1,20,-1
 255 384 l 2,21,22
 290 414 290 414 304 428 c 0,23,24
 347 471 347 471 347 527.5 c 128,-1,25
 347 584 347 584 293 612 c 0,26,27
 254 632 254 632 199 632 c 0,28,29
 177 632 177 632 153 629 c 0,30,31
 106 622 106 622 74 609 c 1,32,-1
 49 668 l 1,4,5
EndSplineSet
EndChar

StartChar: quoteleft
Encoding: 8216 8216 208
Width: 219
VWidth: 1023
Flags: HW
HStem: 482 212<105 139>
VStem: 44 156
LayerCount: 2
Fore
SplineSet
44 694 m 1,0,-1
 139 694 l 1,1,-1
 200 482 l 1,2,-1
 105 482 l 1,3,-1
 44 694 l 1,0,-1
EndSplineSet
EndChar

StartChar: quoteright
Encoding: 8217 8217 209
Width: 219
VWidth: 1023
Flags: HW
HStem: 482 212<81 115>
VStem: 20 156
LayerCount: 2
Fore
SplineSet
81 694 m 1,0,-1
 176 694 l 1,1,-1
 115 482 l 1,2,-1
 20 482 l 1,3,-1
 81 694 l 1,0,-1
EndSplineSet
EndChar

StartChar: fraction
Encoding: 8260 8260 210
Width: 505
VWidth: 0
Flags: HW
HStem: 0 21G<10 107.527> 674 20G<399.444 496>
LayerCount: 2
Fore
SplineSet
411 694 m 1,0,-1
 496 694 l 1,1,-1
 96 0 l 1,2,-1
 10 0 l 1,3,-1
 411 694 l 1,0,-1
EndSplineSet
EndChar

StartChar: florin
Encoding: 402 402 211
Width: 400
VWidth: 1023
Flags: HW
HStem: -278 67<-48.3591 107.568> 419 63<53 136 217 378> 631 67<247.572 403.359>
VStem: 136 81<-182.765 419 482 599.453>
LayerCount: 2
Fore
SplineSet
215 -159 m 1,0,-1
 212 -179 l 2,1,2
 212 -182 212 -182 205 -198 c 0,3,4
 189 -238 189 -238 147 -258 c 128,-1,5
 105 -278 105 -278 54 -278 c 128,-1,6
 3 -278 3 -278 -58 -259 c 1,7,-1
 -46 -200 l 1,8,9
 -5 -211 -5 -211 25 -211 c 0,10,11
 94 -211 94 -211 117 -179 c 0,12,13
 136 -154 136 -154 136 -109 c 2,14,-1
 136 419 l 1,15,-1
 53 419 l 1,16,-1
 53 482 l 1,17,-1
 136 482 l 1,18,-1
 136 535 l 2,19,20
 136 596 136 596 156 630 c 0,21,22
 197 698 197 698 299 698 c 0,23,24
 352 698 352 698 413 679 c 1,25,-1
 401 619 l 1,26,27
 356 631 356 631 330 631 c 0,28,29
 304 630 304 630 286 626 c 0,30,31
 251 617 251 617 238 600 c 0,32,33
 222 577 222 577 219.5 561.5 c 128,-1,34
 217 546 217 546 217 528 c 2,35,-1
 217 482 l 1,36,-1
 378 482 l 1,37,-1
 378 419 l 1,38,-1
 217 419 l 1,39,-1
 217 -130 l 1,40,-1
 216 -147 l 1,41,-1
 215 -159 l 1,0,-1
EndSplineSet
EndChar

StartChar: guilsinglleft
Encoding: 8249 8249 212
Width: 275
VWidth: 1023
Flags: HW
HStem: 462 20G<147.067 251>
VStem: 37 214
LayerCount: 2
Fore
SplineSet
161 482 m 1,0,-1
 251 482 l 1,1,-1
 118 304 l 1,2,-1
 251 126 l 1,3,-1
 161 126 l 1,4,-1
 37 304 l 1,5,-1
 161 482 l 1,0,-1
EndSplineSet
EndChar

StartChar: guilsinglright
Encoding: 8250 8250 213
Width: 275
VWidth: 1023
Flags: HW
HStem: 462 20G<24 128.933>
VStem: 24 215
LayerCount: 2
Fore
SplineSet
24 482 m 1,0,-1
 115 482 l 1,1,-1
 239 304 l 1,2,-1
 115 126 l 1,3,-1
 24 126 l 1,4,-1
 158 304 l 1,5,-1
 24 482 l 1,0,-1
EndSplineSet
EndChar

StartChar: dagger
Encoding: 8224 8224 214
Width: 459
VWidth: 1023
Flags: HW
HStem: 569 54<83 195 265 377>
VStem: 195 70<72 574 618 738>
LayerCount: 2
Fore
SplineSet
195 72 m 1,0,-1
 195 574 l 1,1,-1
 83 569 l 1,2,-1
 83 623 l 1,3,-1
 195 618 l 1,4,-1
 195 738 l 1,5,-1
 265 738 l 1,6,-1
 265 618 l 1,7,-1
 377 623 l 1,8,-1
 377 569 l 1,9,-1
 265 574 l 1,10,-1
 265 72 l 1,11,-1
 195 72 l 1,0,-1
EndSplineSet
EndChar

StartChar: daggerdbl
Encoding: 8225 8225 215
Width: 459
VWidth: 1023
Flags: HW
HStem: -2 53<83 195 265 377> 569 54<83 195 265 377>
VStem: 195 70<-117 2 46 574 618 738>
LayerCount: 2
Fore
SplineSet
195 46 m 1,0,-1
 195 574 l 1,1,-1
 83 569 l 1,2,-1
 83 623 l 1,3,-1
 195 618 l 1,4,-1
 195 738 l 1,5,-1
 265 738 l 1,6,-1
 265 618 l 1,7,-1
 377 623 l 1,8,-1
 377 569 l 1,9,-1
 265 574 l 1,10,-1
 265 46 l 1,11,-1
 377 51 l 1,12,-1
 377 -2 l 1,13,-1
 265 2 l 1,14,-1
 265 -117 l 1,15,-1
 195 -117 l 1,16,-1
 195 2 l 1,17,-1
 83 -2 l 1,18,-1
 83 51 l 1,19,-1
 195 46 l 1,0,-1
EndSplineSet
EndChar

StartChar: quotesinglbase
Encoding: 8218 8218 216
Width: 219
VWidth: 1023
Flags: HW
HStem: -105 211<81 115>
VStem: 20 156
LayerCount: 2
Fore
SplineSet
81 106 m 1,0,-1
 176 106 l 1,1,-1
 115 -105 l 1,2,-1
 20 -105 l 1,3,-1
 81 106 l 1,0,-1
EndSplineSet
EndChar

StartChar: quotedblbase
Encoding: 8222 8222 217
Width: 405
VWidth: 1023
Flags: HW
HStem: -107 211<81 115 266 300>
LayerCount: 2
Fore
SplineSet
81 104 m 1,0,-1
 176 104 l 1,1,-1
 115 -107 l 1,2,-1
 20 -107 l 1,3,-1
 81 104 l 1,0,-1
266 104 m 1,4,-1
 361 104 l 1,5,-1
 300 -107 l 1,6,-1
 205 -107 l 1,7,-1
 266 104 l 1,4,-1
EndSplineSet
EndChar

StartChar: perthousand
Encoding: 8240 8240 218
Width: 937
VWidth: 1023
Flags: HW
HStem: 0 21G<42 138.631> 32 46<430.593 521.503 729.357 817.503> 257 47<430.443 523.265 726.08 819.527> 394 45<116.357 203.882> 619 47<113.571 206.539> 674 20G<501.369 598>
VStem: 48 48<456.413 600.141> 223 48<458.867 603.13> 365 47<96.3054 239.14> 540 48<96.9432 240.504> 661 47<96.3054 239.14> 836 48<96.9432 240.504>
LayerCount: 2
Fore
SplineSet
223 519 m 128,-1,1
 223 558 223 558 216.5 577 c 128,-1,2
 210 596 210 596 196.5 607.5 c 128,-1,3
 183 619 183 619 157.5 619 c 128,-1,4
 132 619 132 619 114 599.5 c 128,-1,5
 96 580 96 580 96 543 c 0,6,7
 96 478 96 478 118 456 c 1,8,9
 137 439 137 439 160.5 439 c 128,-1,10
 184 439 184 439 203.5 459.5 c 128,-1,0
 223 480 223 480 223 519 c 128,-1,1
160 666 m 0,11,12
 239 666 239 666 263 591 c 0,13,14
 271 564 271 564 271 533 c 0,15,16
 271 469 271 469 239.5 431.5 c 128,-1,17
 208 394 208 394 160 394 c 128,-1,18
 112 394 112 394 80 427.5 c 128,-1,19
 48 461 48 461 48 528.5 c 128,-1,20
 48 596 48 596 81 631 c 128,-1,21
 114 666 114 666 160 666 c 0,11,12
540 157 m 0,22,23
 540 223 540 223 513 246 c 0,24,25
 499 257 499 257 474 257 c 129,-1,26
 449 257 449 257 430.5 237 c 128,-1,27
 412 217 412 217 412 180 c 0,28,29
 412 118 412 118 435 95 c 1,30,31
 454 78 454 78 478 78 c 128,-1,32
 502 78 502 78 521 98 c 128,-1,33
 540 118 540 118 540 157 c 0,22,23
547 281 m 0,34,35
 588 252 588 252 588 180 c 128,-1,36
 588 108 588 108 556 70 c 128,-1,37
 524 32 524 32 476 32 c 128,-1,38
 428 32 428 32 396.5 64.5 c 128,-1,39
 365 97 365 97 365 166 c 128,-1,40
 365 235 365 235 398 269.5 c 128,-1,41
 431 304 431 304 473 304 c 128,-1,42
 515 304 515 304 547 281 c 0,34,35
830 215 m 0,43,44
 815 257 815 257 764 257 c 0,45,46
 745 257 745 257 726.5 237 c 128,-1,47
 708 217 708 217 708 182 c 0,48,49
 708 118 708 118 731 95 c 1,50,51
 750 78 750 78 774 78 c 128,-1,52
 798 78 798 78 817 98 c 128,-1,53
 836 118 836 118 836 157.5 c 128,-1,54
 836 197 836 197 830 215 c 0,43,44
843 281 m 0,55,56
 884 252 884 252 884 180 c 128,-1,57
 884 108 884 108 852 70 c 128,-1,58
 820 32 820 32 772 32 c 128,-1,59
 724 32 724 32 692.5 65.5 c 128,-1,60
 661 99 661 99 661 167 c 128,-1,61
 661 235 661 235 694 269.5 c 128,-1,62
 727 304 727 304 769 304 c 128,-1,63
 811 304 811 304 843 281 c 0,55,56
515 694 m 1,64,-1
 598 694 l 1,65,-1
 125 0 l 1,66,-1
 42 0 l 1,67,-1
 515 694 l 1,64,-1
EndSplineSet
EndChar

StartChar: circumflex
Encoding: 710 710 219
Width: 722
VWidth: 1023
Flags: HW
HStem: 570 182
VStem: 216 263
LayerCount: 2
Fore
SplineSet
354 752 m 1,0,-1
 479 613 l 1,1,-1
 434 570 l 1,2,-1
 348 666 l 1,3,-1
 259 570 l 1,4,-1
 216 608 l 1,5,-1
 354 752 l 1,0,-1
EndSplineSet
EndChar

StartChar: tilde
Encoding: 732 732 220
Width: 683
VWidth: 1023
Flags: HW
HStem: 604 149
LayerCount: 2
Fore
SplineSet
502 753 m 1,0,-1
 554 730 l 1,1,-1
 541 704 l 2,2,3
 519 659 519 659 502 640 c 0,4,5
 469 604 469 604 430 604 c 0,6,7
 412 604 412 604 393 612 c 0,8,9
 364 623 364 623 333.5 652.5 c 128,-1,10
 303 682 303 682 295 687 c 0,11,12
 284 693 284 693 273 693 c 0,13,14
 245 693 245 693 224 651 c 1,15,-1
 201 604 l 1,16,-1
 149 627 l 1,17,-1
 163 654 l 1,18,19
 185 699 185 699 201 717 c 0,20,21
 234 753 234 753 273 753 c 0,22,23
 291 753 291 753 311 745 c 0,24,25
 339 734 339 734 368 705.5 c 128,-1,26
 397 677 397 677 408 671 c 0,27,28
 419 665 419 665 430 665 c 0,29,30
 458 665 458 665 479 707 c 2,31,-1
 502 753 l 1,0,-1
EndSplineSet
EndChar

StartChar: breve
Encoding: 728 728 222
Width: 526
VWidth: 0
Flags: HW
HStem: 550 157
LayerCount: 2
Fore
SplineSet
399 707 m 1,0,-1
 454 669 l 1,1,2
 422 627 422 627 372 591 c 128,-1,3
 322 555 322 555 271 550 c 0,4,5
 260 549 260 549 249 549 c 0,6,7
 166 549 166 549 111 609 c 0,8,9
 87 634 87 634 72 675 c 1,10,-1
 132 707 l 1,11,12
 157 655 157 655 193 634 c 0,13,14
 224 616 224 616 256 616 c 0,15,16
 298 616 298 616 340 647 c 0,17,18
 371 669 371 669 399 707 c 1,0,-1
EndSplineSet
EndChar

StartChar: trademark
Encoding: 8482 8482 225
Width: 695
VWidth: 1023
Flags: HW
HStem: 699 39<54 139 187 272>
VStem: 139 48<460 699> 337 48<460 680> 569 48<460 678>
LayerCount: 2
Fore
SplineSet
187 460 m 1,0,-1
 139 460 l 1,1,-1
 139 699 l 1,2,-1
 54 699 l 1,3,-1
 54 738 l 1,4,-1
 272 738 l 1,5,-1
 272 699 l 1,6,-1
 187 699 l 1,7,-1
 187 460 l 1,0,-1
337 738 m 1,8,-1
 394 738 l 1,9,-1
 478 583 l 1,10,-1
 559 738 l 1,11,-1
 617 738 l 1,12,-1
 617 460 l 1,13,-1
 569 460 l 1,14,-1
 569 678 l 1,15,-1
 491 535 l 1,16,-1
 458 535 l 1,17,-1
 385 680 l 1,18,-1
 385 460 l 1,19,-1
 337 460 l 1,20,-1
 337 738 l 1,8,-1
EndSplineSet
EndChar

StartChar: Amacron
Encoding: 256 256 226
Width: 648
VWidth: 0
Flags: HW
HStem: 0 21<30 113.931 527.069 618> 202 72<202 438> 674 20<269.882 378.118> 766 63<145 506>
LayerCount: 2
Fore
SplineSet
145 829 m 1
 506 829 l 1
 506 766 l 1
 145 766 l 1
 145 829 l 1
EndSplineSet
Refer: 32 65 N 1 0 0 1 0 0 3
EndChar

StartChar: amacron
Encoding: 257 257 227
Width: 491
VWidth: 0
Flags: HW
HStem: 0 73 217 73<197 355> 408 73 588 63<129 389>
VStem: 345 82<91 224 284 384>
LayerCount: 2
Fore
SplineSet
129 651 m 1
 389 651 l 1
 389 588 l 1
 129 588 l 1
 129 651 l 1
EndSplineSet
Refer: 0 97 N 1 0 0 1 0 0 3
EndChar

StartChar: cacute
Encoding: 263 263 231
Width: 467
VWidth: 0
Flags: HW
HStem: -10 67<209.074 393.763> 408 68<206.038 398.764>
LayerCount: 2
Fore
SplineSet
323 756 m 1
 368 703 l 1
 184 549 l 1
 145 598 l 1
 323 756 l 1
EndSplineSet
Refer: 18 99 N 1 0 0 1 0 0 3
EndChar

StartChar: dcaron
Encoding: 271 271 239
Width: 695
VWidth: 0
Flags: HW
HStem: 0 73 408 73 651 20
VStem: 56 85<138 347> 420 83<79 415 471 671>
LayerCount: 2
Fore
SplineSet
590 738 m 1
 671 738 l 1
 613 547 l 1
 533 547 l 1
 590 738 l 1
EndSplineSet
Refer: 1 100 N 1 0 0 1 0 0 2
EndChar

StartChar: Emacron
Encoding: 274 274 241
Width: 556
VWidth: 0
Flags: HW
HStem: 0 73<173 496> 321 73<173 469> 621 73<173 496> 766 63<124 482>
VStem: 90 83<73 321 394 621>
LayerCount: 2
Fore
SplineSet
124 829 m 1
 482 829 l 1
 482 766 l 1
 124 766 l 1
 124 829 l 1
EndSplineSet
Refer: 34 69 N 1 0 0 1 0 0 3
EndChar

StartChar: Itilde
Encoding: 296 296 258
Width: 328
VWidth: 0
Flags: HW
HStem: 0 21<140.4 223.4> 674 20<140.4 223.4>
VStem: 19 314 140 83<0 694>
LayerCount: 2
Fore
SplineSet
70 773 m 1
 19 787 l 1
 32 835 l 2
 50 901 50 901 107 910 c 0
 114 911 114 911 122 911 c 0
 149 911 149 911 168 892 c 0
 173 887 173 887 182 875 c 2
 205 844 l 2
 218 826 218 826 227 822 c 0
 233 820 233 820 238 820 c 0
 253 820 253 820 260 837 c 0
 263 844 263 844 269 862 c 2
 282 910 l 1
 333 896 l 1
 320 849 l 2
 298 770 298 770 250 759 c 0
 240 757 240 757 231 757 c 0
 204 757 204 757 185 777 c 0
 182 780 182 780 170 794 c 1
 147 825 l 2
 131 845 131 845 123 848 c 0
 117 850 117 850 111 850 c 0
 91 850 91 850 83 821 c 2
 70 773 l 1
EndSplineSet
Refer: 40 73 N 1 0 0 1 0 0 3
EndChar

StartChar: itilde
Encoding: 297 297 259
Width: 255
VWidth: 0
Flags: HW
HStem: -4 21<88 168> 458 20<88 168> 674 20G<228.583 285>
VStem: -29 314 88 80<-4 478>
LayerCount: 2
Fore
SplineSet
22 558 m 1
 -29 571 l 1
 -16 619 l 2
 2 685 2 685 59 694 c 0
 66 695 66 695 73 695 c 0
 101 695 101 695 120 676 c 0
 125 671 125 671 134 659 c 2
 157 628 l 2
 170 610 170 610 179 606 c 0
 186 604 186 604 190 604 c 0
 205 604 205 604 212 621 c 0
 215 628 215 628 221 646 c 1
 234 694 l 1
 285 680 l 1
 272 633 l 2
 250 554 250 554 202 543 c 0
 192 541 192 541 183 541 c 0
 156 541 156 541 137 561 c 0
 134 564 134 564 122 578 c 1
 99 609 l 2
 83 629 83 629 75 632 c 0
 69 634 69 634 63 634 c 0
 43 634 43 634 35 605 c 2
 22 558 l 1
EndSplineSet
Refer: 140 305 N 1 0 0 1 0 -4 3
EndChar

StartChar: Imacron
Encoding: 298 298 260
Width: 328
VWidth: 0
Flags: HW
HStem: 0 21<140.4 223.4> 674 20<140.4 223.4> 766 63<82.4004 282.4>
VStem: 82 200<766 829> 140 83<0 694>
LayerCount: 2
Fore
SplineSet
82 829 m 1
 282 829 l 1
 282 766 l 1
 82 766 l 1
 82 829 l 1
EndSplineSet
Refer: 40 73 N 1 0 0 1 0 0 3
EndChar

StartChar: imacron
Encoding: 299 299 261
Width: 255
VWidth: 0
Flags: HW
HStem: 0 21<88 168> 462 20<88 168> 588 63<39 217>
VStem: 39 178<588 651> 88 80<0 482>
LayerCount: 2
Fore
SplineSet
39 651 m 1
 217 651 l 1
 217 588 l 1
 39 588 l 1
 39 651 l 1
EndSplineSet
Refer: 140 305 N 1 0 0 1 0 0 3
EndChar

StartChar: Ibreve
Encoding: 300 300 262
Width: 328
VWidth: 0
Flags: HW
HStem: 0 21<120.4 203.4> 674 20<120.4 203.4>
VStem: 4 313 120 83<0 694>
LayerCount: 2
Fore
SplineSet
272 914 m 1
 317 876 l 1
 288 829 288 829 249 798 c 0
 209 767 209 767 169 762 c 0
 157 761 157 761 147 761 c 0
 67 761 67 761 24 836 c 0
 10 862 10 862 4 883 c 1
 64 915 l 1
 80 869 80 869 113 847 c 0
 135 832 135 832 159 832 c 0
 201 832 201 832 246 882 c 0
 248 885 248 885 258 896 c 0
 267 907 267 907 272 914 c 1
EndSplineSet
Refer: 40 73 N 1 0 0 1 -20 0 3
EndChar

StartChar: ibreve
Encoding: 301 301 263
Width: 255
VWidth: 0
Flags: HW
HStem: 0 21<88 168> 462 20<88 168> 680 21G<5.63636 48 246.5 274.684>
VStem: -18 314 88 80<0 482>
LayerCount: 2
Fore
SplineSet
251 700 m 1
 296 662 l 1
 266 611 266 611 226 582 c 0
 186 553 186 553 148 548 c 0
 136 547 136 547 125 547 c 0
 44 547 44 547 2 622 c 0
 -12 649 -12 649 -18 668 c 1
 42 701 l 1
 59 656 59 656 92 633 c 0
 115 618 115 618 138 618 c 0
 180 618 180 618 225 667 c 1
 245 692 245 692 251 700 c 1
EndSplineSet
Refer: 140 305 N 1 0 0 1 0 0 3
EndChar

StartChar: lcaron
Encoding: 318 318 276
Width: 393
VWidth: 0
Flags: HW
HStem: 0 21<98 178> 651 20<98 178>
VStem: 60 80<0 671.443>
LayerCount: 2
Fore
SplineSet
288 738 m 1
 369 738 l 1
 311 547 l 1
 230 547 l 1
 288 738 l 1
EndSplineSet
Refer: 10 108 N 1 0 0 1.00066 0 0 2
EndChar

StartChar: Omacron
Encoding: 332 332 285
Width: 811
VWidth: 0
Flags: HW
HStem: -8 74<322.31 515.429> 626 74<322.31 515.429> 766 63<250 611>
VStem: 90 94<221.501 470.277> 654 94<221.501 470.11>
LayerCount: 2
Fore
SplineSet
250 829 m 1
 611 829 l 1
 611 766 l 1
 250 766 l 1
 250 829 l 1
EndSplineSet
Refer: 31 79 N 1 0 0 1 0 0 3
EndChar

StartChar: omacron
Encoding: 333 333 286
Width: 569
VWidth: 0
Flags: HW
HStem: -10 65<201.366 356.188> 426 64<201.263 354.656> 588 63<107 468>
VStem: 46 83<136.024 343.789> 427 83<134.537 345.226>
LayerCount: 2
Fore
SplineSet
107 651 m 1
 468 651 l 1
 468 588 l 1
 107 588 l 1
 107 651 l 1
EndSplineSet
Refer: 6 111 N 1 0 0 1 0 0 3
EndChar

StartChar: racute
Encoding: 341 341 290
Width: 391
VWidth: 0
Flags: HW
HStem: 0 21<88 171> 402 79<299.077 364> 418 72<207.126 357.922>
VStem: 88 83<0 395.646>
LayerCount: 2
Fore
SplineSet
296 756 m 1
 341 703 l 1
 157 549 l 1
 118 598 l 1
 296 756 l 1
EndSplineSet
Refer: 20 114 N 1 0 0 1 0 0 3
EndChar

StartChar: sacute
Encoding: 347 347 296
Width: 497
VWidth: 0
Flags: HW
HStem: -10 68<112.539 330.762> 408 67<295.706 414.2>
VStem: 80 85 360 85
LayerCount: 2
Fore
SplineSet
337 756 m 1
 382 703 l 1
 198 549 l 1
 159 598 l 1
 337 756 l 1
EndSplineSet
Refer: 7 115 N 1 0 0 1 0 0 3
EndChar

StartChar: Scedilla
Encoding: 350 350 299
Width: 599
VWidth: 0
Flags: HW
HStem: -9 81<162.242 386.841> 622 78<230.37 485.598>
VStem: 74 91<457.824 569.074> 449 90<123.688 240.321>
LayerCount: 2
Fore
SplineSet
266 12 m 1
 337 9 l 1
 318 -66 l 1
 353 -77 353 -77 366 -85 c 0
 402 -106 402 -106 406 -150 c 0
 406 -154 406 -154 406 -159 c 0
 406 -198 406 -198 370 -226 c 0
 342 -248 342 -248 302 -247 c 0
 284 -247 284 -247 263 -243 c 0
 242 -238 242 -238 203 -227 c 2
 186 -222 l 1
 201 -171 l 1
 215 -175 l 2
 282 -195 282 -195 303 -195 c 1
 339 -192 339 -192 347 -174 c 0
 351 -165 351 -165 351 -158 c 0
 350 -150 350 -150 346 -144 c 0
 338 -132 338 -132 328 -128 c 0
 318 -124 318 -124 302 -119 c 2
 236 -99 l 1
 266 12 l 1
EndSplineSet
Refer: 55 83 N 1 0 0 1 0 0 3
EndChar

StartChar: Tcommaaccent
Encoding: 354 354 301
Width: 590
VWidth: 0
Flags: HW
HStem: 621 73<42 273 356 588>
VStem: 273 83<-67.2031 621>
LayerCount: 2
Fore
SplineSet
42 694 m 1,0,-1
 588 694 l 1,1,-1
 588 621 l 1,2,-1
 356 621 l 1,3,-1
 356 78 l 2,4,5
 356 29 356 29 353.5 9 c 128,-1,6
 351 -11 351 -11 341 -44 c 2,7,-1
 333 -71 l 1,8,9
 383 -86 383 -86 404 -118 c 0,10,11
 417 -137 417 -137 416 -157 c 0,12,13
 416 -170 416 -170 412 -182 c 0,14,15
 400 -214 400 -214 377 -230 c 0,16,17
 348 -251 348 -251 309 -251 c 0,18,19
 290 -251 290 -251 269 -246 c 0,20,21
 247 -240 247 -240 212 -230 c 2,22,-1
 195 -225 l 1,23,-1
 210 -174 l 1,24,-1
 225 -179 l 1,25,26
 293 -199 293 -199 310 -199 c 0,27,28
 348 -200 348 -200 357 -178 c 0,29,30
 360 -170 360 -170 360 -162 c 0,31,32
 360 -150 360 -150 350 -140 c 0,33,34
 342 -132 342 -132 307 -121 c 2,35,-1
 246 -102 l 1,36,-1
 261 -48 l 2,37,38
 271 -11 271 -11 272 5 c 128,-1,39
 273 21 273 21 273 73 c 2,40,-1
 273 621 l 1,41,-1
 42 621 l 1,42,-1
 42 694 l 1,0,-1
EndSplineSet
EndChar

StartChar: Umacron
Encoding: 362 362 307
Width: 709
VWidth: 0
Flags: HW
HStem: -10 72<253.432 454.377> 674 20<91 174 535 618> 766 63<142 547>
VStem: 91 83<136.866 694> 535 83<139.491 694>
LayerCount: 2
Fore
SplineSet
142 829 m 1
 547 829 l 1
 547 766 l 1
 142 766 l 1
 142 829 l 1
EndSplineSet
Refer: 51 85 N 1 0 0 1 0 0 3
EndChar

StartChar: umacron
Encoding: 363 363 308
Width: 521
VWidth: 0
Flags: HW
HStem: 0 73 408 73 588 63<26 318>
VStem: 66 81<88 480> 391 82<83 480>
LayerCount: 2
Fore
SplineSet
26 651 m 1
 318 651 l 1
 318 588 l 1
 26 588 l 1
 26 651 l 1
EndSplineSet
Refer: 14 117 N 1 0 0 1 0 0 3
EndChar

StartChar: zacute
Encoding: 378 378 318
Width: 526
VWidth: 0
Flags: HW
HStem: 0 63<177 453> 419 63<73 336>
LayerCount: 2
Fore
SplineSet
335 756 m 1
 380 703 l 1
 196 549 l 1
 157 598 l 1
 335 756 l 1
EndSplineSet
Refer: 25 122 N 1 0 0 1 0 0 3
EndChar

StartChar: zdotaccent
Encoding: 380 380 320
Width: 526
VWidth: 0
Flags: HW
HStem: 0 63<177 453> 419 63<73 336> 602 92<211 306>
VStem: 211 95<602 694>
LayerCount: 2
Fore
SplineSet
211 694 m 1,0,-1
 306 694 l 1,1,-1
 306 602 l 1,2,-1
 211 602 l 1,3,-1
 211 694 l 1,0,-1
73 482 m 1,4,-1
 441 482 l 1,5,-1
 441 440 l 1,6,-1
 177 63 l 1,7,-1
 453 63 l 1,8,-1
 453 0 l 1,9,-1
 73 0 l 1,10,-1
 73 42 l 1,11,-1
 336 419 l 1,12,-1
 73 419 l 1,13,-1
 73 482 l 1,4,-1
EndSplineSet
EndChar

StartChar: eng
Encoding: 331 331 322
Width: 574
VWidth: 1023
Flags: HW
HStem: 0 21G<88 168> 462 20G<88 152.5>
VStem: 88 80<0 392.62> 406 80<-81.7498 373.103>
LayerCount: 2
Fore
SplineSet
88 482 m 1,0,-1
 144 482 l 1,1,-1
 161 442 l 1,2,3
 221 475 221 475 282 487 c 1,4,5
 308 493 308 493 331 493 c 0,6,7
 395 493 395 493 439 450 c 0,8,9
 480 410 480 410 485 331 c 0,10,11
 486 319 486 319 486 257 c 2,12,-1
 486 -8 l 2,13,14
 486 -72 486 -72 472 -100 c 0,15,16
 444 -152 444 -152 396 -164 c 0,17,18
 375 -169 375 -169 350 -169 c 0,19,20
 317 -169 317 -169 277 -160 c 1,21,-1
 242 -151 l 1,22,-1
 254 -92 l 1,23,-1
 292 -98 l 1,24,25
 311 -101 311 -101 326 -101 c 0,26,27
 396 -101 396 -101 405 -36 c 0,28,29
 406 -29 406 -29 406 -5 c 2,30,-1
 406 291 l 2,31,32
 406 347 406 347 388.5 374.5 c 128,-1,33
 371 402 371 402 339 413 c 0,34,35
 319 419 319 419 296 419 c 0,36,37
 241 419 241 419 168 382 c 1,38,-1
 168 0 l 1,39,-1
 88 0 l 1,40,-1
 88 482 l 1,0,-1
EndSplineSet
EndChar

StartChar: uni0237
Encoding: 567 567 323
Width: 255
VWidth: 1023
Flags: HW
HStem: 462 20G<86 166.073>
VStem: 87 81<-154.025 482>
LayerCount: 2
Fore
SplineSet
168 -64 m 2,0,1
 168 -124 168 -124 161 -142 c 0,2,3
 141 -193 141 -193 114.5 -219 c 128,-1,4
 88 -245 88 -245 38 -263 c 1,5,-1
 8 -202 l 1,6,7
 87 -164 87 -164 87 -77 c 0,8,9
 87 -74 87 -74 87 -71 c 1,10,-1
 87 -68 l 1,11,-1
 86 482 l 1,12,-1
 166 482 l 1,13,-1
 168 -64 l 2,0,1
EndSplineSet
EndChar

StartChar: Eng
Encoding: 330 330 324
Width: 804
VWidth: 1023
Flags: HW
HStem: -161 59<445.576 599.156> 0 21G<142 225> 675 20G<142 205.362>
VStem: 142 83<0 584.521> 619 83<-82.5481 555.035>
LayerCount: 2
Fore
SplineSet
142 695 m 1,0,-1
 196 695 l 1,1,-1
 218 648 l 1,2,3
 278 676 278 676 331 694 c 0,4,5
 415 723 415 723 482 723 c 0,6,7
 559 723 559 723 613 685 c 0,8,9
 686 633 686 633 699 530 c 0,10,11
 702 501 702 501 702 445 c 2,12,-1
 702 -8 l 2,13,14
 702 -47 702 -47 698 -68 c 0,15,16
 688 -123 688 -123 639 -154 c 0,17,18
 614 -169 614 -169 578 -176 c 1,19,20
 564 -179 564 -179 545 -179 c 0,21,22
 501 -179 501 -179 435 -161 c 1,23,-1
 447 -102 l 1,24,25
 495 -111 495 -111 523 -111 c 0,26,27
 531 -111 531 -111 537 -110 c 0,28,29
 607 -101 607 -101 617 -41 c 0,30,31
 619 -33 619 -33 619 -5 c 2,32,-1
 619 410 l 2,33,34
 619 470 619 470 613 508.5 c 128,-1,35
 607 547 607 547 581 582 c 0,36,37
 536 642 536 642 451 642 c 0,38,39
 401 642 401 642 336 621 c 0,40,41
 294 608 294 608 225 575 c 1,42,-1
 225 0 l 1,43,-1
 142 0 l 1,44,-1
 142 695 l 1,0,-1
EndSplineSet
EndChar

StartChar: Lslash
Encoding: 321 321 325
Width: 537
VWidth: 1023
Flags: HW
HStem: 0 73<210.8 521.8> 674 20<127.8 210.8>
VStem: 128 83<73 694>
LayerCount: 2
Fore
SplineSet
57 314 m 1
 338 477 l 1
 338 393 l 1
 57 230 l 1
 57 314 l 1
EndSplineSet
Refer: 33 76 N 1 0 0 1 0 0 2
EndChar

StartChar: lslash
Encoding: 322 322 326
Width: 335
VWidth: 1023
Flags: HW
HStem: 0 21<113 193> 651 20<113 193>
VStem: 44 252 75 80<0 671>
LayerCount: 2
Fore
SplineSet
44 328 m 1
 296 474 l 1
 296 401 l 1
 44 255 l 1
 44 328 l 1
EndSplineSet
Refer: 10 108 N 1 0 0 1 15 0 2
EndChar

StartChar: kgreenlandic
Encoding: 312 312 327
Width: 523
VWidth: 0
Flags: HW
HStem: 0 21G<88 168 373.591 489> 462 20G<88 168 362.638 463>
VStem: 88 80<0 482>
LayerCount: 2
Fore
SplineSet
88 482 m 1,0,-1
 168 482 l 1,1,-1
 168 0 l 1,2,-1
 88 0 l 1,3,-1
 88 482 l 1,0,-1
380 482 m 1,4,-1
 463 482 l 1,5,-1
 267 257 l 1,6,-1
 489 0 l 1,7,-1
 391 0 l 1,8,-1
 176 247 l 1,9,-1
 380 482 l 1,4,-1
EndSplineSet
EndChar

StartChar: napostrophe
Encoding: 329 329 328
Width: 659
VWidth: 1023
Flags: HW
HStem: 0 73 408 73 482 21G<36.0996 110.1> 674 20G<36.0996 110.1>
VStem: 36 74<481.934 693.934> 149 82<0 397> 487 81<0 392>
LayerCount: 2
Fore
SplineSet
36 694 m 5
 110 694 l 1
 110 482 l 1
 36 482 l 1
 36 694 l 5
EndSplineSet
Refer: 5 110 N 1 0 0 1 83 0 2
EndChar

StartChar: ogonek
Encoding: 731 731 329
Width: 529
VWidth: 0
Flags: HW
HStem: 16 54<407.306 439.944>
VStem: 224 229
LayerCount: 2
Fore
SplineSet
438 70 m 1,0,-1
 453 16 l 1,1,2
 408 -1 408 -1 374 -27 c 0,3,4
 295 -89 295 -89 295 -146 c 0,5,6
 295 -149 295 -149 295 -152 c 0,7,8
 297 -175 297 -175 311 -188 c 0,9,10
 325 -201 325 -201 346 -201 c 0,11,12
 378 -201 378 -201 427 -172 c 1,13,-1
 450 -216 l 1,14,15
 380 -267 380 -267 325 -267 c 0,16,17
 295 -267 295 -267 270 -252 c 1,18,19
 224 -222 224 -222 224 -169 c 0,20,21
 224 -166 224 -166 224 -163 c 0,22,23
 227 -106 227 -106 260 -57 c 0,24,25
 326 40 326 40 438 70 c 1,0,-1
EndSplineSet
EndChar

StartChar: Tbar
Encoding: 358 358 333
Width: 585
VWidth: 1023
Flags: HW
HStem: 0 21<268.8 351.8> 294 74<119.8 526.8> 621 73<37.7998 268.8 351.8 583.8>
VStem: 269 83<0 621>
LayerCount: 2
Fore
SplineSet
120 368 m 1
 527 368 l 1
 527 294 l 1
 120 294 l 1
 120 368 l 1
EndSplineSet
Refer: 39 84 N 1 0 0 1 0 0 2
EndChar

StartChar: tbar
Encoding: 359 359 334
Width: 387
VWidth: 1023
Flags: HW
HStem: -9 68<205.12 345.524> 234 53<8 300> 415 68<25 106 187 347>
VStem: 106 81<82.7104 415 483 603>
LayerCount: 2
Fore
SplineSet
8 287 m 1
 300 287 l 1
 300 234 l 1
 8 234 l 1
 8 287 l 1
EndSplineSet
Refer: 19 116 N 1 0 0 1 0 0 2
EndChar

StartChar: Hbar
Encoding: 294 294 335
Width: 740
VWidth: 1023
Flags: HW
HStem: 0 21<90 177 562 650> 311 75<177 562> 553 68<40 724>
VStem: 90 87<0 311 386 692> 562 88<0 311 386 692>
LayerCount: 2
Fore
SplineSet
40 621 m 1
 724 621 l 1
 724 553 l 1
 40 553 l 1
 40 621 l 1
EndSplineSet
Refer: 29 72 S 1 0 0 1 0 0 2
EndChar

StartChar: hbar
Encoding: 295 295 336
Width: 520
VWidth: 1023
Flags: HW
HStem: 0 73 408 73 558 63<16 301>
VStem: 60 83<0 400 452 670> 390 82<0 395>
LayerCount: 2
Fore
SplineSet
16 621 m 1
 301 621 l 1
 301 558 l 1
 16 558 l 1
 16 621 l 1
EndSplineSet
Refer: 3 104 N 1 0 0 1 0 0 2
EndChar

StartChar: dcroat
Encoding: 273 273 337
Width: 604
VWidth: 1023
Flags: HW
HStem: 0 73 408 73 558 63<276 561> 651 20
VStem: 56 85<138 347> 420 83<79 415 471 671>
LayerCount: 2
Fore
SplineSet
276 621 m 1
 561 621 l 1
 561 558 l 1
 276 558 l 1
 276 621 l 1
EndSplineSet
Refer: 1 100 N 1 0 0 1 0 0 2
EndChar

StartChar: ohungarumlaut
Encoding: 337 337 339
Width: 569
VWidth: 0
Flags: HW
HStem: -10 65<201.366 356.188> 426 64<201.263 354.656>
VStem: 46 83<136.024 343.789> 427 83<134.537 345.226>
LayerCount: 2
Fore
SplineSet
292 756 m 1
 337 703 l 1
 153 549 l 1
 114 598 l 1
 292 756 l 1
506 756 m 1
 551 703 l 1
 367 549 l 1
 328 598 l 1
 506 756 l 1
EndSplineSet
Refer: 6 111 N 1 0 0 1 0 0 3
EndChar

StartChar: Aogonek
Encoding: 260 260 340
Width: 675
VWidth: 0
Flags: HW
HStem: 0 21G<63 146.931> 202 72<235 471> 674 20G<302.882 411.118>
LayerCount: 2
Fore
SplineSet
310 694 m 1,0,-1
 404 694 l 1,1,-1
 651 0 l 1,2,-1
 644 0 l 2,3,4
 586 0 586 0 548.5 -20 c 128,-1,5
 511 -40 511 -40 482 -80 c 0,6,7
 454 -119 454 -119 454 -145 c 0,8,9
 454 -172 454 -172 466 -184 c 0,10,11
 481 -201 481 -201 505 -201 c 0,12,13
 522 -201 522 -201 544 -192 c 0,14,15
 560 -185 560 -185 585 -172 c 1,16,-1
 608 -216 l 1,17,18
 537 -266 537 -266 480 -266 c 0,19,20
 479 -266 479 -266 478 -266 c 1,21,22
 439 -264 439 -264 417 -244 c 0,23,24
 383 -212 383 -212 383 -164 c 0,25,26
 383 -155 383 -155 384 -144 c 0,27,28
 392 -82 392 -82 460 -20 c 0,29,30
 504 21 504 21 554 38 c 1,31,-1
 497 202 l 1,32,-1
 210 202 l 1,33,-1
 140 0 l 1,34,-1
 63 0 l 1,35,-1
 310 694 l 1,0,-1
354 613 m 1,36,-1
 235 274 l 1,37,-1
 471 274 l 1,38,-1
 354 613 l 1,36,-1
EndSplineSet
EndChar

StartChar: aogonek
Encoding: 261 261 341
Width: 521
VWidth: 0
Flags: HW
HStem: 213 61<177.199 354> 397 59<104.22 163.861> 465 20G<213.5 295>
VStem: 354 79<82.8254 213 274 382.234>
LayerCount: 2
Fore
SplineSet
91 456 m 1,0,1
 166 485 166 485 236 485 c 0,2,3
 413 485 413 485 432 364 c 0,4,5
 434 353 434 353 434 314 c 2,6,-1
 433 -22 l 1,7,8
 407 -35 407 -35 339 -71 c 1,9,10
 275 -107 275 -107 275 -154 c 0,11,12
 275 -157 275 -157 275 -161 c 0,13,14
 277 -181 277 -181 290 -193 c 0,15,16
 304 -206 304 -206 326 -206 c 0,17,18
 358 -206 358 -206 407 -179 c 1,19,-1
 430 -219 l 1,20,21
 359 -265 359 -265 304 -265 c 0,22,23
 274 -265 274 -265 249 -251 c 1,24,25
 205 -224 205 -224 205 -175 c 0,26,27
 205 -171 205 -171 205 -167 c 1,28,29
 210 -72 210 -72 375 4 c 1,30,-1
 359 42 l 1,31,32
 283 -10 283 -10 217 -10 c 0,33,34
 171 -10 171 -10 129 16 c 0,35,36
 62 56 62 56 60 118 c 0,37,38
 60 121 60 121 60 125 c 0,39,40
 60 182 60 182 103 220 c 0,41,42
 133 247 133 247 189 260 c 128,-1,43
 245 273 245 273 354 274 c 1,44,-1
 354 293 l 2,45,46
 354 335 354 335 347 359 c 128,-1,47
 340 383 340 383 312 401 c 0,48,49
 283 419 283 419 235 419 c 0,50,51
 182 419 182 419 106 397 c 1,52,-1
 91 456 l 1,0,1
354 97 m 1,53,-1
 354 213 l 1,54,-1
 325 213 l 1,55,56
 232 211 232 211 203.5 202.5 c 0,57,58
 174 194 174 194 156 174 c 0,59,60
 139 156 139 156 140 136 c 0,61,62
 140 96 140 96 172 76 c 0,63,64
 200 58 200 58 239 57 c 0,65,66
 242 57 242 57 244 57 c 0,67,68
 301 57 301 57 354 97 c 1,53,-1
EndSplineSet
EndChar

StartChar: Eogonek
Encoding: 280 280 342
Width: 626
VWidth: 0
Flags: HW
HStem: -265 65<399.581 501.679> 0 73<225 435> 321 73<225 521> 621 73<225 548>
VStem: 142 83<73 321 394 621> 322 70<-191.662 -93.592>
LayerCount: 2
Fore
SplineSet
396 -172 m 0,0,1
 408 -200 408 -200 450 -200 c 0,2,3
 475 -200 475 -200 524 -171 c 1,4,-1
 547 -215 l 1,5,6
 481 -264 481 -264 421 -265 c 0,7,8
 384 -265 384 -265 364 -250 c 0,9,10
 322 -220 322 -220 322 -170.5 c 128,-1,11
 322 -121 322 -121 348 -81.5 c 128,-1,12
 374 -42 374 -42 426 -6 c 1,13,-1
 435 0 l 1,14,-1
 142 0 l 1,15,-1
 142 694 l 1,16,-1
 548 694 l 1,17,-1
 548 621 l 1,18,-1
 225 621 l 1,19,-1
 225 394 l 1,20,-1
 521 394 l 1,21,-1
 521 321 l 1,22,-1
 225 321 l 1,23,-1
 225 73 l 1,24,-1
 548 73 l 1,25,-1
 548 14 l 1,26,-1
 462 -47 l 1,27,28
 392 -100 392 -100 392 -148 c 0,29,30
 392 -164 392 -164 396 -172 c 0,0,1
EndSplineSet
EndChar

StartChar: eogonek
Encoding: 281 281 343
Width: 538
VWidth: 0
Flags: HW
HStem: 199 60<145 397> 417 70<207.48 347.904>
VStem: 63 80<129.145 199 259 343.98> 397 78<259 367.828>
LayerCount: 2
Fore
SplineSet
173 13 m 1,0,1
 63 66 63 66 63 227 c 0,2,3
 63 312 63 312 99 373.5 c 128,-1,4
 135 435 135 435 185.5 460 c 128,-1,5
 236 485 236 485 284 487 c 0,6,7
 287 487 287 487 291 487 c 0,8,9
 376 487 376 487 422 438 c 0,10,11
 459 398 459 398 469 338 c 0,12,13
 475 305 475 305 475 246 c 2,14,-1
 475 199 l 1,15,-1
 143 199 l 1,16,17
 144 150 144 150 175 116 c 0,18,19
 232 52 232 52 325 52 c 0,20,21
 374 52 374 52 434 70 c 1,22,-1
 448 16 l 1,23,24
 399 0 399 0 364 -31 c 0,25,26
 290 -95 290 -95 290 -152 c 0,27,28
 290 -156 290 -156 290 -160 c 0,29,30
 293 -186 293 -186 308 -196 c 0,31,32
 323 -206 323 -206 343 -206 c 0,33,34
 376 -206 376 -206 422 -179 c 1,35,-1
 445 -220 l 1,36,37
 375 -266 375 -266 315 -266 c 0,38,39
 283 -266 283 -266 261 -250 c 0,40,41
 220 -221 220 -221 220 -169 c 0,42,43
 220 -89 220 -89 307 -11 c 1,44,45
 301 -11 301 -11 295 -11 c 0,46,47
 220 -11 220 -11 173 13 c 1,0,1
279 417 m 0,48,49
 274 417 274 417 270 417 c 0,50,51
 240 416 240 416 214 400 c 0,52,53
 148 357 148 357 145 259 c 1,54,-1
 397 259 l 1,55,56
 397 266 397 266 397 273 c 0,57,58
 396 342 396 342 370 375 c 0,59,60
 340 412 340 412 279 417 c 0,48,49
EndSplineSet
EndChar

StartChar: Iogonek
Encoding: 302 302 344
Width: 356
VWidth: 0
Flags: HW
HStem: -266 65<94.3372 193.693> 674 20G<156 239>
VStem: 156 83<13.125 694>
LayerCount: 2
Fore
SplineSet
156 694 m 1,0,-1
 239 694 l 1,1,-1
 239 15 l 1,2,3
 129 -45 129 -45 98 -105 c 0,4,5
 86 -128 86 -128 86 -148 c 0,6,7
 86 -160 86 -160 90 -170 c 0,8,9
 101 -198 101 -198 134 -200 c 0,10,11
 136 -200 136 -200 137 -201 c 0,12,13
 169 -201 169 -201 217 -172 c 1,14,-1
 241 -216 l 1,15,16
 173 -265 173 -265 116 -266 c 0,17,18
 114 -266 114 -266 112 -266 c 0,19,20
 78 -266 78 -266 56 -249 c 0,21,22
 15 -217 15 -217 15 -173 c 0,23,24
 15 -91 15 -91 84 -26 c 0,25,26
 115 3 115 3 156 24 c 1,27,-1
 156 694 l 1,0,-1
EndSplineSet
EndChar

StartChar: iogonek
Encoding: 303 303 345
Width: 255
VWidth: 0
Flags: HW
HStem: 462 20G<88 168> 602 92<81 175>
VStem: 81 94<602 694> 88 80<27.6183 482>
LayerCount: 2
Fore
SplineSet
88 482 m 1,0,-1
 168 482 l 1,1,-1
 168 11 l 1,2,3
 123 -5 123 -5 87 -33 c 0,4,5
 10 -94 10 -94 10 -152 c 0,6,7
 10 -155 10 -155 10 -158 c 0,8,9
 11 -179 11 -179 26 -192 c 1,10,11
 40 -206 40 -206 62 -206 c 0,12,13
 81 -206 81 -206 106 -195 c 0,14,15
 122 -187 122 -187 142 -177 c 1,16,-1
 166 -220 l 1,17,18
 104 -267 104 -267 57 -270 c 0,19,20
 50 -271 50 -271 43 -271 c 0,21,22
 -26 -271 -26 -271 -51 -215 c 0,23,24
 -59 -195 -59 -195 -59 -164 c 0,25,26
 -59 -158 -59 -158 -59 -152 c 0,27,28
 -57 -112 -57 -112 -19.5 -55 c 128,-1,29
 18 2 18 2 88 40 c 1,30,-1
 88 482 l 1,0,-1
81 694 m 1,31,-1
 175 694 l 1,32,-1
 175 602 l 1,33,-1
 81 602 l 1,34,-1
 81 694 l 1,31,-1
EndSplineSet
EndChar

StartChar: Uogonek
Encoding: 370 370 346
Width: 771
VWidth: 0
Flags: HW
HStem: -11 73<304.125 400> 674 20G<142 225 586 669>
VStem: 142 83<139.016 694> 586 83<139.079 694>
LayerCount: 2
Fore
SplineSet
141 255 m 2,0,-1
 142 303 l 1,1,-1
 142 694 l 1,2,-1
 225 694 l 1,3,-1
 225 244 l 2,4,5
 225 199 225 199 232.5 170 c 0,6,7
 240 140 240 140 264 114 c 0,8,9
 311 62 311 62 405.5 62 c 128,-1,10
 500 62 500 62 549 117 c 0,11,12
 571 142 571 142 578.5 170.5 c 128,-1,13
 586 199 586 199 586 244 c 2,14,-1
 586 694 l 1,15,-1
 669 694 l 1,16,-1
 669 223 l 1,17,18
 668 93 668 93 594 42 c 0,19,20
 570 26 570 26 518.5 0.5 c 128,-1,21
 467 -25 467 -25 442 -51 c 0,22,23
 391 -106 391 -106 391 -147 c 0,24,25
 391 -152 391 -152 392 -157 c 0,26,27
 395 -176 395 -176 407 -188 c 0,28,29
 422 -203 422 -203 443 -203 c 0,30,31
 475 -203 475 -203 523 -171 c 1,32,-1
 547 -216 l 1,33,34
 483 -265 483 -265 422 -266 c 0,35,36
 420 -266 420 -266 418 -266 c 0,37,38
 381 -266 381 -266 359 -249 c 1,39,40
 321 -217 321 -217 321 -166 c 128,-1,41
 321 -115 321 -115 346 -75.5 c 128,-1,42
 371 -36 371 -36 400 -11 c 1,43,44
 294 -11 294 -11 230 32 c 0,45,46
 152 84 152 84 143 187 c 0,47,48
 141 208 141 208 141 255 c 2,0,-1
EndSplineSet
EndChar

StartChar: uogonek
Encoding: 371 371 347
Width: 576
VWidth: 0
Flags: HW
HStem: 462 20G<89.8444 170 409 489>
VStem: 89 81<103.421 482> 409 80<89.3463 482>
LayerCount: 2
Fore
SplineSet
409 482 m 1,0,-1
 489 482 l 1,1,-1
 489 -22 l 1,2,3
 425 -55 425 -55 388.5 -76 c 0,4,5
 352 -96 352 -96 336 -132 c 0,6,7
 330 -145 330 -145 329 -157 c 0,8,9
 329 -177 329 -177 347 -193 c 0,10,11
 361 -205 361 -205 383 -205 c 0,12,13
 415 -205 415 -205 463 -179 c 1,14,-1
 486 -219 l 1,15,16
 420 -262 420 -262 375 -264 c 0,17,18
 369 -264 369 -264 363 -265 c 0,19,20
 327 -265 327 -265 307 -252 c 1,21,22
 261 -226 261 -226 261 -173 c 0,23,24
 261 -170 261 -170 261 -166 c 0,25,26
 267 -70 267 -70 431 3 c 1,27,-1
 416 40 l 1,28,29
 358 7 358 7 295 -5 c 0,30,31
 269 -10 269 -10 246 -10 c 0,32,33
 180 -10 180 -10 137 32 c 1,34,35
 95 71 95 71 89 150 c 0,36,37
 88 164 88 164 88 225 c 2,38,-1
 90 482 l 1,39,-1
 170 482 l 1,40,-1
 170 191 l 2,41,42
 170 90 170 90 238 68 c 0,43,44
 258 62 258 62 280 62 c 0,45,46
 335 62 335 62 409 100 c 1,47,-1
 409 482 l 1,0,-1
EndSplineSet
EndChar

StartChar: uhungarumlaut
Encoding: 369 369 349
Width: 521
VWidth: 0
Flags: HW
HStem: 0 73 408 73
VStem: 66 81<88 480> 391 82<83 480>
LayerCount: 2
Fore
SplineSet
410 756 m 1
 455 703 l 1
 271 549 l 1
 232 598 l 1
 410 756 l 1
186 756 m 1
 231 703 l 1
 47 549 l 1
 8 598 l 1
 186 756 l 1
EndSplineSet
Refer: 14 117 N 1 0 0 1 0 0 3
EndChar

StartChar: quotereversed
Encoding: 8219 8219 350
Width: 219
VWidth: 1023
Flags: HW
HStem: 482 212<105 139>
VStem: 44 156
LayerCount: 2
Fore
SplineSet
139 694 m 1,0,-1
 200 482 l 1,1,-1
 105 482 l 1,2,-1
 44 694 l 1,3,-1
 139 694 l 1,0,-1
EndSplineSet
EndChar

StartChar: uni201F
Encoding: 8223 8223 351
Width: 405
VWidth: 1023
Flags: HW
HStem: 482 212<195 229 381 415>
LayerCount: 2
Fore
SplineSet
325 694 m 1,0,-1
 386 482 l 1,1,-1
 291 482 l 1,2,-1
 229 694 l 1,3,-1
 325 694 l 1,0,-1
139 694 m 1,4,-1
 200 482 l 1,5,-1
 105 482 l 1,6,-1
 44 694 l 1,7,-1
 139 694 l 1,4,-1
EndSplineSet
EndChar

StartChar: uni204B
Encoding: 8267 8267 353
Width: 653
VWidth: 1023
Flags: HW
HStem: 0 21<92 175 293 376.06> 665 73<175 293>
VStem: 92 83<0 665> 293 83<0 337.067> 293 297<449.609 648.755>
LayerCount: 2
Fore
SplineSet
540 687 m 1,0,1
 590 637 590 637 590 553 c 0,2,3
 590 507 590 507 571.5 458 c 128,-1,4
 553 409 553 409 509 376 c 0,5,6
 483 357 483 357 455 348 c 0,7,8
 426 339 426 339 377 335 c 1,9,-1
 376 0 l 1,10,-1
 293 0 l 1,11,-1
 293 665 l 1,12,-1
 175 665 l 1,13,-1
 175 0 l 1,14,-1
 92 0 l 1,15,-1
 92 738 l 1,16,-1
 355 738 l 2,17,18
 423 738 423 738 465.5 727.5 c 128,-1,19
 508 717 508 717 540 687 c 1,0,1
EndSplineSet
EndChar

StartChar: uni2035
Encoding: 8245 8245 357
Width: 197
VWidth: 1023
Flags: HW
HStem: 482 212<68 129>
VStem: 34 130
LayerCount: 2
Fore
SplineSet
34 694 m 1,0,-1
 129 694 l 1,1,-1
 164 482 l 1,2,-1
 68 482 l 1,3,-1
 34 694 l 1,0,-1
EndSplineSet
EndChar

StartChar: uni0191
Encoding: 401 401 358
Width: 609
VWidth: 1023
Flags: HW
HStem: -257 60<-40 118.542> 321 73<225 514> 621 73<225 543>
VStem: 142 83<-174.854 321 394 621>
LayerCount: 2
Fore
SplineSet
-52 -257 m 1,0,-1
 -40 -197 l 1,1,2
 4 -209 4 -209 38 -209 c 128,-1,3
 72 -209 72 -209 95 -197 c 0,4,5
 142 -173 142 -173 142 -106 c 2,6,-1
 142 694 l 1,7,-1
 543 694 l 1,8,-1
 543 621 l 1,9,-1
 225 621 l 1,10,-1
 225 394 l 1,11,-1
 514 394 l 1,12,-1
 514 321 l 1,13,-1
 225 321 l 1,14,-1
 225 -109 l 2,15,16
 225 -248 225 -248 104 -271 c 1,17,18
 82 -275 82 -275 58 -275 c 0,19,20
 7 -275 7 -275 -52 -257 c 1,0,-1
EndSplineSet
EndChar

StartChar: wgrave
Encoding: 7809 7809 374
Width: 817
VWidth: 0
Flags: HW
HStem: 0 21<195.697 285.598 527.555 622.303> 462 20<27 118.485 365.614 457.139 699.515 791>
LayerCount: 2
Fore
SplineSet
369 756 m 1
 546 598 l 1
 507 549 l 1
 324 703 l 1
 369 756 l 1
EndSplineSet
Refer: 11 119 N 1 0 0 1 0 0 3
EndChar

